<?xml version="1.0" encoding="utf-8" ?>
<svg baseProfile="full" height="100%" version="1.1" width="100%" xmlns="http://www.w3.org/2000/svg" xmlns:ev="http://www.w3.org/2001/xml-events" xmlns:xlink="http://www.w3.org/1999/xlink"><defs /><path d="M 98.7221716418 400.0 C 163.532947042 243.532947042 1320.63657544 -426.880906415 1323.78598765 -423.785987654" fill="none" stroke="yellow" stroke-opacity="0.33" stroke-width="2.0" /><path d="M 98.7221716418 400.0 C 163.532947042 243.532947042 1369.95676065 -477.953453275 1373.99 -473.99" fill="none" stroke="yellow" stroke-opacity="0.33" stroke-width="2.0" /><path d="M 98.7221716418 400.0 C 163.532947042 243.532947042 1350.50654676 -457.81216719 1354.19123457 -454.191234568" fill="none" stroke="yellow" stroke-opacity="0.33" stroke-width="2.0" /><path d="M 98.7221716418 400.0 C 163.532947042 243.532947042 1326.19377941 -432.635559583 1329.44277778 -429.442777778" fill="none" stroke="yellow" stroke-opacity="0.33" stroke-width="4.0" /><path d="M 98.7221716418 400.0 C 163.532947042 243.532947042 1148.36325248 -248.48665823 1148.42549383 -248.425493827" fill="none" stroke="yellow" stroke-opacity="0.33" stroke-width="6.0" /><path d="M 250.420865672 400.0 C 270.800122287 350.800122287 1331.75098338 -438.39021275 1335.0995679 -435.099567901" fill="none" stroke="yellow" stroke-opacity="0.33" stroke-width="2.0" /><path d="M 250.420865672 400.0 C 270.800122287 350.800122287 1337.30818734 -444.144865917 1340.75635802 -440.756358025" fill="none" stroke="yellow" stroke-opacity="0.33" stroke-width="2.0" /><path d="M 250.420865672 400.0 C 270.800122287 350.800122287 1151.83650496 -252.083316459 1151.96098765 -251.960987654" fill="none" stroke="yellow" stroke-opacity="0.33" stroke-width="2.0" /><path d="M 250.420865672 400.0 C 270.800122287 350.800122287 1369.95676065 -477.953453275 1373.99 -473.99" fill="none" stroke="yellow" stroke-opacity="0.33" stroke-width="6.0" /><path d="M 250.420865672 400.0 C 270.800122287 350.800122287 1358.14770222 -465.724815295 1361.96932099 -461.969320988" fill="none" stroke="yellow" stroke-opacity="0.33" stroke-width="4.0" /><path d="M 62.7190149254 400.0 C 138.074870783 218.074870783 1155.30975744 -255.679974689 1155.49648148 -255.496481481" fill="none" stroke="yellow" stroke-opacity="0.33" stroke-width="4.0" /><path d="M 62.7190149254 400.0 C 138.074870783 218.074870783 1158.78300992 -259.276632918 1159.03197531 -259.031975309" fill="none" stroke="yellow" stroke-opacity="0.33" stroke-width="4.0" /><path d="M 62.7190149254 400.0 C 138.074870783 218.074870783 1162.2562624 -262.873291148 1162.56746914 -262.567469136" fill="none" stroke="yellow" stroke-opacity="0.33" stroke-width="4.0" /><path d="M 62.7190149254 400.0 C 138.074870783 218.074870783 1165.72951487 -266.469949377 1166.10296296 -266.102962963" fill="none" stroke="yellow" stroke-opacity="0.33" stroke-width="4.0" /><path d="M 62.7190149254 400.0 C 138.074870783 218.074870783 1169.20276735 -270.066607607 1169.63845679 -269.63845679" fill="none" stroke="yellow" stroke-opacity="0.33" stroke-width="4.0" /><path d="M -99.4974552239 400.0 C 23.3705047207 103.370504721 1342.86539131 -449.899519085 1346.41314815 -446.413148148" fill="none" stroke="yellow" stroke-opacity="0.33" stroke-width="2.0" /><path d="M -99.4974552239 400.0 C 23.3705047207 103.370504721 1172.67601983 -273.663265836 1173.17395062 -273.173950617" fill="none" stroke="yellow" stroke-opacity="0.33" stroke-width="2.0" /><path d="M -99.4974552239 400.0 C 23.3705047207 103.370504721 1350.50654676 -457.81216719 1354.19123457 -454.191234568" fill="none" stroke="yellow" stroke-opacity="0.33" stroke-width="2.0" /><path d="M -99.4974552239 400.0 C 23.3705047207 103.370504721 1176.14927231 -277.259924066 1176.70944444 -276.709444444" fill="none" stroke="yellow" stroke-opacity="0.33" stroke-width="2.0" /><path d="M -99.4974552239 400.0 C 23.3705047207 103.370504721 1179.62252479 -280.856582296 1180.24493827 -280.244938272" fill="none" stroke="yellow" stroke-opacity="0.33" stroke-width="4.0" /><path d="M -99.4974552239 400.0 C 23.3705047207 103.370504721 1183.09577727 -284.453240525 1183.7804321 -283.780432099" fill="none" stroke="yellow" stroke-opacity="0.33" stroke-width="4.0" /><path d="M -99.4974552239 400.0 C 23.3705047207 103.370504721 1186.56902975 -288.049898755 1187.31592593 -287.315925926" fill="none" stroke="yellow" stroke-opacity="0.33" stroke-width="4.0" /><path d="M -99.4974552239 400.0 C 23.3705047207 103.370504721 1369.95676065 -477.953453275 1373.99 -473.99" fill="none" stroke="yellow" stroke-opacity="0.33" stroke-width="4.0" /><path d="M -99.4974552239 400.0 C 23.3705047207 103.370504721 1190.04228223 -291.646556984 1190.85141975 -290.851419753" fill="none" stroke="yellow" stroke-opacity="0.33" stroke-width="6.0" /><path d="M -99.4974552239 400.0 C 23.3705047207 103.370504721 1193.51553471 -295.243215214 1194.38691358 -294.38691358" fill="none" stroke="yellow" stroke-opacity="0.33" stroke-width="6.0" /><path d="M -99.4974552239 400.0 C 23.3705047207 103.370504721 1196.98878719 -298.839873443 1197.92240741 -297.922407407" fill="none" stroke="yellow" stroke-opacity="0.33" stroke-width="6.0" /><path d="M -99.4974552239 400.0 C 23.3705047207 103.370504721 1200.46203967 -302.436531673 1201.45790123 -301.457901235" fill="none" stroke="yellow" stroke-opacity="0.33" stroke-width="8.0" /><path d="M 222.50830597 400.0 C 251.062962042 331.062962042 1203.93529214 -306.033189902 1204.99339506 -304.993395062" fill="none" stroke="yellow" stroke-opacity="0.33" stroke-width="4.0" /><path d="M 222.50830597 400.0 C 251.062962042 331.062962042 1207.40854462 -309.629848132 1208.52888889 -308.528888889" fill="none" stroke="yellow" stroke-opacity="0.33" stroke-width="4.0" /><path d="M 222.50830597 400.0 C 251.062962042 331.062962042 1210.8817971 -313.226506362 1212.06438272 -312.064382716" fill="none" stroke="yellow" stroke-opacity="0.33" stroke-width="2.0" /><path d="M 222.50830597 400.0 C 251.062962042 331.062962042 1358.14770222 -465.724815295 1361.96932099 -461.969320988" fill="none" stroke="yellow" stroke-opacity="0.33" stroke-width="2.0" /><path d="M 192.573097015 400.0 C 229.895572794 309.895572794 1369.95676065 -477.953453275 1373.99 -473.99" fill="none" stroke="yellow" stroke-opacity="0.33" stroke-width="6.0" /><path d="M 192.573097015 400.0 C 229.895572794 309.895572794 1214.35504958 -316.823164591 1215.59987654 -315.599876543" fill="none" stroke="yellow" stroke-opacity="0.33" stroke-width="6.0" /><path d="M 192.573097015 400.0 C 229.895572794 309.895572794 1217.82830206 -320.419822821 1219.13537037 -319.13537037" fill="none" stroke="yellow" stroke-opacity="0.33" stroke-width="4.0" /><path d="M 302.200686567 400.0 C 307.413984771 387.413984771 1221.30155454 -324.01648105 1222.6708642 -322.670864198" fill="none" stroke="yellow" stroke-opacity="0.33" stroke-width="2.0" /><path d="M 302.200686567 400.0 C 307.413984771 387.413984771 1224.77480702 -327.61313928 1226.20635802 -326.206358025" fill="none" stroke="yellow" stroke-opacity="0.33" stroke-width="6.0" /><path d="M 26.715858209 400.0 C 112.616794525 192.616794525 1369.95676065 -477.953453275 1373.99 -473.99" fill="none" stroke="yellow" stroke-opacity="0.33" stroke-width="2.0" /><path d="M 26.715858209 400.0 C 112.616794525 192.616794525 1228.2480595 -331.209797509 1229.74185185 -329.741851852" fill="none" stroke="yellow" stroke-opacity="0.33" stroke-width="2.0" /><path d="M 26.715858209 400.0 C 112.616794525 192.616794525 1231.72131198 -334.806455739 1233.27734568 -333.277345679" fill="none" stroke="yellow" stroke-opacity="0.33" stroke-width="2.0" /><path d="M 26.715858209 400.0 C 112.616794525 192.616794525 1235.19456446 -338.403113968 1236.81283951 -336.812839506" fill="none" stroke="yellow" stroke-opacity="0.33" stroke-width="6.0" /><path d="M -51.3584029851 400.0 C 57.4099549986 137.409954999 1238.66781694 -341.999772198 1240.34833333 -340.348333333" fill="none" stroke="yellow" stroke-opacity="0.33" stroke-width="2.0" /><path d="M -51.3584029851 400.0 C 57.4099549986 137.409954999 1242.14106941 -345.596430428 1243.88382716 -343.88382716" fill="none" stroke="yellow" stroke-opacity="0.33" stroke-width="4.0" /><path d="M -51.3584029851 400.0 C 57.4099549986 137.409954999 1245.61432189 -349.193088657 1247.41932099 -347.419320988" fill="none" stroke="yellow" stroke-opacity="0.33" stroke-width="4.0" /><path d="M -222.07 400.0 C -63.3013728778 16.6986271222 1249.08757437 -352.789746887 1250.95481481 -350.954814815" fill="none" stroke="yellow" stroke-opacity="0.33" stroke-width="6.0" /><path d="M -222.07 400.0 C -63.3013728778 16.6986271222 1252.56082685 -356.386405116 1254.49030864 -354.490308642" fill="none" stroke="yellow" stroke-opacity="0.33" stroke-width="6.0" /><path d="M -222.07 400.0 C -63.3013728778 16.6986271222 1256.03407933 -359.983063346 1258.02580247 -358.025802469" fill="none" stroke="yellow" stroke-opacity="0.33" stroke-width="4.0" /><path d="M -222.07 400.0 C -63.3013728778 16.6986271222 1259.50733181 -363.579721575 1261.5612963 -361.561296296" fill="none" stroke="yellow" stroke-opacity="0.33" stroke-width="6.0" /><path d="M -222.07 400.0 C -63.3013728778 16.6986271222 1262.98058429 -367.176379805 1265.09679012 -365.096790123" fill="none" stroke="yellow" stroke-opacity="0.33" stroke-width="6.0" /><path d="M -222.07 400.0 C -63.3013728778 16.6986271222 1266.45383677 -370.773038034 1268.63228395 -368.632283951" fill="none" stroke="yellow" stroke-opacity="0.33" stroke-width="6.0" /><path d="M -222.07 400.0 C -63.3013728778 16.6986271222 1269.92708925 -374.369696264 1272.16777778 -372.167777778" fill="none" stroke="yellow" stroke-opacity="0.33" stroke-width="4.0" /><path d="M 162.63788806 400.0 C 208.728183545 288.728183545 1273.40034173 -377.966354494 1275.7032716 -375.703271605" fill="none" stroke="yellow" stroke-opacity="0.33" stroke-width="2.0" /><path d="M 162.63788806 400.0 C 208.728183545 288.728183545 1358.14770222 -465.724815295 1361.96932099 -461.969320988" fill="none" stroke="yellow" stroke-opacity="0.33" stroke-width="4.0" /><path d="M 132.702679104 400.0 C 187.560794297 267.560794297 1276.87359421 -381.563012723 1279.23876543 -379.238765432" fill="none" stroke="yellow" stroke-opacity="0.33" stroke-width="2.0" /><path d="M 132.702679104 400.0 C 187.560794297 267.560794297 1280.34684668 -385.159670953 1282.77425926 -382.774259259" fill="none" stroke="yellow" stroke-opacity="0.33" stroke-width="2.0" /><path d="M 132.702679104 400.0 C 187.560794297 267.560794297 1283.82009916 -388.756329182 1286.30975309 -386.309753086" fill="none" stroke="yellow" stroke-opacity="0.33" stroke-width="2.0" /><path d="M -11.3099477612 400.0 C 85.7284892635 165.728489263 1331.75098338 -438.39021275 1335.0995679 -435.099567901" fill="none" stroke="yellow" stroke-opacity="0.33" stroke-width="2.0" /><path d="M -11.3099477612 400.0 C 85.7284892635 165.728489263 1287.29335164 -392.352987412 1289.84524691 -389.845246914" fill="none" stroke="yellow" stroke-opacity="0.33" stroke-width="6.0" /><path d="M -11.3099477612 400.0 C 85.7284892635 165.728489263 1290.76660412 -395.949645641 1293.38074074 -393.380740741" fill="none" stroke="yellow" stroke-opacity="0.33" stroke-width="2.0" /><path d="M -11.3099477612 400.0 C 85.7284892635 165.728489263 1294.2398566 -399.546303871 1296.91623457 -396.916234568" fill="none" stroke="yellow" stroke-opacity="0.33" stroke-width="4.0" /><path d="M -11.3099477612 400.0 C 85.7284892635 165.728489263 1342.86539131 -449.899519085 1346.41314815 -446.413148148" fill="none" stroke="yellow" stroke-opacity="0.33" stroke-width="4.0" /><path d="M -151.68180597 400.0 C -13.5294035638 66.4705964362 1320.63657544 -426.880906415 1323.78598765 -423.785987654" fill="none" stroke="yellow" stroke-opacity="0.33" stroke-width="2.0" /><path d="M -151.68180597 400.0 C -13.5294035638 66.4705964362 1337.30818734 -444.144865917 1340.75635802 -440.756358025" fill="none" stroke="yellow" stroke-opacity="0.33" stroke-width="2.0" /><path d="M -151.68180597 400.0 C -13.5294035638 66.4705964362 1301.18636156 -406.73962033 1303.98722222 -403.987222222" fill="none" stroke="yellow" stroke-opacity="0.33" stroke-width="2.0" /><path d="M -151.68180597 400.0 C -13.5294035638 66.4705964362 1350.50654676 -457.81216719 1354.19123457 -454.191234568" fill="none" stroke="yellow" stroke-opacity="0.33" stroke-width="2.0" /><path d="M -151.68180597 400.0 C -13.5294035638 66.4705964362 1326.19377941 -432.635559583 1329.44277778 -429.442777778" fill="none" stroke="yellow" stroke-opacity="0.33" stroke-width="4.0" /><path d="M -151.68180597 400.0 C -13.5294035638 66.4705964362 1297.71310908 -403.1429621 1300.4517284 -400.451728395" fill="none" stroke="yellow" stroke-opacity="0.33" stroke-width="2.0" /><path d="M -151.68180597 400.0 C -13.5294035638 66.4705964362 1304.65961404 -410.336278559 1307.52271605 -407.522716049" fill="none" stroke="yellow" stroke-opacity="0.33" stroke-width="2.0" /><path d="M -151.68180597 400.0 C -13.5294035638 66.4705964362 1308.13286652 -413.932936789 1311.05820988 -411.058209877" fill="none" stroke="yellow" stroke-opacity="0.33" stroke-width="4.0" /><path d="M -151.68180597 400.0 C -13.5294035638 66.4705964362 1311.606119 -417.529595019 1314.5937037 -414.593703704" fill="none" stroke="yellow" stroke-opacity="0.33" stroke-width="4.0" /><path d="M -151.68180597 400.0 C -13.5294035638 66.4705964362 1315.07937148 -421.126253248 1318.12919753 -418.129197531" fill="none" stroke="yellow" stroke-opacity="0.33" stroke-width="2.0" /><path d="M 1323.78598765 -423.785987654 C 1326.88090642 -420.636575442 2378.49669016 615.967931165 1849.78780161 1749.78780161" fill="none" stroke="darkcyan" stroke-opacity="0.8" stroke-width="1.5" /><path d="M 1323.78598765 -423.785987654 C 1326.88090642 -420.636575442 2399.20040255 617.779271292 1864.48345845 1764.48345845" fill="none" stroke="darkcyan" stroke-opacity="0.8" stroke-width="1.5" /><path d="M 1373.99 -473.99 C 1377.95345328 -469.956760646 2378.49669016 615.967931165 1849.78780161 1749.78780161" fill="none" stroke="darkcyan" stroke-opacity="0.8" stroke-width="1.5" /><path d="M 1373.99 -473.99 C 1377.95345328 -469.956760646 2612.32685361 636.425419656 2015.76227882 1915.76227882" fill="none" stroke="darkcyan" stroke-opacity="0.8" stroke-width="1.5" /><path d="M 1373.99 -473.99 C 1377.95345328 -469.956760646 565.095058042 457.315845935 562.621152815 462.621152815" fill="none" stroke="lightsteelblue" stroke-opacity="0.77" stroke-width="1.5" /><path d="M 1373.99 -473.99 C 1377.95345328 -469.956760646 573.620116084 458.061691869 568.67230563 468.67230563" fill="none" stroke="lightsteelblue" stroke-opacity="0.77" stroke-width="1.5" /><path d="M 1148.42549383 -248.425493827 C 1148.48665823 -248.363252479 2399.20040255 617.779271292 1864.48345845 1764.48345845" fill="none" stroke="darkcyan" stroke-opacity="0.8" stroke-width="1.5" /><path d="M 1354.19123457 -454.191234568 C 1357.81216719 -450.506546763 2612.32685361 636.425419656 2015.76227882 1915.76227882" fill="none" stroke="darkcyan" stroke-opacity="0.8" stroke-width="1.5" /><path d="M 1354.19123457 -454.191234568 C 1357.81216719 -450.506546763 2182.42035519 598.813474669 1710.61128686 1610.61128686" fill="none" stroke="darkcyan" stroke-opacity="0.8" stroke-width="1.5" /><path d="M 1354.19123457 -454.191234568 C 1357.81216719 -450.506546763 2197.03474041 600.0920677 1720.98469169 1620.98469169" fill="none" stroke="darkcyan" stroke-opacity="0.8" stroke-width="1.5" /><path d="M 1329.44277778 -429.442777778 C 1332.63555958 -426.193779409 2612.32685361 636.425419656 2015.76227882 1915.76227882" fill="none" stroke="darkcyan" stroke-opacity="0.8" stroke-width="1.5" /><path d="M 1329.44277778 -429.442777778 C 1332.63555958 -426.193779409 2182.42035519 598.813474669 1710.61128686 1610.61128686" fill="none" stroke="darkcyan" stroke-opacity="0.8" stroke-width="1.5" /><path d="M 1329.44277778 -429.442777778 C 1332.63555958 -426.193779409 2197.03474041 600.0920677 1720.98469169 1620.98469169" fill="none" stroke="darkcyan" stroke-opacity="0.8" stroke-width="1.5" /><path d="M 1335.0995679 -435.099567901 C 1338.39021275 -431.750983375 633.29552238 463.282613411 611.030375335 511.030375335" fill="none" stroke="lightsteelblue" stroke-opacity="0.77" stroke-width="1.5" /><path d="M 1335.0995679 -435.099567901 C 1338.39021275 -431.750983375 641.820580422 464.028459346 617.08152815 517.08152815" fill="none" stroke="lightsteelblue" stroke-opacity="0.77" stroke-width="1.5" /><path d="M 1335.0995679 -435.099567901 C 1338.39021275 -431.750983375 650.345638464 464.774305281 623.132680965 523.132680965" fill="none" stroke="lightsteelblue" stroke-opacity="0.77" stroke-width="1.5" /><path d="M 1335.0995679 -435.099567901 C 1338.39021275 -431.750983375 658.870696507 465.520151215 629.18383378 529.18383378" fill="none" stroke="lightsteelblue" stroke-opacity="0.77" stroke-width="1.5" /><path d="M 1335.0995679 -435.099567901 C 1338.39021275 -431.750983375 667.395754549 466.26599715 635.234986595 535.234986595" fill="none" stroke="lightsteelblue" stroke-opacity="0.77" stroke-width="1.5" /><path d="M 1335.0995679 -435.099567901 C 1338.39021275 -431.750983375 675.920812591 467.011843084 641.28613941 541.28613941" fill="none" stroke="lightsteelblue" stroke-opacity="0.77" stroke-width="1.5" /><path d="M 1340.75635802 -440.756358025 C 1344.14486592 -437.308187342 2211.64912562 601.370660731 1731.35809651 1631.35809651" fill="none" stroke="darkcyan" stroke-opacity="0.8" stroke-width="1.5" /><path d="M 1340.75635802 -440.756358025 C 1344.14486592 -437.308187342 684.445870633 467.757689019 647.337292225 547.337292225" fill="none" stroke="lightsteelblue" stroke-opacity="0.77" stroke-width="1.5" /><path d="M 1151.96098765 -251.960987654 C 1152.08331646 -251.836504958 692.970928675 468.503534954 653.38844504 553.38844504" fill="none" stroke="lightsteelblue" stroke-opacity="0.77" stroke-width="1.5" /><path d="M 1151.96098765 -251.960987654 C 1152.08331646 -251.836504958 701.495986718 469.249380888 659.439597855 559.439597855" fill="none" stroke="lightsteelblue" stroke-opacity="0.77" stroke-width="1.5" /><path d="M 1151.96098765 -251.960987654 C 1152.08331646 -251.836504958 710.02104476 469.995226823 665.49075067 565.49075067" fill="none" stroke="lightsteelblue" stroke-opacity="0.77" stroke-width="1.5" /><path d="M 1373.99 -473.99 C 1377.95345328 -469.956760646 718.546102802 470.741072757 671.541903485 571.541903485" fill="none" stroke="lightsteelblue" stroke-opacity="0.77" stroke-width="1.5" /><path d="M 1373.99 -473.99 C 1377.95345328 -469.956760646 727.071160844 471.486918692 677.5930563 577.5930563" fill="none" stroke="lightsteelblue" stroke-opacity="0.77" stroke-width="1.5" /><path d="M 1373.99 -473.99 C 1377.95345328 -469.956760646 2211.64912562 601.370660731 1731.35809651 1631.35809651" fill="none" stroke="darkcyan" stroke-opacity="0.8" stroke-width="1.5" /><path d="M 1361.96932099 -461.969320988 C 1365.72481529 -458.147702217 778.221509098 475.961994299 713.89997319 613.89997319" fill="none" stroke="lightsteelblue" stroke-opacity="0.77" stroke-width="1.5" /><path d="M 1361.96932099 -461.969320988 C 1365.72481529 -458.147702217 786.74656714 476.707840234 719.951126005 619.951126005" fill="none" stroke="lightsteelblue" stroke-opacity="0.77" stroke-width="1.5" /><path d="M 1361.96932099 -461.969320988 C 1365.72481529 -458.147702217 795.271625182 477.453686169 726.00227882 626.00227882" fill="none" stroke="lightsteelblue" stroke-opacity="0.77" stroke-width="1.5" /><path d="M 1155.49648148 -255.496481481 C 1155.67997469 -255.309757437 820.846799309 479.691223972 744.155737265 644.155737265" fill="none" stroke="lightsteelblue" stroke-opacity="0.77" stroke-width="1.5" /><path d="M 1159.03197531 -259.031975309 C 1159.27663292 -258.783009916 829.371857351 480.437069907 750.20689008 650.20689008" fill="none" stroke="lightsteelblue" stroke-opacity="0.77" stroke-width="1.5" /><path d="M 1162.56746914 -262.567469136 C 1162.87329115 -262.256262395 2240.87789605 603.927846792 1752.10490617 1652.10490617" fill="none" stroke="darkcyan" stroke-opacity="0.8" stroke-width="1.5" /><path d="M 1166.10296296 -266.102962963 C 1166.46994938 -265.729514875 837.896915393 481.182915842 756.258042895 656.258042895" fill="none" stroke="lightsteelblue" stroke-opacity="0.77" stroke-width="1.5" /><path d="M 1169.63845679 -269.63845679 C 1170.06660761 -269.202767354 846.421973435 481.928761776 762.30919571 662.30919571" fill="none" stroke="lightsteelblue" stroke-opacity="0.77" stroke-width="1.5" /><path d="M 1346.41314815 -446.413148148 C 1349.89951908 -442.865391309 2776.73868728 650.809591252 2132.46308311 2032.46308311" fill="none" stroke="darkcyan" stroke-opacity="0.8" stroke-width="1.5" /><path d="M 1173.17395062 -273.173950617 C 1173.66326584 -272.676019833 2776.73868728 650.809591252 2132.46308311 2032.46308311" fill="none" stroke="darkcyan" stroke-opacity="0.8" stroke-width="1.5" /><path d="M 1354.19123457 -454.191234568 C 1357.81216719 -450.506546763 2776.73868728 650.809591252 2132.46308311 2032.46308311" fill="none" stroke="darkcyan" stroke-opacity="0.8" stroke-width="1.5" /><path d="M 1176.70944444 -276.709444444 C 1177.25992407 -276.149272312 2731.6776662 646.867262741 2100.47841823 2000.47841823" fill="none" stroke="darkcyan" stroke-opacity="0.8" stroke-width="1.5" /><path d="M 1180.24493827 -280.244938272 C 1180.8565823 -279.622524791 2731.6776662 646.867262741 2100.47841823 2000.47841823" fill="none" stroke="darkcyan" stroke-opacity="0.8" stroke-width="1.5" /><path d="M 1183.7804321 -283.780432099 C 1184.45324053 -283.09577727 2731.6776662 646.867262741 2100.47841823 2000.47841823" fill="none" stroke="darkcyan" stroke-opacity="0.8" stroke-width="1.5" /><path d="M 1187.31592593 -287.315925926 C 1188.04989875 -286.569029749 2776.73868728 650.809591252 2132.46308311 2032.46308311" fill="none" stroke="darkcyan" stroke-opacity="0.8" stroke-width="1.5" /><path d="M 1373.99 -473.99 C 1377.95345328 -469.956760646 2776.73868728 650.809591252 2132.46308311 2032.46308311" fill="none" stroke="darkcyan" stroke-opacity="0.8" stroke-width="1.5" /><path d="M 1190.85141975 -290.851419753 C 1191.64655698 -290.042282228 2731.6776662 646.867262741 2100.47841823 2000.47841823" fill="none" stroke="darkcyan" stroke-opacity="0.8" stroke-width="1.5" /><path d="M 1194.38691358 -294.38691358 C 1195.24321521 -293.515534707 2731.6776662 646.867262741 2100.47841823 2000.47841823" fill="none" stroke="darkcyan" stroke-opacity="0.8" stroke-width="1.5" /><path d="M 1197.92240741 -297.922407407 C 1198.83987344 -296.988787186 2731.6776662 646.867262741 2100.47841823 2000.47841823" fill="none" stroke="darkcyan" stroke-opacity="0.8" stroke-width="1.5" /><path d="M 1201.45790123 -301.457901235 C 1202.43653167 -300.462039666 2255.49228127 605.206439823 1762.47831099 1662.47831099" fill="none" stroke="darkcyan" stroke-opacity="0.8" stroke-width="1.5" /><path d="M 1212.06438272 -312.064382716 C 1213.22650636 -310.881797103 2419.90411494 619.590611418 1879.17911528 1779.17911528" fill="none" stroke="darkcyan" stroke-opacity="0.8" stroke-width="1.5" /><path d="M 1208.52888889 -308.528888889 C 1209.62984813 -307.408544624 914.622437773 487.895529253 810.718418231 710.718418231" fill="none" stroke="lightsteelblue" stroke-opacity="0.77" stroke-width="1.5" /><path d="M 1204.99339506 -304.993395062 C 1206.0331899 -303.935292145 974.297844069 493.116450795 853.076487936 753.076487936" fill="none" stroke="lightsteelblue" stroke-opacity="0.77" stroke-width="1.5" /><path d="M 1361.96932099 -461.969320988 C 1365.72481529 -458.147702217 2419.90411494 619.590611418 1879.17911528 1779.17911528" fill="none" stroke="darkcyan" stroke-opacity="0.8" stroke-width="1.5" /><path d="M 1215.59987654 -315.599876543 C 1216.82316459 -314.355049582 999.873018195 495.353988599 871.229946381 771.229946381" fill="none" stroke="lightsteelblue" stroke-opacity="0.77" stroke-width="1.5" /><path d="M 1373.99 -473.99 C 1377.95345328 -469.956760646 1008.39807624 496.099834534 877.281099196 777.281099196" fill="none" stroke="lightsteelblue" stroke-opacity="0.77" stroke-width="1.5" /><path d="M 1219.13537037 -319.13537037 C 1220.41982282 -317.828302061 1016.92313428 496.845680468 883.332252011 783.332252011" fill="none" stroke="lightsteelblue" stroke-opacity="0.77" stroke-width="1.5" /><path d="M 1222.6708642 -322.670864198 C 1224.01648105 -321.30155454 1068.07348253 501.320756076 919.639168901 819.639168901" fill="none" stroke="lightsteelblue" stroke-opacity="0.77" stroke-width="1.5" /><path d="M 1226.20635802 -326.206358025 C 1227.61313928 -324.774807019 2482.01525211 625.024631799 1923.26608579 1823.26608579" fill="none" stroke="darkcyan" stroke-opacity="0.8" stroke-width="1.5" /><path d="M 1222.6708642 -322.670864198 C 1224.01648105 -321.30155454 1085.12359862 502.812447945 931.741474531 831.741474531" fill="none" stroke="lightsteelblue" stroke-opacity="0.77" stroke-width="1.5" /><path d="M 1373.99 -473.99 C 1377.95345328 -469.956760646 2419.90411494 619.590611418 1879.17911528 1779.17911528" fill="none" stroke="darkcyan" stroke-opacity="0.8" stroke-width="1.5" /><path d="M 1373.99 -473.99 C 1377.95345328 -469.956760646 1093.64865666 503.558293879 937.792627346 837.792627346" fill="none" stroke="lightsteelblue" stroke-opacity="0.77" stroke-width="1.5" /><path d="M 1229.74185185 -329.741851852 C 1231.20979751 -328.248059498 2284.7210517 607.763625884 1783.22512064 1683.22512064" fill="none" stroke="darkcyan" stroke-opacity="0.8" stroke-width="1.5" /><path d="M 1229.74185185 -329.741851852 C 1231.20979751 -328.248059498 1195.94935317 512.508445095 1010.40646113 910.406461126" fill="none" stroke="lightsteelblue" stroke-opacity="0.77" stroke-width="1.5" /><path d="M 1233.27734568 -333.277345679 C 1234.80645574 -331.721311977 2284.7210517 607.763625884 1783.22512064 1683.22512064" fill="none" stroke="darkcyan" stroke-opacity="0.8" stroke-width="1.5" /><path d="M 1233.27734568 -333.277345679 C 1234.80645574 -331.721311977 1204.47441121 513.254291029 1016.45761394 916.457613941" fill="none" stroke="lightsteelblue" stroke-opacity="0.77" stroke-width="1.5" /><path d="M 1233.27734568 -333.277345679 C 1234.80645574 -331.721311977 1212.99946925 514.000136964 1022.50876676 922.508766756" fill="none" stroke="lightsteelblue" stroke-opacity="0.77" stroke-width="1.5" /><path d="M 1233.27734568 -333.277345679 C 1234.80645574 -331.721311977 1221.52452729 514.745982898 1028.55991957 928.559919571" fill="none" stroke="lightsteelblue" stroke-opacity="0.77" stroke-width="1.5" /><path d="M 1236.81283951 -336.812839506 C 1238.40311397 -335.194564457 1230.04958534 515.491828833 1034.61107239 934.611072386" fill="none" stroke="lightsteelblue" stroke-opacity="0.77" stroke-width="1.5" /><path d="M 1240.34833333 -340.348333333 C 1241.9997722 -338.667816936 1238.57464338 516.237674768 1040.6622252 940.662225201" fill="none" stroke="lightsteelblue" stroke-opacity="0.77" stroke-width="1.5" /><path d="M 1243.88382716 -343.88382716 C 1245.59643043 -342.141069415 1255.62475946 517.729366637 1052.76453083 952.764530831" fill="none" stroke="lightsteelblue" stroke-opacity="0.77" stroke-width="1.5" /><path d="M 1247.41932099 -347.419320988 C 1249.19308866 -345.614321894 1264.1498175 518.475212571 1058.81568365 958.815683646" fill="none" stroke="lightsteelblue" stroke-opacity="0.77" stroke-width="1.5" /><path d="M 1250.95481481 -350.954814815 C 1252.78974689 -349.087574373 1511.37650073 540.104744675 1234.29911528 1134.29911528" fill="none" stroke="lightsteelblue" stroke-opacity="0.77" stroke-width="1.5" /><path d="M 1254.49030864 -354.490308642 C 1256.38640512 -352.560826852 2523.42267688 628.647312053 1952.65739946 1852.65739946" fill="none" stroke="darkcyan" stroke-opacity="0.8" stroke-width="1.5" /><path d="M 1258.02580247 -358.025802469 C 1259.98306335 -356.034079331 1519.90155877 540.850590609 1240.3502681 1140.3502681" fill="none" stroke="lightsteelblue" stroke-opacity="0.77" stroke-width="1.5" /><path d="M 1258.02580247 -358.025802469 C 1259.98306335 -356.034079331 1528.42661681 541.596436544 1246.40142091 1146.40142091" fill="none" stroke="lightsteelblue" stroke-opacity="0.77" stroke-width="1.5" /><path d="M 1261.5612963 -361.561296296 C 1263.57972158 -359.50733181 1536.95167485 542.342282478 1252.45257373 1152.45257373" fill="none" stroke="lightsteelblue" stroke-opacity="0.77" stroke-width="1.5" /><path d="M 1265.09679012 -365.096790123 C 1267.1763798 -362.980584289 1545.4767329 543.088128413 1258.50372654 1158.50372654" fill="none" stroke="lightsteelblue" stroke-opacity="0.77" stroke-width="1.5" /><path d="M 1268.63228395 -368.632283951 C 1270.77303803 -366.453836768 1554.00179094 543.833974348 1264.55487936 1164.55487936" fill="none" stroke="lightsteelblue" stroke-opacity="0.77" stroke-width="1.5" /><path d="M 1272.16777778 -372.167777778 C 1274.36969626 -369.927089248 1562.52684898 544.579820282 1270.60603217 1170.60603217" fill="none" stroke="lightsteelblue" stroke-opacity="0.77" stroke-width="1.5" /><path d="M 1275.7032716 -375.703271605 C 1277.96635449 -373.400341727 2692.70597229 643.457681325 2072.81600536 1972.81600536" fill="none" stroke="darkcyan" stroke-opacity="0.8" stroke-width="1.5" /><path d="M 1361.96932099 -461.969320988 C 1365.72481529 -458.147702217 1605.15213919 548.309049955 1300.86179625 1200.86179625" fill="none" stroke="lightsteelblue" stroke-opacity="0.77" stroke-width="1.5" /><path d="M 1361.96932099 -461.969320988 C 1365.72481529 -458.147702217 1613.67719723 549.05489589 1306.91294906 1206.91294906" fill="none" stroke="lightsteelblue" stroke-opacity="0.77" stroke-width="1.5" /><path d="M 1279.23876543 -379.238765432 C 1281.56301272 -376.873594206 1639.25237136 551.292433693 1325.06640751 1225.06640751" fill="none" stroke="lightsteelblue" stroke-opacity="0.77" stroke-width="1.5" /><path d="M 1279.23876543 -379.238765432 C 1281.56301272 -376.873594206 1647.7774294 552.038279628 1331.11756032 1231.11756032" fill="none" stroke="lightsteelblue" stroke-opacity="0.77" stroke-width="1.5" /><path d="M 1282.77425926 -382.774259259 C 1285.15967095 -380.346846685 2564.83010166 632.269992307 1982.04871314 1882.04871314" fill="none" stroke="darkcyan" stroke-opacity="0.8" stroke-width="1.5" /><path d="M 1282.77425926 -382.774259259 C 1285.15967095 -380.346846685 1656.30248745 552.784125563 1337.16871314 1237.16871314" fill="none" stroke="lightsteelblue" stroke-opacity="0.77" stroke-width="1.5" /><path d="M 1286.30975309 -386.309753086 C 1288.75632918 -383.820099164 1664.82754549 553.529971497 1343.21986595 1243.21986595" fill="none" stroke="lightsteelblue" stroke-opacity="0.77" stroke-width="1.5" /><path d="M 1286.30975309 -386.309753086 C 1288.75632918 -383.820099164 2313.94982213 610.320811946 1803.97193029 1703.97193029" fill="none" stroke="darkcyan" stroke-opacity="0.8" stroke-width="1.5" /><path d="M 1286.30975309 -386.309753086 C 1288.75632918 -383.820099164 1673.35260353 554.275817432 1349.27101877 1249.27101877" fill="none" stroke="lightsteelblue" stroke-opacity="0.77" stroke-width="1.5" /><path d="M 1335.0995679 -435.099567901 C 1338.39021275 -431.750983375 2585.53381405 634.081332433 1996.74436997 1896.74436997" fill="none" stroke="darkcyan" stroke-opacity="0.8" stroke-width="1.5" /><path d="M 1335.0995679 -435.099567901 C 1338.39021275 -431.750983375 1818.27859025 566.95519832 1452.14061662 1352.14061662" fill="none" stroke="lightsteelblue" stroke-opacity="0.77" stroke-width="1.5" /><path d="M 1335.0995679 -435.099567901 C 1338.39021275 -431.750983375 1826.80364829 567.701044255 1458.19176944 1358.19176944" fill="none" stroke="lightsteelblue" stroke-opacity="0.77" stroke-width="1.5" /><path d="M 1289.84524691 -389.845246914 C 1292.35298741 -387.293351643 1835.32870633 568.446890189 1464.24292225 1364.24292225" fill="none" stroke="lightsteelblue" stroke-opacity="0.77" stroke-width="1.5" /><path d="M 1293.38074074 -393.380740741 C 1295.94964564 -390.766604122 1843.85376437 569.192736124 1470.29407507 1370.29407507" fill="none" stroke="lightsteelblue" stroke-opacity="0.77" stroke-width="1.5" /><path d="M 1296.91623457 -396.916234568 C 1299.54630387 -394.239856601 2585.53381405 634.081332433 1996.74436997 1896.74436997" fill="none" stroke="darkcyan" stroke-opacity="0.8" stroke-width="1.5" /><path d="M 1346.41314815 -446.413148148 C 1349.89951908 -442.865391309 2585.53381405 634.081332433 1996.74436997 1896.74436997" fill="none" stroke="darkcyan" stroke-opacity="0.8" stroke-width="1.5" /><path d="M 1346.41314815 -446.413148148 C 1349.89951908 -442.865391309 1869.4289385 571.430273928 1488.44753351 1388.44753351" fill="none" stroke="lightsteelblue" stroke-opacity="0.77" stroke-width="1.5" /><path d="M 1346.41314815 -446.413148148 C 1349.89951908 -442.865391309 1877.95399654 572.176119862 1494.49868633 1394.49868633" fill="none" stroke="lightsteelblue" stroke-opacity="0.77" stroke-width="1.5" /><path d="M 1346.41314815 -446.413148148 C 1349.89951908 -442.865391309 1886.47905459 572.921965797 1500.54983914 1400.54983914" fill="none" stroke="lightsteelblue" stroke-opacity="0.77" stroke-width="1.5" /><path d="M 1354.19123457 -454.191234568 C 1357.81216719 -450.506546763 1929.1043448 576.65119547 1530.80560322 1430.80560322" fill="none" stroke="lightsteelblue" stroke-opacity="0.77" stroke-width="1.5" /><path d="M 1354.19123457 -454.191234568 C 1357.81216719 -450.506546763 1937.62940284 577.397041404 1536.85675603 1436.85675603" fill="none" stroke="lightsteelblue" stroke-opacity="0.77" stroke-width="1.5" /><path d="M 1354.19123457 -454.191234568 C 1357.81216719 -450.506546763 1946.15446088 578.142887339 1542.90790885 1442.90790885" fill="none" stroke="lightsteelblue" stroke-opacity="0.77" stroke-width="1.5" /><path d="M 1354.19123457 -454.191234568 C 1357.81216719 -450.506546763 1954.67951892 578.888733273 1548.95906166 1448.95906166" fill="none" stroke="lightsteelblue" stroke-opacity="0.77" stroke-width="1.5" /><path d="M 1300.4517284 -400.451728395 C 1303.1429621 -397.71310908 1963.20457697 579.634579208 1555.01021448 1455.01021448" fill="none" stroke="lightsteelblue" stroke-opacity="0.77" stroke-width="1.5" /><path d="M 1300.4517284 -400.451728395 C 1303.1429621 -397.71310908 1971.72963501 580.380425143 1561.06136729 1461.06136729" fill="none" stroke="lightsteelblue" stroke-opacity="0.77" stroke-width="1.5" /><path d="M 1329.44277778 -429.442777778 C 1332.63555958 -426.193779409 1980.25469305 581.126271077 1567.11252011 1467.11252011" fill="none" stroke="lightsteelblue" stroke-opacity="0.77" stroke-width="1.5" /><path d="M 1314.5937037 -414.593703704 C 1317.52959502 -411.606118997 1988.77975109 581.872117012 1573.16367292 1473.16367292" fill="none" stroke="lightsteelblue" stroke-opacity="0.77" stroke-width="1.5" /><path d="M 1311.05820988 -411.058209877 C 1313.93293679 -408.132866518 2827.88903553 655.28466686 2168.77 2068.77" fill="none" stroke="darkcyan" stroke-opacity="0.8" stroke-width="1.5" /><path d="M 1311.05820988 -411.058209877 C 1313.93293679 -408.132866518 1997.30480913 582.617962946 1579.21482574 1479.21482574" fill="none" stroke="lightsteelblue" stroke-opacity="0.77" stroke-width="1.5" /><path d="M 1307.52271605 -407.522716049 C 1310.33627856 -404.659614039 2357.79297778 614.156591038 1835.09214477 1735.09214477" fill="none" stroke="darkcyan" stroke-opacity="0.8" stroke-width="1.5" /><path d="M 1307.52271605 -407.522716049 C 1310.33627856 -404.659614039 2005.82986718 583.363808881 1585.26597855 1485.26597855" fill="none" stroke="lightsteelblue" stroke-opacity="0.77" stroke-width="1.5" /><path d="M 1340.75635802 -440.756358025 C 1344.14486592 -437.308187342 2014.35492522 584.109654816 1591.31713137 1491.31713137" fill="none" stroke="lightsteelblue" stroke-opacity="0.77" stroke-width="1.5" /><path d="M 1323.78598765 -423.785987654 C 1326.88090642 -420.636575442 2031.4050413 585.601346685 1603.419437 1503.419437" fill="none" stroke="lightsteelblue" stroke-opacity="0.77" stroke-width="1.5" /><path d="M 1323.78598765 -423.785987654 C 1326.88090642 -420.636575442 2039.93009935 586.347192619 1609.47058981 1509.47058981" fill="none" stroke="lightsteelblue" stroke-opacity="0.77" stroke-width="1.5" /><path d="M 1323.78598765 -423.785987654 C 1326.88090642 -420.636575442 2048.45515739 587.093038554 1615.52174263 1515.52174263" fill="none" stroke="lightsteelblue" stroke-opacity="0.77" stroke-width="1.5" /><path d="M 1323.78598765 -423.785987654 C 1326.88090642 -420.636575442 2056.98021543 587.838884489 1621.57289544 1521.57289544" fill="none" stroke="lightsteelblue" stroke-opacity="0.77" stroke-width="1.5" /><svg baseProfile="full" height="100%" version="1.1" width="100%" xmlns="http://www.w3.org/2000/svg" xmlns:ev="http://www.w3.org/2001/xml-events" xmlns:xlink="http://www.w3.org/1999/xlink"><defs /><line stroke="purple" stroke-opacity="1" stroke-width="2" x1="320.0" x2="-222.07" y1="400.0" y2="400.0" /><circle cx="250.420865672" cy="400.0" fill="yellow" fill-opacity="0.8" r="11.8965517241" stroke-width="0" /><circle cx="-51.3584029851" cy="400.0" fill="purple" fill-opacity="0.8" r="17.0689655172" stroke-width="0" /><circle cx="162.63788806" cy="400.0" fill="yellow" fill-opacity="0.8" r="12.7586206897" stroke-width="0" /><circle cx="302.200686567" cy="400.0" fill="yellow" fill-opacity="0.8" r="7.58620689655" stroke-width="0" /><circle cx="222.50830597" cy="400.0" fill="blue" fill-opacity="0.8" r="11.8965517241" stroke-width="0" /><circle cx="62.7190149254" cy="400.0" fill="yellow" fill-opacity="0.8" r="15.3448275862" stroke-width="0" /><circle cx="26.715858209" cy="400.0" fill="yellow" fill-opacity="0.8" r="15.3448275862" stroke-width="0" /><circle cx="132.702679104" cy="400.0" fill="yellow" fill-opacity="0.8" r="12.7586206897" stroke-width="0" /><circle cx="-151.68180597" cy="400.0" fill="yellow" fill-opacity="0.8" r="22.2413793103" stroke-width="0" /><circle cx="192.573097015" cy="400.0" fill="yellow" fill-opacity="0.8" r="12.7586206897" stroke-width="0" /><circle cx="98.7221716418" cy="400.0" fill="blue" fill-opacity="0.8" r="14.4827586207" stroke-width="0" /><circle cx="-11.3099477612" cy="400.0" fill="blue" fill-opacity="0.8" r="16.2068965517" stroke-width="0" /><circle cx="-99.4974552239" cy="400.0" fill="yellow" fill-opacity="0.8" r="20.5172413793" stroke-width="0" /><circle cx="278.333425373" cy="400.0" fill="green" fill-opacity="0.8" r="10.1724137931" stroke-width="0" /><circle cx="-222.07" cy="400.0" fill="yellow" fill-opacity="0.8" r="30.0" stroke-width="0" /></svg><svg baseProfile="full" height="100%" version="1.1" width="100%" xmlns="http://www.w3.org/2000/svg" xmlns:ev="http://www.w3.org/2001/xml-events" xmlns:xlink="http://www.w3.org/1999/xlink"><defs /><line stroke="green" stroke-opacity="1" stroke-width="2" x1="556.57" x2="693.75" y1="343.43" y2="206.25" /><circle cx="588.390103093" cy="311.609896907" fill="green" fill-opacity="0.87" r="2.5" stroke-width="0" /><circle cx="591.925670103" cy="308.074329897" fill="green" fill-opacity="0.87" r="2.5" stroke-width="0" /><circle cx="595.461237113" cy="304.538762887" fill="green" fill-opacity="0.87" r="2.5" stroke-width="0" /><circle cx="598.996804124" cy="301.003195876" fill="green" fill-opacity="0.87" r="2.5" stroke-width="0" /><circle cx="602.532371134" cy="297.467628866" fill="green" fill-opacity="0.87" r="2.5" stroke-width="0" /><circle cx="606.067938144" cy="293.932061856" fill="green" fill-opacity="0.87" r="2.5" stroke-width="0" /><circle cx="609.603505155" cy="290.396494845" fill="green" fill-opacity="0.87" r="2.5" stroke-width="0" /><circle cx="685.971752577" cy="214.028247423" fill="green" fill-opacity="0.87" r="4.0" stroke-width="0" /><circle cx="613.139072165" cy="286.860927835" fill="green" fill-opacity="0.87" r="2.5" stroke-width="0" /><circle cx="616.674639175" cy="283.325360825" fill="green" fill-opacity="0.87" r="2.5" stroke-width="0" /><circle cx="620.210206186" cy="279.789793814" fill="green" fill-opacity="0.87" r="2.5" stroke-width="0" /><circle cx="623.745773196" cy="276.254226804" fill="green" fill-opacity="0.87" r="2.5" stroke-width="0" /><circle cx="627.281340206" cy="272.718659794" fill="green" fill-opacity="0.87" r="2.5" stroke-width="0" /><circle cx="630.816907216" cy="269.183092784" fill="green" fill-opacity="0.87" r="2.5" stroke-width="0" /><circle cx="634.352474227" cy="265.647525773" fill="green" fill-opacity="0.87" r="2.5" stroke-width="0" /><circle cx="637.888041237" cy="262.111958763" fill="green" fill-opacity="0.87" r="2.5" stroke-width="0" /><circle cx="641.423608247" cy="258.576391753" fill="green" fill-opacity="0.87" r="2.5" stroke-width="0" /><circle cx="644.959175258" cy="255.040824742" fill="green" fill-opacity="0.87" r="2.5" stroke-width="0" /><circle cx="648.494742268" cy="251.505257732" fill="green" fill-opacity="0.87" r="2.5" stroke-width="0" /><circle cx="652.030309278" cy="247.969690722" fill="green" fill-opacity="0.87" r="2.5" stroke-width="0" /><circle cx="655.565876289" cy="244.434123711" fill="green" fill-opacity="0.87" r="2.5" stroke-width="0" /><circle cx="659.101443299" cy="240.898556701" fill="green" fill-opacity="0.87" r="2.5" stroke-width="0" /><circle cx="560.10556701" cy="339.89443299" fill="green" fill-opacity="0.87" r="2.5" stroke-width="0" /><circle cx="563.641134021" cy="336.358865979" fill="green" fill-opacity="0.87" r="2.5" stroke-width="0" /><circle cx="567.176701031" cy="332.823298969" fill="green" fill-opacity="0.87" r="2.5" stroke-width="0" /><circle cx="662.637010309" cy="237.362989691" fill="green" fill-opacity="0.87" r="2.5" stroke-width="0" /><circle cx="693.75" cy="206.25" fill="green" fill-opacity="0.87" r="5.5" stroke-width="0" /><circle cx="570.712268041" cy="329.287731959" fill="green" fill-opacity="0.87" r="2.5" stroke-width="0" /><circle cx="574.247835052" cy="325.752164948" fill="green" fill-opacity="0.87" r="2.5" stroke-width="0" /><circle cx="577.783402062" cy="322.216597938" fill="green" fill-opacity="0.87" r="2.5" stroke-width="0" /><circle cx="666.17257732" cy="233.82742268" fill="green" fill-opacity="0.87" r="2.5" stroke-width="0" /><circle cx="669.70814433" cy="230.29185567" fill="green" fill-opacity="0.87" r="2.5" stroke-width="0" /><circle cx="673.24371134" cy="226.75628866" fill="green" fill-opacity="0.87" r="2.5" stroke-width="0" /><circle cx="676.779278351" cy="223.220721649" fill="green" fill-opacity="0.87" r="2.5" stroke-width="0" /><circle cx="680.314845361" cy="219.685154639" fill="green" fill-opacity="0.87" r="2.5" stroke-width="0" /><circle cx="581.318969072" cy="318.681030928" fill="green" fill-opacity="0.87" r="2.5" stroke-width="0" /><circle cx="584.854536082" cy="315.145463918" fill="green" fill-opacity="0.87" r="2.5" stroke-width="0" /></svg><svg baseProfile="full" height="100%" version="1.1" width="100%" xmlns="http://www.w3.org/2000/svg" xmlns:ev="http://www.w3.org/2001/xml-events" xmlns:xlink="http://www.w3.org/1999/xlink"><defs /><line stroke="blue" stroke-opacity="1" stroke-width="2" x1="736.18" x2="891.74" y1="163.82" y2="8.26" /><circle cx="862.042181818" cy="37.9578181818" fill="blue" fill-opacity="0.87" r="4.0" stroke-width="0" /><circle cx="757.392727273" cy="142.607272727" fill="blue" fill-opacity="0.87" r="2.5" stroke-width="0" /><circle cx="760.928181818" cy="139.071818182" fill="blue" fill-opacity="0.87" r="2.5" stroke-width="0" /><circle cx="764.463636364" cy="135.536363636" fill="blue" fill-opacity="0.87" r="2.5" stroke-width="0" /><circle cx="767.999090909" cy="132.000909091" fill="blue" fill-opacity="0.87" r="2.5" stroke-width="0" /><circle cx="771.534545455" cy="128.465454545" fill="blue" fill-opacity="0.87" r="2.5" stroke-width="0" /><circle cx="867.698909091" cy="32.3010909091" fill="blue" fill-opacity="0.87" r="4.0" stroke-width="0" /><circle cx="775.07" cy="124.93" fill="blue" fill-opacity="0.87" r="2.5" stroke-width="0" /><circle cx="778.605454545" cy="121.394545455" fill="blue" fill-opacity="0.87" r="2.5" stroke-width="0" /><circle cx="782.140909091" cy="117.859090909" fill="blue" fill-opacity="0.87" r="2.5" stroke-width="0" /><circle cx="785.676363636" cy="114.323636364" fill="blue" fill-opacity="0.87" r="2.5" stroke-width="0" /><circle cx="789.211818182" cy="110.788181818" fill="blue" fill-opacity="0.87" r="2.5" stroke-width="0" /><circle cx="792.747272727" cy="107.252727273" fill="blue" fill-opacity="0.87" r="2.5" stroke-width="0" /><circle cx="796.282727273" cy="103.717272727" fill="blue" fill-opacity="0.87" r="2.5" stroke-width="0" /><circle cx="799.818181818" cy="100.181818182" fill="blue" fill-opacity="0.87" r="2.5" stroke-width="0" /><circle cx="803.353636364" cy="96.6463636364" fill="blue" fill-opacity="0.87" r="2.5" stroke-width="0" /><circle cx="838.708181818" cy="61.2918181818" fill="blue" fill-opacity="0.87" r="2.5" stroke-width="0" /><circle cx="891.74" cy="8.26" fill="blue" fill-opacity="0.87" r="10.0" stroke-width="0" /><circle cx="877.598181818" cy="22.4018181818" fill="blue" fill-opacity="0.87" r="7.0" stroke-width="0" /><circle cx="739.715454545" cy="160.284545455" fill="blue" fill-opacity="0.87" r="2.5" stroke-width="0" /><circle cx="743.250909091" cy="156.749090909" fill="blue" fill-opacity="0.87" r="2.5" stroke-width="0" /><circle cx="806.889090909" cy="93.1109090909" fill="blue" fill-opacity="0.87" r="2.5" stroke-width="0" /><circle cx="746.786363636" cy="153.213636364" fill="blue" fill-opacity="0.87" r="2.5" stroke-width="0" /><circle cx="810.424545455" cy="89.5754545455" fill="blue" fill-opacity="0.87" r="2.5" stroke-width="0" /><circle cx="813.96" cy="86.04" fill="blue" fill-opacity="0.87" r="2.5" stroke-width="0" /><circle cx="817.495454545" cy="82.5045454545" fill="blue" fill-opacity="0.87" r="2.5" stroke-width="0" /><circle cx="821.030909091" cy="78.9690909091" fill="blue" fill-opacity="0.87" r="2.5" stroke-width="0" /><circle cx="824.566363636" cy="75.4336363636" fill="blue" fill-opacity="0.87" r="2.5" stroke-width="0" /><circle cx="828.101818182" cy="71.8981818182" fill="blue" fill-opacity="0.87" r="2.5" stroke-width="0" /><circle cx="831.637272727" cy="68.3627272727" fill="blue" fill-opacity="0.87" r="2.5" stroke-width="0" /><circle cx="835.172727273" cy="64.8272727273" fill="blue" fill-opacity="0.87" r="2.5" stroke-width="0" /><circle cx="750.321818182" cy="149.678181818" fill="blue" fill-opacity="0.87" r="2.5" stroke-width="0" /><circle cx="842.243636364" cy="57.7563636364" fill="blue" fill-opacity="0.87" r="2.5" stroke-width="0" /><circle cx="845.779090909" cy="54.2209090909" fill="blue" fill-opacity="0.87" r="2.5" stroke-width="0" /><circle cx="849.314545455" cy="50.6854545455" fill="blue" fill-opacity="0.87" r="2.5" stroke-width="0" /><circle cx="852.85" cy="47.15" fill="blue" fill-opacity="0.87" r="2.5" stroke-width="0" /><circle cx="856.385454545" cy="43.6145454545" fill="blue" fill-opacity="0.87" r="2.5" stroke-width="0" /><circle cx="753.857272727" cy="146.142727273" fill="blue" fill-opacity="0.87" r="2.5" stroke-width="0" /></svg><svg baseProfile="full" height="100%" version="1.1" width="100%" xmlns="http://www.w3.org/2000/svg" xmlns:ev="http://www.w3.org/2001/xml-events" xmlns:xlink="http://www.w3.org/1999/xlink"><defs /><line stroke="purple" stroke-opacity="1" stroke-width="2" x1="934.17" x2="937.71" y1="-34.17" y2="-37.71" /><circle cx="937.71" cy="-37.71" fill="purple" fill-opacity="0.87" r="2.5" stroke-width="0" /></svg><svg baseProfile="full" height="100%" version="1.1" width="100%" xmlns="http://www.w3.org/2000/svg" xmlns:ev="http://www.w3.org/2001/xml-events" xmlns:xlink="http://www.w3.org/1999/xlink"><defs /><line stroke="purple" stroke-opacity="1" stroke-width="2" x1="980.13" x2="1102.46" y1="-80.13" y2="-202.46" /><circle cx="1040.23433526" cy="-140.23433526" fill="purple" fill-opacity="0.87" r="2.5" stroke-width="0" /><circle cx="1043.76988439" cy="-143.769884393" fill="purple" fill-opacity="0.87" r="2.5" stroke-width="0" /><circle cx="1047.30543353" cy="-147.305433526" fill="purple" fill-opacity="0.87" r="2.5" stroke-width="0" /><circle cx="1050.84098266" cy="-150.840982659" fill="purple" fill-opacity="0.87" r="2.5" stroke-width="0" /><circle cx="1054.37653179" cy="-154.376531792" fill="purple" fill-opacity="0.87" r="2.5" stroke-width="0" /><circle cx="1057.91208092" cy="-157.912080925" fill="purple" fill-opacity="0.87" r="2.5" stroke-width="0" /><circle cx="1061.44763006" cy="-161.447630058" fill="purple" fill-opacity="0.87" r="2.5" stroke-width="0" /><circle cx="1064.98317919" cy="-164.983179191" fill="purple" fill-opacity="0.87" r="2.5" stroke-width="0" /><circle cx="1068.51872832" cy="-168.518728324" fill="purple" fill-opacity="0.87" r="2.5" stroke-width="0" /><circle cx="1072.05427746" cy="-172.054277457" fill="purple" fill-opacity="0.87" r="2.5" stroke-width="0" /><circle cx="1075.58982659" cy="-175.58982659" fill="purple" fill-opacity="0.87" r="2.5" stroke-width="0" /><circle cx="1079.12537572" cy="-179.125375723" fill="purple" fill-opacity="0.87" r="2.5" stroke-width="0" /><circle cx="1082.66092486" cy="-182.660924855" fill="purple" fill-opacity="0.87" r="2.5" stroke-width="0" /><circle cx="983.665549133" cy="-83.6655491329" fill="purple" fill-opacity="0.87" r="2.5" stroke-width="0" /><circle cx="1102.46" cy="-202.46" fill="purple" fill-opacity="0.87" r="4.0" stroke-width="0" /><circle cx="987.201098266" cy="-87.2010982659" fill="purple" fill-opacity="0.87" r="2.5" stroke-width="0" /><circle cx="990.736647399" cy="-90.7366473988" fill="purple" fill-opacity="0.87" r="2.5" stroke-width="0" /><circle cx="994.272196532" cy="-94.2721965318" fill="purple" fill-opacity="0.87" r="2.5" stroke-width="0" /><circle cx="997.807745665" cy="-97.8077456647" fill="purple" fill-opacity="0.87" r="2.5" stroke-width="0" /><circle cx="1001.3432948" cy="-101.343294798" fill="purple" fill-opacity="0.87" r="2.5" stroke-width="0" /><circle cx="1004.87884393" cy="-104.878843931" fill="purple" fill-opacity="0.87" r="2.5" stroke-width="0" /><circle cx="1008.41439306" cy="-108.414393064" fill="purple" fill-opacity="0.87" r="2.5" stroke-width="0" /><circle cx="1011.9499422" cy="-111.949942197" fill="purple" fill-opacity="0.87" r="2.5" stroke-width="0" /><circle cx="1086.19647399" cy="-186.196473988" fill="purple" fill-opacity="0.87" r="2.5" stroke-width="0" /><circle cx="1089.73202312" cy="-189.732023121" fill="purple" fill-opacity="0.87" r="2.5" stroke-width="0" /><circle cx="1093.26757225" cy="-193.267572254" fill="purple" fill-opacity="0.87" r="2.5" stroke-width="0" /><circle cx="1096.80312139" cy="-196.803121387" fill="purple" fill-opacity="0.87" r="2.5" stroke-width="0" /><circle cx="1015.48549133" cy="-115.485491329" fill="purple" fill-opacity="0.87" r="2.5" stroke-width="0" /><circle cx="1019.02104046" cy="-119.021040462" fill="purple" fill-opacity="0.87" r="2.5" stroke-width="0" /><circle cx="1022.5565896" cy="-122.556589595" fill="purple" fill-opacity="0.87" r="2.5" stroke-width="0" /><circle cx="1026.09213873" cy="-126.092138728" fill="purple" fill-opacity="0.87" r="2.5" stroke-width="0" /><circle cx="1029.62768786" cy="-129.627687861" fill="purple" fill-opacity="0.87" r="2.5" stroke-width="0" /><circle cx="1033.16323699" cy="-133.163236994" fill="purple" fill-opacity="0.87" r="2.5" stroke-width="0" /><circle cx="1036.69878613" cy="-136.698786127" fill="purple" fill-opacity="0.87" r="2.5" stroke-width="0" /></svg><svg baseProfile="full" height="100%" version="1.1" width="100%" xmlns="http://www.w3.org/2000/svg" xmlns:ev="http://www.w3.org/2001/xml-events" xmlns:xlink="http://www.w3.org/1999/xlink"><defs /><line stroke="yellow" stroke-opacity="1" stroke-width="2" x1="1144.89" x2="1373.99" y1="-244.89" y2="-473.99" /><circle cx="1323.78598765" cy="-423.785987654" fill="yellow" fill-opacity="0.87" r="4.0" stroke-width="0" /><circle cx="1303.98722222" cy="-403.987222222" fill="yellow" fill-opacity="0.87" r="2.5" stroke-width="0" /><circle cx="1222.6708642" cy="-322.670864198" fill="yellow" fill-opacity="0.87" r="2.5" stroke-width="0" /><circle cx="1335.0995679" cy="-435.099567901" fill="yellow" fill-opacity="0.87" r="4.0" stroke-width="0" /><circle cx="1226.20635802" cy="-326.206358025" fill="yellow" fill-opacity="0.87" r="2.5" stroke-width="0" /><circle cx="1340.75635802" cy="-440.756358025" fill="yellow" fill-opacity="0.87" r="4.0" stroke-width="0" /><circle cx="1229.74185185" cy="-329.741851852" fill="yellow" fill-opacity="0.87" r="2.5" stroke-width="0" /><circle cx="1233.27734568" cy="-333.277345679" fill="yellow" fill-opacity="0.87" r="2.5" stroke-width="0" /><circle cx="1236.81283951" cy="-336.812839506" fill="yellow" fill-opacity="0.87" r="2.5" stroke-width="0" /><circle cx="1240.34833333" cy="-340.348333333" fill="yellow" fill-opacity="0.87" r="2.5" stroke-width="0" /><circle cx="1243.88382716" cy="-343.88382716" fill="yellow" fill-opacity="0.87" r="2.5" stroke-width="0" /><circle cx="1247.41932099" cy="-347.419320988" fill="yellow" fill-opacity="0.87" r="2.5" stroke-width="0" /><circle cx="1296.91623457" cy="-396.916234568" fill="yellow" fill-opacity="0.87" r="2.5" stroke-width="0" /><circle cx="1373.99" cy="-473.99" fill="yellow" fill-opacity="0.87" r="8.5" stroke-width="0" /><circle cx="1354.19123457" cy="-454.191234568" fill="yellow" fill-opacity="0.87" r="5.5" stroke-width="0" /><circle cx="1329.44277778" cy="-429.442777778" fill="yellow" fill-opacity="0.87" r="4.0" stroke-width="0" /><circle cx="1148.42549383" cy="-248.425493827" fill="yellow" fill-opacity="0.87" r="2.5" stroke-width="0" /><circle cx="1250.95481481" cy="-350.954814815" fill="yellow" fill-opacity="0.87" r="2.5" stroke-width="0" /><circle cx="1254.49030864" cy="-354.490308642" fill="yellow" fill-opacity="0.87" r="2.5" stroke-width="0" /><circle cx="1258.02580247" cy="-358.025802469" fill="yellow" fill-opacity="0.87" r="2.5" stroke-width="0" /><circle cx="1261.5612963" cy="-361.561296296" fill="yellow" fill-opacity="0.87" r="2.5" stroke-width="0" /><circle cx="1265.09679012" cy="-365.096790123" fill="yellow" fill-opacity="0.87" r="2.5" stroke-width="0" /><circle cx="1268.63228395" cy="-368.632283951" fill="yellow" fill-opacity="0.87" r="2.5" stroke-width="0" /><circle cx="1151.96098765" cy="-251.960987654" fill="yellow" fill-opacity="0.87" r="2.5" stroke-width="0" /><circle cx="1275.7032716" cy="-375.703271605" fill="yellow" fill-opacity="0.87" r="2.5" stroke-width="0" /><circle cx="1361.96932099" cy="-461.969320988" fill="yellow" fill-opacity="0.87" r="5.5" stroke-width="0" /><circle cx="1279.23876543" cy="-379.238765432" fill="yellow" fill-opacity="0.87" r="2.5" stroke-width="0" /><circle cx="1282.77425926" cy="-382.774259259" fill="yellow" fill-opacity="0.87" r="2.5" stroke-width="0" /><circle cx="1286.30975309" cy="-386.309753086" fill="yellow" fill-opacity="0.87" r="2.5" stroke-width="0" /><circle cx="1155.49648148" cy="-255.496481481" fill="yellow" fill-opacity="0.87" r="2.5" stroke-width="0" /><circle cx="1159.03197531" cy="-259.031975309" fill="yellow" fill-opacity="0.87" r="2.5" stroke-width="0" /><circle cx="1162.56746914" cy="-262.567469136" fill="yellow" fill-opacity="0.87" r="2.5" stroke-width="0" /><circle cx="1166.10296296" cy="-266.102962963" fill="yellow" fill-opacity="0.87" r="2.5" stroke-width="0" /><circle cx="1169.63845679" cy="-269.63845679" fill="yellow" fill-opacity="0.87" r="2.5" stroke-width="0" /><circle cx="1289.84524691" cy="-389.845246914" fill="yellow" fill-opacity="0.87" r="2.5" stroke-width="0" /><circle cx="1293.38074074" cy="-393.380740741" fill="yellow" fill-opacity="0.87" r="2.5" stroke-width="0" /><circle cx="1311.05820988" cy="-411.058209877" fill="yellow" fill-opacity="0.87" r="2.5" stroke-width="0" /><circle cx="1346.41314815" cy="-446.413148148" fill="yellow" fill-opacity="0.87" r="4.0" stroke-width="0" /><circle cx="1173.17395062" cy="-273.173950617" fill="yellow" fill-opacity="0.87" r="2.5" stroke-width="0" /><circle cx="1176.70944444" cy="-276.709444444" fill="yellow" fill-opacity="0.87" r="2.5" stroke-width="0" /><circle cx="1180.24493827" cy="-280.244938272" fill="yellow" fill-opacity="0.87" r="2.5" stroke-width="0" /><circle cx="1183.7804321" cy="-283.780432099" fill="yellow" fill-opacity="0.87" r="2.5" stroke-width="0" /><circle cx="1187.31592593" cy="-287.315925926" fill="yellow" fill-opacity="0.87" r="2.5" stroke-width="0" /><circle cx="1190.85141975" cy="-290.851419753" fill="yellow" fill-opacity="0.87" r="2.5" stroke-width="0" /><circle cx="1194.38691358" cy="-294.38691358" fill="yellow" fill-opacity="0.87" r="2.5" stroke-width="0" /><circle cx="1197.92240741" cy="-297.922407407" fill="yellow" fill-opacity="0.87" r="2.5" stroke-width="0" /><circle cx="1201.45790123" cy="-301.457901235" fill="yellow" fill-opacity="0.87" r="2.5" stroke-width="0" /><circle cx="1300.4517284" cy="-400.451728395" fill="yellow" fill-opacity="0.87" r="2.5" stroke-width="0" /><circle cx="1204.99339506" cy="-304.993395062" fill="yellow" fill-opacity="0.87" r="2.5" stroke-width="0" /><circle cx="1208.52888889" cy="-308.528888889" fill="yellow" fill-opacity="0.87" r="2.5" stroke-width="0" /><circle cx="1212.06438272" cy="-312.064382716" fill="yellow" fill-opacity="0.87" r="2.5" stroke-width="0" /><circle cx="1307.52271605" cy="-407.522716049" fill="yellow" fill-opacity="0.87" r="2.5" stroke-width="0" /><circle cx="1318.12919753" cy="-418.129197531" fill="yellow" fill-opacity="0.87" r="2.5" stroke-width="0" /><circle cx="1215.59987654" cy="-315.599876543" fill="yellow" fill-opacity="0.87" r="2.5" stroke-width="0" /><circle cx="1219.13537037" cy="-319.13537037" fill="yellow" fill-opacity="0.87" r="2.5" stroke-width="0" /><circle cx="1314.5937037" cy="-414.593703704" fill="yellow" fill-opacity="0.87" r="2.5" stroke-width="0" /><circle cx="1272.16777778" cy="-372.167777778" fill="yellow" fill-opacity="0.87" r="2.5" stroke-width="0" /></svg><svg baseProfile="full" height="100%" version="1.1" width="100%" xmlns="http://www.w3.org/2000/svg" xmlns:ev="http://www.w3.org/2001/xml-events" xmlns:xlink="http://www.w3.org/1999/xlink"><defs /><line stroke="firebrick" stroke-opacity="1" stroke-width="2" x1="556.57" x2="2168.77" y1="456.57" y2="2068.77" /><rect fill="maroon" fill-opacity="0.6" height="12.1428571429" stroke-width="0.5" width="12.1428571429" x="1843.71637304" y="1743.71637304" /><rect fill="maroon" fill-opacity="0.6" height="12.1428571429" stroke-width="0.5" width="12.1428571429" x="1858.41202987" y="1758.41202987" /><rect fill="maroon" fill-opacity="0.6" height="15.7142857143" stroke-width="0.5" width="15.7142857143" x="2007.90513596" y="1907.90513596" /><rect fill="maroon" fill-opacity="0.6" height="5.0" stroke-width="0.5" width="5.0" x="560.121152815" y="460.121152815" /><rect fill="maroon" fill-opacity="0.6" height="5.0" stroke-width="0.5" width="5.0" x="566.17230563" y="466.17230563" /><rect fill="maroon" fill-opacity="0.6" height="5.0" stroke-width="0.5" width="5.0" x="572.223458445" y="472.223458445" /><rect fill="maroon" fill-opacity="0.6" height="5.0" stroke-width="0.5" width="5.0" x="578.27461126" y="478.27461126" /><rect fill="maroon" fill-opacity="0.6" height="5.0" stroke-width="0.5" width="5.0" x="584.325764075" y="484.325764075" /><rect fill="maroon" fill-opacity="0.6" height="5.0" stroke-width="0.5" width="5.0" x="590.37691689" y="490.37691689" /><rect fill="maroon" fill-opacity="0.6" height="5.0" stroke-width="0.5" width="5.0" x="596.428069705" y="496.428069705" /><rect fill="maroon" fill-opacity="0.6" height="5.0" stroke-width="0.5" width="5.0" x="602.47922252" y="502.47922252" /><rect fill="maroon" fill-opacity="0.6" height="15.7142857143" stroke-width="0.5" width="15.7142857143" x="2026.92304481" y="1926.92304481" /><rect fill="maroon" fill-opacity="0.6" height="8.57142857143" stroke-width="0.5" width="8.57142857143" x="1706.32557258" y="1606.32557258" /><rect fill="maroon" fill-opacity="0.6" height="8.57142857143" stroke-width="0.5" width="8.57142857143" x="1716.6989774" y="1616.6989774" /><rect fill="maroon" fill-opacity="0.6" height="5.0" stroke-width="0.5" width="5.0" x="608.530375335" y="508.530375335" /><rect fill="maroon" fill-opacity="0.6" height="5.0" stroke-width="0.5" width="5.0" x="614.58152815" y="514.58152815" /><rect fill="maroon" fill-opacity="0.6" height="5.0" stroke-width="0.5" width="5.0" x="620.632680965" y="520.632680965" /><rect fill="maroon" fill-opacity="0.6" height="5.0" stroke-width="0.5" width="5.0" x="626.68383378" y="526.68383378" /><rect fill="maroon" fill-opacity="0.6" height="5.0" stroke-width="0.5" width="5.0" x="632.734986595" y="532.734986595" /><rect fill="maroon" fill-opacity="0.6" height="5.0" stroke-width="0.5" width="5.0" x="638.78613941" y="538.78613941" /><rect fill="maroon" fill-opacity="0.6" height="8.57142857143" stroke-width="0.5" width="8.57142857143" x="1727.07238223" y="1627.07238223" /><rect fill="maroon" fill-opacity="0.6" height="5.0" stroke-width="0.5" width="5.0" x="644.837292225" y="544.837292225" /><rect fill="maroon" fill-opacity="0.6" height="5.0" stroke-width="0.5" width="5.0" x="650.88844504" y="550.88844504" /><rect fill="maroon" fill-opacity="0.6" height="5.0" stroke-width="0.5" width="5.0" x="656.939597855" y="556.939597855" /><rect fill="maroon" fill-opacity="0.6" height="5.0" stroke-width="0.5" width="5.0" x="662.99075067" y="562.99075067" /><rect fill="maroon" fill-opacity="0.6" height="5.0" stroke-width="0.5" width="5.0" x="669.041903485" y="569.041903485" /><rect fill="maroon" fill-opacity="0.6" height="5.0" stroke-width="0.5" width="5.0" x="675.0930563" y="575.0930563" /><rect fill="maroon" fill-opacity="0.6" height="5.0" stroke-width="0.5" width="5.0" x="681.144209115" y="581.144209115" /><rect fill="maroon" fill-opacity="0.6" height="5.0" stroke-width="0.5" width="5.0" x="687.19536193" y="587.19536193" /><rect fill="maroon" fill-opacity="0.6" height="5.0" stroke-width="0.5" width="5.0" x="693.246514745" y="593.246514745" /><rect fill="maroon" fill-opacity="0.6" height="5.0" stroke-width="0.5" width="5.0" x="699.29766756" y="599.29766756" /><rect fill="maroon" fill-opacity="0.6" height="5.0" stroke-width="0.5" width="5.0" x="705.348820375" y="605.348820375" /><rect fill="maroon" fill-opacity="0.6" height="5.0" stroke-width="0.5" width="5.0" x="711.39997319" y="611.39997319" /><rect fill="maroon" fill-opacity="0.6" height="5.0" stroke-width="0.5" width="5.0" x="717.451126005" y="617.451126005" /><rect fill="maroon" fill-opacity="0.6" height="5.0" stroke-width="0.5" width="5.0" x="723.50227882" y="623.50227882" /><rect fill="maroon" fill-opacity="0.6" height="30.0" stroke-width="0.5" width="30.0" x="2153.77" y="2053.77" /><rect fill="maroon" fill-opacity="0.6" height="8.57142857143" stroke-width="0.5" width="8.57142857143" x="1737.44578705" y="1637.44578705" /><rect fill="maroon" fill-opacity="0.6" height="5.0" stroke-width="0.5" width="5.0" x="729.553431635" y="629.553431635" /><rect fill="maroon" fill-opacity="0.6" height="5.0" stroke-width="0.5" width="5.0" x="735.60458445" y="635.60458445" /><rect fill="maroon" fill-opacity="0.6" height="8.57142857143" stroke-width="0.5" width="8.57142857143" x="1747.81919188" y="1647.81919188" /><rect fill="maroon" fill-opacity="0.6" height="5.0" stroke-width="0.5" width="5.0" x="741.655737265" y="641.655737265" /><rect fill="maroon" fill-opacity="0.6" height="5.0" stroke-width="0.5" width="5.0" x="747.70689008" y="647.70689008" /><rect fill="maroon" fill-opacity="0.6" height="5.0" stroke-width="0.5" width="5.0" x="753.758042895" y="653.758042895" /><rect fill="maroon" fill-opacity="0.6" height="5.0" stroke-width="0.5" width="5.0" x="759.80919571" y="659.80919571" /><rect fill="maroon" fill-opacity="0.6" height="5.0" stroke-width="0.5" width="5.0" x="765.860348525" y="665.860348525" /><rect fill="maroon" fill-opacity="0.6" height="5.0" stroke-width="0.5" width="5.0" x="771.91150134" y="671.91150134" /><rect fill="maroon" fill-opacity="0.6" height="5.0" stroke-width="0.5" width="5.0" x="777.962654155" y="677.962654155" /><rect fill="maroon" fill-opacity="0.6" height="5.0" stroke-width="0.5" width="5.0" x="784.013806971" y="684.013806971" /><rect fill="maroon" fill-opacity="0.6" height="26.4285714286" stroke-width="0.5" width="26.4285714286" x="2119.2487974" y="2019.2487974" /><rect fill="maroon" fill-opacity="0.6" height="5.0" stroke-width="0.5" width="5.0" x="790.064959786" y="690.064959786" /><rect fill="maroon" fill-opacity="0.6" height="8.57142857143" stroke-width="0.5" width="8.57142857143" x="1758.19259671" y="1658.19259671" /><rect fill="maroon" fill-opacity="0.6" height="5.0" stroke-width="0.5" width="5.0" x="796.116112601" y="696.116112601" /><rect fill="maroon" fill-opacity="0.6" height="5.0" stroke-width="0.5" width="5.0" x="802.167265416" y="702.167265416" /><rect fill="maroon" fill-opacity="0.6" height="22.8571428571" stroke-width="0.5" width="22.8571428571" x="2089.0498468" y="1989.0498468" /><rect fill="maroon" fill-opacity="0.6" height="12.1428571429" stroke-width="0.5" width="12.1428571429" x="1873.10768671" y="1773.10768671" /><rect fill="maroon" fill-opacity="0.6" height="5.0" stroke-width="0.5" width="5.0" x="808.218418231" y="708.218418231" /><rect fill="maroon" fill-opacity="0.6" height="5.0" stroke-width="0.5" width="5.0" x="814.269571046" y="714.269571046" /><rect fill="maroon" fill-opacity="0.6" height="5.0" stroke-width="0.5" width="5.0" x="820.320723861" y="720.320723861" /><rect fill="maroon" fill-opacity="0.6" height="5.0" stroke-width="0.5" width="5.0" x="826.371876676" y="726.371876676" /><rect fill="maroon" fill-opacity="0.6" height="5.0" stroke-width="0.5" width="5.0" x="832.423029491" y="732.423029491" /><rect fill="maroon" fill-opacity="0.6" height="5.0" stroke-width="0.5" width="5.0" x="838.474182306" y="738.474182306" /><rect fill="maroon" fill-opacity="0.6" height="5.0" stroke-width="0.5" width="5.0" x="844.525335121" y="744.525335121" /><rect fill="maroon" fill-opacity="0.6" height="5.0" stroke-width="0.5" width="5.0" x="850.576487936" y="750.576487936" /><rect fill="maroon" fill-opacity="0.6" height="5.0" stroke-width="0.5" width="5.0" x="856.627640751" y="756.627640751" /><rect fill="maroon" fill-opacity="0.6" height="5.0" stroke-width="0.5" width="5.0" x="862.678793566" y="762.678793566" /><rect fill="maroon" fill-opacity="0.6" height="5.0" stroke-width="0.5" width="5.0" x="868.729946381" y="768.729946381" /><rect fill="maroon" fill-opacity="0.6" height="5.0" stroke-width="0.5" width="5.0" x="874.781099196" y="774.781099196" /><rect fill="maroon" fill-opacity="0.6" height="5.0" stroke-width="0.5" width="5.0" x="880.832252011" y="780.832252011" /><rect fill="maroon" fill-opacity="0.6" height="12.1428571429" stroke-width="0.5" width="12.1428571429" x="1887.80334355" y="1787.80334355" /><rect fill="maroon" fill-opacity="0.6" height="5.0" stroke-width="0.5" width="5.0" x="886.883404826" y="786.883404826" /><rect fill="maroon" fill-opacity="0.6" height="12.1428571429" stroke-width="0.5" width="12.1428571429" x="1902.49900038" y="1802.49900038" /><rect fill="maroon" fill-opacity="0.6" height="8.57142857143" stroke-width="0.5" width="8.57142857143" x="1768.56600153" y="1668.56600153" /><rect fill="maroon" fill-opacity="0.6" height="5.0" stroke-width="0.5" width="5.0" x="892.934557641" y="792.934557641" /><rect fill="maroon" fill-opacity="0.6" height="5.0" stroke-width="0.5" width="5.0" x="898.985710456" y="798.985710456" /><rect fill="maroon" fill-opacity="0.6" height="5.0" stroke-width="0.5" width="5.0" x="905.036863271" y="805.036863271" /><rect fill="maroon" fill-opacity="0.6" height="5.0" stroke-width="0.5" width="5.0" x="911.088016086" y="811.088016086" /><rect fill="maroon" fill-opacity="0.6" height="5.0" stroke-width="0.5" width="5.0" x="917.139168901" y="817.139168901" /><rect fill="maroon" fill-opacity="0.6" height="12.1428571429" stroke-width="0.5" width="12.1428571429" x="1917.19465722" y="1817.19465722" /><rect fill="maroon" fill-opacity="0.6" height="5.0" stroke-width="0.5" width="5.0" x="923.190321716" y="823.190321716" /><rect fill="maroon" fill-opacity="0.6" height="5.0" stroke-width="0.5" width="5.0" x="929.241474531" y="829.241474531" /><rect fill="maroon" fill-opacity="0.6" height="5.0" stroke-width="0.5" width="5.0" x="935.292627346" y="835.292627346" /><rect fill="maroon" fill-opacity="0.6" height="5.0" stroke-width="0.5" width="5.0" x="941.343780161" y="841.343780161" /><rect fill="maroon" fill-opacity="0.6" height="5.0" stroke-width="0.5" width="5.0" x="947.394932976" y="847.394932976" /><rect fill="maroon" fill-opacity="0.6" height="5.0" stroke-width="0.5" width="5.0" x="953.446085791" y="853.446085791" /><rect fill="maroon" fill-opacity="0.6" height="5.0" stroke-width="0.5" width="5.0" x="959.497238606" y="859.497238606" /><rect fill="maroon" fill-opacity="0.6" height="5.0" stroke-width="0.5" width="5.0" x="965.548391421" y="865.548391421" /><rect fill="maroon" fill-opacity="0.6" height="5.0" stroke-width="0.5" width="5.0" x="971.599544236" y="871.599544236" /><rect fill="maroon" fill-opacity="0.6" height="5.0" stroke-width="0.5" width="5.0" x="977.650697051" y="877.650697051" /><rect fill="maroon" fill-opacity="0.6" height="5.0" stroke-width="0.5" width="5.0" x="983.701849866" y="883.701849866" /><rect fill="maroon" fill-opacity="0.6" height="5.0" stroke-width="0.5" width="5.0" x="989.753002681" y="889.753002681" /><rect fill="maroon" fill-opacity="0.6" height="5.0" stroke-width="0.5" width="5.0" x="995.804155496" y="895.804155496" /><rect fill="maroon" fill-opacity="0.6" height="5.0" stroke-width="0.5" width="5.0" x="1001.85530831" y="901.855308311" /><rect fill="maroon" fill-opacity="0.6" height="8.57142857143" stroke-width="0.5" width="8.57142857143" x="1778.93940636" y="1678.93940636" /><rect fill="maroon" fill-opacity="0.6" height="5.0" stroke-width="0.5" width="5.0" x="1007.90646113" y="907.906461126" /><rect fill="maroon" fill-opacity="0.6" height="5.0" stroke-width="0.5" width="5.0" x="1013.95761394" y="913.957613941" /><rect fill="maroon" fill-opacity="0.6" height="5.0" stroke-width="0.5" width="5.0" x="1020.00876676" y="920.008766756" /><rect fill="maroon" fill-opacity="0.6" height="5.0" stroke-width="0.5" width="5.0" x="1026.05991957" y="926.059919571" /><rect fill="maroon" fill-opacity="0.6" height="5.0" stroke-width="0.5" width="5.0" x="1032.11107239" y="932.111072386" /><rect fill="maroon" fill-opacity="0.6" height="15.7142857143" stroke-width="0.5" width="15.7142857143" x="2045.94095366" y="1945.94095366" /><rect fill="maroon" fill-opacity="0.6" height="5.0" stroke-width="0.5" width="5.0" x="1038.1622252" y="938.162225201" /><rect fill="maroon" fill-opacity="0.6" height="12.1428571429" stroke-width="0.5" width="12.1428571429" x="1931.89031406" y="1831.89031406" /><rect fill="maroon" fill-opacity="0.6" height="5.0" stroke-width="0.5" width="5.0" x="1044.21337802" y="944.213378016" /><rect fill="maroon" fill-opacity="0.6" height="5.0" stroke-width="0.5" width="5.0" x="1050.26453083" y="950.264530831" /><rect fill="maroon" fill-opacity="0.6" height="5.0" stroke-width="0.5" width="5.0" x="1056.31568365" y="956.315683646" /><rect fill="maroon" fill-opacity="0.6" height="5.0" stroke-width="0.5" width="5.0" x="1062.36683646" y="962.366836461" /><rect fill="maroon" fill-opacity="0.6" height="8.57142857143" stroke-width="0.5" width="8.57142857143" x="1789.31281118" y="1689.31281118" /><rect fill="maroon" fill-opacity="0.6" height="5.0" stroke-width="0.5" width="5.0" x="1068.41798928" y="968.417989276" /><rect fill="maroon" fill-opacity="0.6" height="5.0" stroke-width="0.5" width="5.0" x="1074.46914209" y="974.469142091" /><rect fill="maroon" fill-opacity="0.6" height="5.0" stroke-width="0.5" width="5.0" x="1080.52029491" y="980.520294906" /><rect fill="maroon" fill-opacity="0.6" height="5.0" stroke-width="0.5" width="5.0" x="1086.57144772" y="986.571447721" /><rect fill="maroon" fill-opacity="0.6" height="5.0" stroke-width="0.5" width="5.0" x="1092.62260054" y="992.622600536" /><rect fill="maroon" fill-opacity="0.6" height="5.0" stroke-width="0.5" width="5.0" x="1098.67375335" y="998.673753351" /><rect fill="maroon" fill-opacity="0.6" height="5.0" stroke-width="0.5" width="5.0" x="1104.72490617" y="1004.72490617" /><rect fill="maroon" fill-opacity="0.6" height="5.0" stroke-width="0.5" width="5.0" x="1110.77605898" y="1010.77605898" /><rect fill="maroon" fill-opacity="0.6" height="12.1428571429" stroke-width="0.5" width="12.1428571429" x="1946.58597089" y="1846.58597089" /><rect fill="maroon" fill-opacity="0.6" height="12.1428571429" stroke-width="0.5" width="12.1428571429" x="1961.28162773" y="1861.28162773" /><rect fill="maroon" fill-opacity="0.6" height="5.0" stroke-width="0.5" width="5.0" x="1116.8272118" y="1016.8272118" /><rect fill="maroon" fill-opacity="0.6" height="5.0" stroke-width="0.5" width="5.0" x="1122.87836461" y="1022.87836461" /><rect fill="maroon" fill-opacity="0.6" height="5.0" stroke-width="0.5" width="5.0" x="1128.92951743" y="1028.92951743" /><rect fill="maroon" fill-opacity="0.6" height="5.0" stroke-width="0.5" width="5.0" x="1134.98067024" y="1034.98067024" /><rect fill="maroon" fill-opacity="0.6" height="5.0" stroke-width="0.5" width="5.0" x="1141.03182306" y="1041.03182306" /><rect fill="maroon" fill-opacity="0.6" height="5.0" stroke-width="0.5" width="5.0" x="1147.08297587" y="1047.08297587" /><rect fill="maroon" fill-opacity="0.6" height="5.0" stroke-width="0.5" width="5.0" x="1153.13412869" y="1053.13412869" /><rect fill="maroon" fill-opacity="0.6" height="5.0" stroke-width="0.5" width="5.0" x="1159.1852815" y="1059.1852815" /><rect fill="maroon" fill-opacity="0.6" height="5.0" stroke-width="0.5" width="5.0" x="1165.23643432" y="1065.23643432" /><rect fill="maroon" fill-opacity="0.6" height="5.0" stroke-width="0.5" width="5.0" x="1171.28758713" y="1071.28758713" /><rect fill="maroon" fill-opacity="0.6" height="5.0" stroke-width="0.5" width="5.0" x="1177.33873995" y="1077.33873995" /><rect fill="maroon" fill-opacity="0.6" height="5.0" stroke-width="0.5" width="5.0" x="1183.38989276" y="1083.38989276" /><rect fill="maroon" fill-opacity="0.6" height="5.0" stroke-width="0.5" width="5.0" x="1189.44104558" y="1089.44104558" /><rect fill="maroon" fill-opacity="0.6" height="5.0" stroke-width="0.5" width="5.0" x="1195.49219839" y="1095.49219839" /><rect fill="maroon" fill-opacity="0.6" height="5.0" stroke-width="0.5" width="5.0" x="1201.54335121" y="1101.54335121" /><rect fill="maroon" fill-opacity="0.6" height="5.0" stroke-width="0.5" width="5.0" x="1207.59450402" y="1107.59450402" /><rect fill="maroon" fill-opacity="0.6" height="5.0" stroke-width="0.5" width="5.0" x="1213.64565684" y="1113.64565684" /><rect fill="maroon" fill-opacity="0.6" height="15.7142857143" stroke-width="0.5" width="15.7142857143" x="2064.9588625" y="1964.9588625" /><rect fill="maroon" fill-opacity="0.6" height="5.0" stroke-width="0.5" width="5.0" x="1219.69680965" y="1119.69680965" /><rect fill="maroon" fill-opacity="0.6" height="5.0" stroke-width="0.5" width="5.0" x="1225.74796247" y="1125.74796247" /><rect fill="maroon" fill-opacity="0.6" height="5.0" stroke-width="0.5" width="5.0" x="1231.79911528" y="1131.79911528" /><rect fill="maroon" fill-opacity="0.6" height="5.0" stroke-width="0.5" width="5.0" x="1237.8502681" y="1137.8502681" /><rect fill="maroon" fill-opacity="0.6" height="5.0" stroke-width="0.5" width="5.0" x="1243.90142091" y="1143.90142091" /><rect fill="maroon" fill-opacity="0.6" height="5.0" stroke-width="0.5" width="5.0" x="1249.95257373" y="1149.95257373" /><rect fill="maroon" fill-opacity="0.6" height="5.0" stroke-width="0.5" width="5.0" x="1256.00372654" y="1156.00372654" /><rect fill="maroon" fill-opacity="0.6" height="5.0" stroke-width="0.5" width="5.0" x="1262.05487936" y="1162.05487936" /><rect fill="maroon" fill-opacity="0.6" height="5.0" stroke-width="0.5" width="5.0" x="1268.10603217" y="1168.10603217" /><rect fill="maroon" fill-opacity="0.6" height="5.0" stroke-width="0.5" width="5.0" x="1274.15718499" y="1174.15718499" /><rect fill="maroon" fill-opacity="0.6" height="5.0" stroke-width="0.5" width="5.0" x="1280.2083378" y="1180.2083378" /><rect fill="maroon" fill-opacity="0.6" height="5.0" stroke-width="0.5" width="5.0" x="1286.25949062" y="1186.25949062" /><rect fill="maroon" fill-opacity="0.6" height="5.0" stroke-width="0.5" width="5.0" x="1292.31064343" y="1192.31064343" /><rect fill="maroon" fill-opacity="0.6" height="5.0" stroke-width="0.5" width="5.0" x="1298.36179625" y="1198.36179625" /><rect fill="maroon" fill-opacity="0.6" height="5.0" stroke-width="0.5" width="5.0" x="1304.41294906" y="1204.41294906" /><rect fill="maroon" fill-opacity="0.6" height="5.0" stroke-width="0.5" width="5.0" x="1310.46410188" y="1210.46410188" /><rect fill="maroon" fill-opacity="0.6" height="5.0" stroke-width="0.5" width="5.0" x="1316.51525469" y="1216.51525469" /><rect fill="maroon" fill-opacity="0.6" height="5.0" stroke-width="0.5" width="5.0" x="1322.56640751" y="1222.56640751" /><rect fill="maroon" fill-opacity="0.6" height="5.0" stroke-width="0.5" width="5.0" x="1328.61756032" y="1228.61756032" /><rect fill="maroon" fill-opacity="0.6" height="12.1428571429" stroke-width="0.5" width="12.1428571429" x="1975.97728457" y="1875.97728457" /><rect fill="maroon" fill-opacity="0.6" height="5.0" stroke-width="0.5" width="5.0" x="1334.66871314" y="1234.66871314" /><rect fill="maroon" fill-opacity="0.6" height="5.0" stroke-width="0.5" width="5.0" x="1340.71986595" y="1240.71986595" /><rect fill="maroon" fill-opacity="0.6" height="8.57142857143" stroke-width="0.5" width="8.57142857143" x="1799.68621601" y="1699.68621601" /><rect fill="maroon" fill-opacity="0.6" height="5.0" stroke-width="0.5" width="5.0" x="1346.77101877" y="1246.77101877" /><rect fill="maroon" fill-opacity="0.6" height="5.0" stroke-width="0.5" width="5.0" x="1352.82217158" y="1252.82217158" /><rect fill="maroon" fill-opacity="0.6" height="5.0" stroke-width="0.5" width="5.0" x="1358.8733244" y="1258.8733244" /><rect fill="maroon" fill-opacity="0.6" height="5.0" stroke-width="0.5" width="5.0" x="1364.92447721" y="1264.92447721" /><rect fill="maroon" fill-opacity="0.6" height="5.0" stroke-width="0.5" width="5.0" x="1370.97563003" y="1270.97563003" /><rect fill="maroon" fill-opacity="0.6" height="5.0" stroke-width="0.5" width="5.0" x="1377.02678284" y="1277.02678284" /><rect fill="maroon" fill-opacity="0.6" height="5.0" stroke-width="0.5" width="5.0" x="1383.07793566" y="1283.07793566" /><rect fill="maroon" fill-opacity="0.6" height="5.0" stroke-width="0.5" width="5.0" x="1389.12908847" y="1289.12908847" /><rect fill="maroon" fill-opacity="0.6" height="5.0" stroke-width="0.5" width="5.0" x="1395.18024129" y="1295.18024129" /><rect fill="maroon" fill-opacity="0.6" height="5.0" stroke-width="0.5" width="5.0" x="1401.2313941" y="1301.2313941" /><rect fill="maroon" fill-opacity="0.6" height="5.0" stroke-width="0.5" width="5.0" x="1407.28254692" y="1307.28254692" /><rect fill="maroon" fill-opacity="0.6" height="5.0" stroke-width="0.5" width="5.0" x="1413.33369973" y="1313.33369973" /><rect fill="maroon" fill-opacity="0.6" height="5.0" stroke-width="0.5" width="5.0" x="1419.38485255" y="1319.38485255" /><rect fill="maroon" fill-opacity="0.6" height="5.0" stroke-width="0.5" width="5.0" x="1425.43600536" y="1325.43600536" /><rect fill="maroon" fill-opacity="0.6" height="5.0" stroke-width="0.5" width="5.0" x="1431.48715818" y="1331.48715818" /><rect fill="maroon" fill-opacity="0.6" height="5.0" stroke-width="0.5" width="5.0" x="1437.53831099" y="1337.53831099" /><rect fill="maroon" fill-opacity="0.6" height="5.0" stroke-width="0.5" width="5.0" x="1443.58946381" y="1343.58946381" /><rect fill="maroon" fill-opacity="0.6" height="12.1428571429" stroke-width="0.5" width="12.1428571429" x="1990.6729414" y="1890.6729414" /><rect fill="maroon" fill-opacity="0.6" height="5.0" stroke-width="0.5" width="5.0" x="1449.64061662" y="1349.64061662" /><rect fill="maroon" fill-opacity="0.6" height="5.0" stroke-width="0.5" width="5.0" x="1455.69176944" y="1355.69176944" /><rect fill="maroon" fill-opacity="0.6" height="8.57142857143" stroke-width="0.5" width="8.57142857143" x="1810.05962083" y="1710.05962083" /><rect fill="maroon" fill-opacity="0.6" height="8.57142857143" stroke-width="0.5" width="8.57142857143" x="1820.43302566" y="1720.43302566" /><rect fill="maroon" fill-opacity="0.6" height="5.0" stroke-width="0.5" width="5.0" x="1461.74292225" y="1361.74292225" /><rect fill="maroon" fill-opacity="0.6" height="5.0" stroke-width="0.5" width="5.0" x="1467.79407507" y="1367.79407507" /><rect fill="maroon" fill-opacity="0.6" height="5.0" stroke-width="0.5" width="5.0" x="1473.84522788" y="1373.84522788" /><rect fill="maroon" fill-opacity="0.6" height="5.0" stroke-width="0.5" width="5.0" x="1479.8963807" y="1379.8963807" /><rect fill="maroon" fill-opacity="0.6" height="5.0" stroke-width="0.5" width="5.0" x="1485.94753351" y="1385.94753351" /><rect fill="maroon" fill-opacity="0.6" height="5.0" stroke-width="0.5" width="5.0" x="1491.99868633" y="1391.99868633" /><rect fill="maroon" fill-opacity="0.6" height="5.0" stroke-width="0.5" width="5.0" x="1498.04983914" y="1398.04983914" /><rect fill="maroon" fill-opacity="0.6" height="5.0" stroke-width="0.5" width="5.0" x="1504.10099196" y="1404.10099196" /><rect fill="maroon" fill-opacity="0.6" height="5.0" stroke-width="0.5" width="5.0" x="1510.15214477" y="1410.15214477" /><rect fill="maroon" fill-opacity="0.6" height="5.0" stroke-width="0.5" width="5.0" x="1516.20329759" y="1416.20329759" /><rect fill="maroon" fill-opacity="0.6" height="5.0" stroke-width="0.5" width="5.0" x="1522.2544504" y="1422.2544504" /><rect fill="maroon" fill-opacity="0.6" height="5.0" stroke-width="0.5" width="5.0" x="1528.30560322" y="1428.30560322" /><rect fill="maroon" fill-opacity="0.6" height="5.0" stroke-width="0.5" width="5.0" x="1534.35675603" y="1434.35675603" /><rect fill="maroon" fill-opacity="0.6" height="5.0" stroke-width="0.5" width="5.0" x="1540.40790885" y="1440.40790885" /><rect fill="maroon" fill-opacity="0.6" height="5.0" stroke-width="0.5" width="5.0" x="1546.45906166" y="1446.45906166" /><rect fill="maroon" fill-opacity="0.6" height="5.0" stroke-width="0.5" width="5.0" x="1552.51021448" y="1452.51021448" /><rect fill="maroon" fill-opacity="0.6" height="5.0" stroke-width="0.5" width="5.0" x="1558.56136729" y="1458.56136729" /><rect fill="maroon" fill-opacity="0.6" height="5.0" stroke-width="0.5" width="5.0" x="1564.61252011" y="1464.61252011" /><rect fill="maroon" fill-opacity="0.6" height="5.0" stroke-width="0.5" width="5.0" x="1570.66367292" y="1470.66367292" /><rect fill="maroon" fill-opacity="0.6" height="5.0" stroke-width="0.5" width="5.0" x="1576.71482574" y="1476.71482574" /><rect fill="maroon" fill-opacity="0.6" height="8.57142857143" stroke-width="0.5" width="8.57142857143" x="1830.80643049" y="1730.80643049" /><rect fill="maroon" fill-opacity="0.6" height="5.0" stroke-width="0.5" width="5.0" x="1582.76597855" y="1482.76597855" /><rect fill="maroon" fill-opacity="0.6" height="5.0" stroke-width="0.5" width="5.0" x="1588.81713137" y="1488.81713137" /><rect fill="maroon" fill-opacity="0.6" height="5.0" stroke-width="0.5" width="5.0" x="1594.86828418" y="1494.86828418" /><rect fill="maroon" fill-opacity="0.6" height="5.0" stroke-width="0.5" width="5.0" x="1600.919437" y="1500.919437" /><rect fill="maroon" fill-opacity="0.6" height="5.0" stroke-width="0.5" width="5.0" x="1606.97058981" y="1506.97058981" /><rect fill="maroon" fill-opacity="0.6" height="5.0" stroke-width="0.5" width="5.0" x="1613.02174263" y="1513.02174263" /><rect fill="maroon" fill-opacity="0.6" height="5.0" stroke-width="0.5" width="5.0" x="1619.07289544" y="1519.07289544" /><rect fill="maroon" fill-opacity="0.6" height="5.0" stroke-width="0.5" width="5.0" x="1625.12404826" y="1525.12404826" /><rect fill="maroon" fill-opacity="0.6" height="5.0" stroke-width="0.5" width="5.0" x="1631.17520107" y="1531.17520107" /><rect fill="maroon" fill-opacity="0.6" height="5.0" stroke-width="0.5" width="5.0" x="1637.22635389" y="1537.22635389" /><rect fill="maroon" fill-opacity="0.6" height="5.0" stroke-width="0.5" width="5.0" x="1643.2775067" y="1543.2775067" /><rect fill="maroon" fill-opacity="0.6" height="5.0" stroke-width="0.5" width="5.0" x="1649.32865952" y="1549.32865952" /><rect fill="maroon" fill-opacity="0.6" height="5.0" stroke-width="0.5" width="5.0" x="1655.37981233" y="1555.37981233" /><rect fill="maroon" fill-opacity="0.6" height="5.0" stroke-width="0.5" width="5.0" x="1661.43096515" y="1561.43096515" /><rect fill="maroon" fill-opacity="0.6" height="5.0" stroke-width="0.5" width="5.0" x="1667.48211796" y="1567.48211796" /><rect fill="maroon" fill-opacity="0.6" height="5.0" stroke-width="0.5" width="5.0" x="1673.53327078" y="1573.53327078" /><rect fill="maroon" fill-opacity="0.6" height="5.0" stroke-width="0.5" width="5.0" x="1679.58442359" y="1579.58442359" /><rect fill="maroon" fill-opacity="0.6" height="5.0" stroke-width="0.5" width="5.0" x="1685.63557641" y="1585.63557641" /><rect fill="maroon" fill-opacity="0.6" height="5.0" stroke-width="0.5" width="5.0" x="1691.68672922" y="1591.68672922" /><rect fill="maroon" fill-opacity="0.6" height="5.0" stroke-width="0.5" width="5.0" x="1697.73788204" y="1597.73788204" /></svg></svg>