<?xml version="1.0" encoding="utf-8" standalone="no"?>
<!DOCTYPE svg PUBLIC "-//W3C//DTD SVG 1.1//EN" "http://www.w3.org/Graphics/SVG/1.1/DTD/svg11.dtd">
<svg width="2000px" height="2000px" version="1.1" xmlns="http://www.w3.org/2000/svg" xmlns:xlink="http://www.w3.org/1999/xlink">
<g id="bg">
<rect x="0" y="0" width="2000px" height="2000px" style="fill:rgb(255,255,255);"/>
</g>
<g id="ideograms">
<path d="M1000.000,85.000 A915.000,915.000 40.000 0,1 1266.743,124.744 L1276.947,91.264 A950.000,950.000 0.000 0,0 1000.000,50.000 Z" style="stroke-width:1.0;stroke:rgb(0,0,0);stroke-linecap:round;fill:rgb(201,197,122);" />
<text x="1148.4" y="4.0" font-size="31.2px" font-family="CMUBright-Roman" style="text-anchor:middle;fill:rgb(0,0,0);" transform="rotate(368.5,1148.4,4.0)" >Capacity<tspan baseline-shift="-40%" font-size="90%">b</tspan>uilding<tspan baseline-shift="-40%" font-size="90%">s</tspan>ustainable<tspan baseline-shift="-40%" font-size="90%">m</tspan>anagement<tspan baseline-shift="-40%" font-size="90%">o</tspan>f<tspan baseline-shift="-40%" font-size="90%">c</tspan>hinampas</text>
<line x1='1000.0' y1='49.9' x2='1000.0' y2='45.9' style="stroke-width:3.0;stroke:rgb(0,0,0);stroke-linecap:round;fill:none;" />
<text x="1007.5" y="42.9" font-size="20.8px" font-family="CMUBright-Roman" style="text-anchor:start;fill:rgb(0,0,0);" transform="rotate(270.0,1007.5,42.9)" >0</text>
<line x1='1093.5' y1='54.5' x2='1093.9' y2='50.5' style="stroke-width:3.0;stroke:rgb(0,0,0);stroke-linecap:round;fill:none;" />
<text x="1101.7" y="48.3" font-size="20.8px" font-family="CMUBright-Roman" style="text-anchor:start;fill:rgb(0,0,0);" transform="rotate(275.6,1101.7,48.3)" >1</text>
<line x1='1186.2' y1='68.3' x2='1186.9' y2='64.4' style="stroke-width:3.0;stroke:rgb(0,0,0);stroke-linecap:round;fill:none;" />
<text x="1194.9" y="63.0" font-size="20.8px" font-family="CMUBright-Roman" style="text-anchor:start;fill:rgb(0,0,0);" transform="rotate(281.3,1194.9,63.0)" >2</text>
<line x1='1277.0' y1='91.2' x2='1278.1' y2='87.3' style="stroke-width:3.0;stroke:rgb(0,0,0);stroke-linecap:round;fill:none;" />
<text x="1286.2" y="86.7" font-size="20.8px" font-family="CMUBright-Roman" style="text-anchor:start;fill:rgb(0,0,0);" transform="rotate(286.9,1286.2,86.7)" >3</text>
<path d="M1000.000,85.000 A915.000,915.000 40.000 0,1 1266.743,124.744 L1276.947,91.264 A950.000,950.000 0.000 0,0 1000.000,50.000 Z" style="stroke-width:1.0;stroke:rgb(0,0,0);stroke-linecap:round;fill:none;" />
<path d="M1301.475,136.092 A915.000,915.000 40.000 0,1 1464.903,211.907 L1482.686,181.762 A950.000,950.000 0.000 0,0 1313.007,103.046 Z" style="stroke-width:1.0;stroke:rgb(0,0,0);stroke-linecap:round;fill:rgb(97,109,92);" />
<text x="1423.8" y="86.5" font-size="31.2px" font-family="CMUBright-Roman" style="text-anchor:middle;fill:rgb(0,0,0);" transform="rotate(384.9,1423.8,86.5)" >Capacity<tspan baseline-shift="-40%" font-size="90%">b</tspan>uilding<tspan baseline-shift="-40%" font-size="90%">s</tspan>ustainable<tspan baseline-shift="-40%" font-size="90%">a</tspan>gricultural<tspan baseline-shift="-40%" font-size="90%">t</tspan>echniques</text>
<line x1='1313.0' y1='103.0' x2='1314.4' y2='99.2' style="stroke-width:3.0;stroke:rgb(0,0,0);stroke-linecap:round;fill:none;" />
<text x="1322.4" y="98.8" font-size="20.8px" font-family="CMUBright-Roman" style="text-anchor:start;fill:rgb(0,0,0);" transform="rotate(289.2,1322.4,98.8)" >0</text>
<line x1='1399.8' y1='138.1' x2='1401.5' y2='134.5' style="stroke-width:3.0;stroke:rgb(0,0,0);stroke-linecap:round;fill:none;" />
<text x="1409.6" y="135.0" font-size="20.8px" font-family="CMUBright-Roman" style="text-anchor:start;fill:rgb(0,0,0);" transform="rotate(294.9,1409.6,135.0)" >1</text>
<line x1='1482.7' y1='181.7' x2='1484.8' y2='178.2' style="stroke-width:3.0;stroke:rgb(0,0,0);stroke-linecap:round;fill:none;" />
<text x="1492.7" y="179.5" font-size="20.8px" font-family="CMUBright-Roman" style="text-anchor:start;fill:rgb(0,0,0);" transform="rotate(300.5,1492.7,179.5)" >2</text>
<path d="M1301.475,136.092 A915.000,915.000 40.000 0,1 1464.903,211.907 L1482.686,181.762 A950.000,950.000 0.000 0,0 1313.007,103.046 Z" style="stroke-width:1.0;stroke:rgb(0,0,0);stroke-linecap:round;fill:none;" />
<path d="M1495.997,231.097 A915.000,915.000 40.000 0,1 1637.039,343.184 L1661.406,318.060 A950.000,950.000 0.000 0,0 1514.969,201.685 Z" style="stroke-width:1.0;stroke:rgb(0,0,0);stroke-linecap:round;fill:rgb(192,202,104);" />
<text x="1626.5" y="211.6" font-size="31.2px" font-family="CMUBright-Roman" style="text-anchor:middle;fill:rgb(0,0,0);" transform="rotate(398.5,1626.5,211.6)" >Capacity<tspan baseline-shift="-40%" font-size="90%">b</tspan>uilding<tspan baseline-shift="-40%" font-size="90%">r</tspan>eforestation</text>
<line x1='1515.0' y1='201.6' x2='1517.2' y2='198.2' style="stroke-width:3.0;stroke:rgb(0,0,0);stroke-linecap:round;fill:none;" />
<text x="1525.1" y="199.8" font-size="20.8px" font-family="CMUBright-Roman" style="text-anchor:start;fill:rgb(0,0,0);" transform="rotate(302.8,1525.1,199.8)" >0</text>
<line x1='1591.1' y1='256.2' x2='1593.6' y2='253.1' style="stroke-width:3.0;stroke:rgb(0,0,0);stroke-linecap:round;fill:none;" />
<text x="1601.3" y="255.4" font-size="20.8px" font-family="CMUBright-Roman" style="text-anchor:start;fill:rgb(0,0,0);" transform="rotate(308.5,1601.3,255.4)" >1</text>
<line x1='1661.5' y1='318.0' x2='1664.3' y2='315.1' style="stroke-width:3.0;stroke:rgb(0,0,0);stroke-linecap:round;fill:none;" />
<text x="1671.7" y="318.2" font-size="20.8px" font-family="CMUBright-Roman" style="text-anchor:start;fill:rgb(0,0,0);" transform="rotate(314.1,1671.7,318.2)" >2</text>
<path d="M1495.997,231.097 A915.000,915.000 40.000 0,1 1637.039,343.184 L1661.406,318.060 A950.000,950.000 0.000 0,0 1514.969,201.685 Z" style="stroke-width:1.0;stroke:rgb(0,0,0);stroke-linecap:round;fill:none;" />
<path d="M1662.754,369.142 A915.000,915.000 40.000 0,1 1773.516,511.228 L1803.104,492.532 A950.000,950.000 0.000 0,0 1688.105,345.011 Z" style="stroke-width:1.0;stroke:rgb(0,0,0);stroke-linecap:round;fill:rgb(65,111,76);" />
<text x="1794.2" y="380.9" font-size="31.2px" font-family="CMUBright-Roman" style="text-anchor:middle;fill:rgb(0,0,0);" transform="rotate(412.1,1794.2,380.9)" >Capacity<tspan baseline-shift="-40%" font-size="90%">b</tspan>uilding<tspan baseline-shift="-40%" font-size="90%">e</tspan>conomic<tspan baseline-shift="-40%" font-size="90%">t</tspan>ools<tspan baseline-shift="-40%" font-size="90%">f</tspan>or<tspan baseline-shift="-40%" font-size="90%">p</tspan>rojects</text>
<line x1='1688.2' y1='344.9' x2='1691.1' y2='342.2' style="stroke-width:3.0;stroke:rgb(0,0,0);stroke-linecap:round;fill:none;" />
<text x="1698.4" y="345.6" font-size="20.8px" font-family="CMUBright-Roman" style="text-anchor:start;fill:rgb(0,0,0);" transform="rotate(316.4,1698.4,345.6)" >0</text>
<line x1='1749.3' y1='415.9' x2='1752.5' y2='413.4' style="stroke-width:3.0;stroke:rgb(0,0,0);stroke-linecap:round;fill:none;" />
<text x="1759.4" y="417.5" font-size="20.8px" font-family="CMUBright-Roman" style="text-anchor:start;fill:rgb(0,0,0);" transform="rotate(322.1,1759.4,417.5)" >1</text>
<line x1='1803.2' y1='492.5' x2='1806.6' y2='490.3' style="stroke-width:3.0;stroke:rgb(0,0,0);stroke-linecap:round;fill:none;" />
<text x="1813.1" y="495.1" font-size="20.8px" font-family="CMUBright-Roman" style="text-anchor:start;fill:rgb(0,0,0);" transform="rotate(327.7,1813.1,495.1)" >2</text>
<path d="M1662.754,369.142 A915.000,915.000 40.000 0,1 1773.516,511.228 L1803.104,492.532 A950.000,950.000 0.000 0,0 1688.105,345.011 Z" style="stroke-width:1.0;stroke:rgb(0,0,0);stroke-linecap:round;fill:none;" />
<path d="M1792.413,542.500 A915.000,915.000 40.000 0,1 1866.695,706.631 L1899.847,695.409 A950.000,950.000 0.000 0,0 1822.724,525.000 Z" style="stroke-width:1.0;stroke:rgb(0,0,0);stroke-linecap:round;fill:rgb(97,99,92);" />
<text x="1917.4" y="584.8" font-size="31.2px" font-family="CMUBright-Roman" style="text-anchor:middle;fill:rgb(0,0,0);" transform="rotate(425.6,1917.4,584.8)" >Alliance<tspan baseline-shift="-40%" font-size="90%">f</tspan>armers<tspan baseline-shift="-40%" font-size="90%">m</tspan>arket<tspan baseline-shift="-40%" font-size="90%">c</tspan>ertification</text>
<line x1='1822.8' y1='525.0' x2='1826.3' y2='523.0' style="stroke-width:3.0;stroke:rgb(0,0,0);stroke-linecap:round;fill:none;" />
<text x="1832.6" y="528.0" font-size="20.8px" font-family="CMUBright-Roman" style="text-anchor:start;fill:rgb(0,0,0);" transform="rotate(330.0,1832.6,528.0)" >0</text>
<line x1='1865.6' y1='608.3' x2='1869.2' y2='606.6' style="stroke-width:3.0;stroke:rgb(0,0,0);stroke-linecap:round;fill:none;" />
<text x="1875.0" y="612.2" font-size="20.8px" font-family="CMUBright-Roman" style="text-anchor:start;fill:rgb(0,0,0);" transform="rotate(335.6,1875.0,612.2)" >1</text>
<line x1='1899.9' y1='695.4' x2='1903.7' y2='694.1' style="stroke-width:3.0;stroke:rgb(0,0,0);stroke-linecap:round;fill:none;" />
<text x="1908.9" y="700.2" font-size="20.8px" font-family="CMUBright-Roman" style="text-anchor:start;fill:rgb(0,0,0);" transform="rotate(341.3,1908.9,700.2)" >2</text>
<path d="M1792.413,542.500 A915.000,915.000 40.000 0,1 1866.695,706.631 L1899.847,695.409 A950.000,950.000 0.000 0,0 1822.724,525.000 Z" style="stroke-width:1.0;stroke:rgb(0,0,0);stroke-linecap:round;fill:none;" />
<path d="M1877.716,741.467 A915.000,915.000 40.000 0,1 1911.359,918.455 L1946.220,915.336 A950.000,950.000 0.000 0,0 1911.290,731.578 Z" style="stroke-width:1.0;stroke:rgb(0,0,0);stroke-linecap:round;fill:rgb(123,113,70);" />
<text x="1989.3" y="812.0" font-size="31.2px" font-family="CMUBright-Roman" style="text-anchor:middle;fill:rgb(0,0,0);" transform="rotate(439.2,1989.3,812.0)" >Alliance<tspan baseline-shift="-40%" font-size="90%">a</tspan>dvise<tspan baseline-shift="-40%" font-size="90%">o</tspan>n<tspan baseline-shift="-40%" font-size="90%">i</tspan>rregular<tspan baseline-shift="-40%" font-size="90%">s</tspan>ettlements<tspan baseline-shift="-40%" font-size="90%">i</tspan>nvolvement</text>
<line x1='1911.4' y1='731.6' x2='1915.2' y2='730.4' style="stroke-width:3.0;stroke:rgb(0,0,0);stroke-linecap:round;fill:none;" />
<text x="1920.2" y="736.8" font-size="20.8px" font-family="CMUBright-Roman" style="text-anchor:start;fill:rgb(0,0,0);" transform="rotate(343.6,1920.2,736.8)" >0</text>
<line x1='1933.4' y1='822.6' x2='1937.3' y2='821.8' style="stroke-width:3.0;stroke:rgb(0,0,0);stroke-linecap:round;fill:none;" />
<text x="1941.6" y="828.6" font-size="20.8px" font-family="CMUBright-Roman" style="text-anchor:start;fill:rgb(0,0,0);" transform="rotate(349.2,1941.6,828.6)" >1</text>
<line x1='1946.3' y1='915.3' x2='1950.3' y2='915.0' style="stroke-width:3.0;stroke:rgb(0,0,0);stroke-linecap:round;fill:none;" />
<text x="1953.9" y="922.2" font-size="20.8px" font-family="CMUBright-Roman" style="text-anchor:start;fill:rgb(0,0,0);" transform="rotate(354.9,1953.9,922.2)" >2</text>
<path d="M1877.716,741.467 A915.000,915.000 40.000 0,1 1911.359,918.455 L1946.220,915.336 A950.000,950.000 0.000 0,0 1911.290,731.578 Z" style="stroke-width:1.0;stroke:rgb(0,0,0);stroke-linecap:round;fill:none;" />
<g id="highlighttrack_0">
<path d="M1774.355,1466.631 A904.085,904.085 40.000 0,1 1724.655,1540.597 L1732.670,1546.576 A914.085,914.085 0.000 0,0 1782.920,1471.793 Z" style="stroke-width:1.0;stroke:rgb(0,0,0);stroke-linecap:round;fill:rgb(129,121,53);" />
<path d="M1894.214,1133.235 A904.085,904.085 40.000 0,1 1876.753,1220.620 L1886.451,1223.061 A914.085,914.085 0.000 0,0 1904.104,1134.709 Z" style="stroke-width:1.0;stroke:rgb(0,0,0);stroke-linecap:round;fill:rgb(97,109,92);" />
<path d="M1876.753,1220.620 A904.085,904.085 40.000 0,1 1850.775,1305.862 L1860.185,1309.245 A914.085,914.085 0.000 0,0 1886.451,1223.061 Z" style="stroke-width:1.0;stroke:rgb(0,0,0);stroke-linecap:round;fill:rgb(201,197,122);" />
<path d="M1902.986,955.444 A904.085,904.085 40.000 0,1 1902.986,1044.556 L1912.974,1045.049 A914.085,914.085 0.000 0,0 1912.974,954.951 Z" style="stroke-width:1.0;stroke:rgb(0,0,0);stroke-linecap:round;fill:rgb(65,111,76);" />
<path d="M1850.775,1305.862 A904.085,904.085 40.000 0,1 1816.531,1388.132 L1825.563,1392.425 A914.085,914.085 0.000 0,0 1860.185,1309.245 Z" style="stroke-width:1.0;stroke:rgb(0,0,0);stroke-linecap:round;fill:rgb(123,123,70);" />
<path d="M1816.531,1388.132 A904.085,904.085 40.000 0,1 1774.355,1466.631 L1782.920,1471.793 A914.085,914.085 0.000 0,0 1825.563,1392.425 Z" style="stroke-width:1.0;stroke:rgb(0,0,0);stroke-linecap:round;fill:rgb(105,109,45);" />
<path d="M1724.655,1540.597 A904.085,904.085 40.000 0,1 1667.915,1609.311 L1675.303,1616.050 A914.085,914.085 0.000 0,0 1732.670,1546.576 Z" style="stroke-width:1.0;stroke:rgb(0,0,0);stroke-linecap:round;fill:rgb(178,198,106);" />
<path d="M1667.915,1609.311 A904.085,904.085 40.000 0,1 1604.686,1672.105 L1611.374,1679.539 A914.085,914.085 0.000 0,0 1675.303,1616.050 Z" style="stroke-width:1.0;stroke:rgb(0,0,0);stroke-linecap:round;fill:rgb(33,55,39);" />
<path d="M1902.986,1044.556 A904.085,904.085 40.000 0,1 1894.214,1133.235 L1904.104,1134.709 A914.085,914.085 0.000 0,0 1912.974,1045.049 Z" style="stroke-width:1.0;stroke:rgb(0,0,0);stroke-linecap:round;fill:rgb(192,202,104);" />
</g>
<path d="M1913.888,954.906 A915.000,915.000 40.000 0,1 1611.986,1680.219 L1635.396,1706.238 A950.000,950.000 0.000 0,0 1948.846,953.181 Z" style="stroke-width:1.0;stroke:rgb(0,0,0);stroke-linecap:round;fill:rgb(96,126,145);" />
<text x="1956.5" y="1398.1" font-size="31.2px" font-family="CMUBright-Roman" style="text-anchor:middle;fill:rgb(0,0,0);" transform="rotate(-67.4,1956.5,1398.1)" >Ngo-18</text>
<line x1='1948.9' y1='953.2' x2='1952.9' y2='953.0' style="stroke-width:3.0;stroke:rgb(0,0,0);stroke-linecap:round;fill:none;" />
<text x="1956.3" y="960.3" font-size="20.8px" font-family="CMUBright-Roman" style="text-anchor:start;fill:rgb(0,0,0);" transform="rotate(357.2,1956.3,960.3)" >0</text>
<line x1='1948.9' y1='1046.8' x2='1952.9' y2='1047.0' style="stroke-width:3.0;stroke:rgb(0,0,0);stroke-linecap:round;fill:none;" />
<text x="1955.5" y="1054.7" font-size="20.8px" font-family="CMUBright-Roman" style="text-anchor:start;fill:rgb(0,0,0);" transform="rotate(2.8,1955.5,1054.7)" >1</text>
<line x1='1939.7' y1='1140.0' x2='1943.7' y2='1140.6' style="stroke-width:3.0;stroke:rgb(0,0,0);stroke-linecap:round;fill:none;" />
<text x="1945.5" y="1148.5" font-size="20.8px" font-family="CMUBright-Roman" style="text-anchor:start;fill:rgb(0,0,0);" transform="rotate(8.5,1945.5,1148.5)" >2</text>
<line x1='1921.4' y1='1231.8' x2='1925.3' y2='1232.8' style="stroke-width:3.0;stroke:rgb(0,0,0);stroke-linecap:round;fill:none;" />
<text x="1926.3" y="1240.8" font-size="20.8px" font-family="CMUBright-Roman" style="text-anchor:start;fill:rgb(0,0,0);" transform="rotate(14.1,1926.3,1240.8)" >3</text>
<line x1='1894.1' y1='1321.4' x2='1897.8' y2='1322.8' style="stroke-width:3.0;stroke:rgb(0,0,0);stroke-linecap:round;fill:none;" />
<text x="1898.1" y="1330.8" font-size="20.8px" font-family="CMUBright-Roman" style="text-anchor:start;fill:rgb(0,0,0);" transform="rotate(19.8,1898.1,1330.8)" >4</text>
<line x1='1858.1' y1='1407.9' x2='1861.7' y2='1409.6' style="stroke-width:3.0;stroke:rgb(0,0,0);stroke-linecap:round;fill:none;" />
<text x="1861.2" y="1417.7" font-size="20.8px" font-family="CMUBright-Roman" style="text-anchor:start;fill:rgb(0,0,0);" transform="rotate(25.4,1861.2,1417.7)" >5</text>
<line x1='1813.8' y1='1490.4' x2='1817.2' y2='1492.4' style="stroke-width:3.0;stroke:rgb(0,0,0);stroke-linecap:round;fill:none;" />
<text x="1815.9" y="1500.4" font-size="20.8px" font-family="CMUBright-Roman" style="text-anchor:start;fill:rgb(0,0,0);" transform="rotate(31.1,1815.9,1500.4)" >6</text>
<line x1='1761.5' y1='1568.1' x2='1764.7' y2='1570.5' style="stroke-width:3.0;stroke:rgb(0,0,0);stroke-linecap:round;fill:none;" />
<text x="1762.6" y="1578.3" font-size="20.8px" font-family="CMUBright-Roman" style="text-anchor:start;fill:rgb(0,0,0);" transform="rotate(36.7,1762.6,1578.3)" >7</text>
<line x1='1701.9' y1='1640.3' x2='1704.9' y2='1643.0' style="stroke-width:3.0;stroke:rgb(0,0,0);stroke-linecap:round;fill:none;" />
<text x="1702.0" y="1650.6" font-size="20.8px" font-family="CMUBright-Roman" style="text-anchor:start;fill:rgb(0,0,0);" transform="rotate(42.4,1702.0,1650.6)" >8</text>
<line x1='1635.5' y1='1706.3' x2='1638.1' y2='1709.3' style="stroke-width:3.0;stroke:rgb(0,0,0);stroke-linecap:round;fill:none;" />
<text x="1634.5" y="1716.5" font-size="20.8px" font-family="CMUBright-Roman" style="text-anchor:start;fill:rgb(0,0,0);" transform="rotate(48.0,1634.5,1716.5)" >9</text>
<path d="M1913.888,954.906 A915.000,915.000 40.000 0,1 1611.986,1680.219 L1635.396,1706.238 A950.000,950.000 0.000 0,0 1948.846,953.181 Z" style="stroke-width:1.0;stroke:rgb(0,0,0);stroke-linecap:round;fill:none;" />
<g id="highlighttrack_0">
<path d="M1577.370,1695.711 A904.085,904.085 40.000 0,1 1506.075,1749.171 L1511.673,1757.458 A914.085,914.085 0.000 0,0 1583.756,1703.406 Z" style="stroke-width:1.0;stroke:rgb(0,0,0);stroke-linecap:round;fill:rgb(201,197,112);" />
</g>
<path d="M1584.341,1704.110 A915.000,915.000 40.000 0,1 1512.185,1758.216 L1531.777,1787.219 A950.000,950.000 0.000 0,0 1606.692,1731.043 Z" style="stroke-width:1.0;stroke:rgb(0,0,0);stroke-linecap:round;fill:rgb(96,155,165);" />
<text x="1621.5" y="1828.9" font-size="31.2px" font-family="CMUBright-Roman" style="text-anchor:middle;fill:rgb(0,0,0);" transform="rotate(-36.9,1621.5,1828.9)" >Ngo-04</text>
<line x1='1606.8' y1='1731.1' x2='1609.3' y2='1734.2' style="stroke-width:3.0;stroke:rgb(0,0,0);stroke-linecap:round;fill:none;" />
<text x="1605.4" y="1741.3" font-size="20.8px" font-family="CMUBright-Roman" style="text-anchor:start;fill:rgb(0,0,0);" transform="rotate(50.3,1605.4,1741.3)" >0</text>
<line x1='1531.8' y1='1787.3' x2='1534.1' y2='1790.6' style="stroke-width:3.0;stroke:rgb(0,0,0);stroke-linecap:round;fill:none;" />
<text x="1529.5" y="1797.3" font-size="20.8px" font-family="CMUBright-Roman" style="text-anchor:start;fill:rgb(0,0,0);" transform="rotate(56.0,1529.5,1797.3)" >1</text>
<path d="M1584.341,1704.110 A915.000,915.000 40.000 0,1 1512.185,1758.216 L1531.777,1787.219 A950.000,950.000 0.000 0,0 1606.692,1731.043 Z" style="stroke-width:1.0;stroke:rgb(0,0,0);stroke-linecap:round;fill:none;" />
<g id="highlighttrack_0">
<path d="M1475.761,1768.779 A904.085,904.085 40.000 0,1 1397.766,1811.881 L1402.166,1820.862 A914.085,914.085 0.000 0,0 1481.023,1777.282 Z" style="stroke-width:1.0;stroke:rgb(0,0,0);stroke-linecap:round;fill:rgb(105,109,45);" />
</g>
<path d="M1481.505,1778.060 A915.000,915.000 40.000 0,1 1402.569,1821.683 L1417.967,1853.114 A950.000,950.000 0.000 0,0 1499.923,1807.822 Z" style="stroke-width:1.0;stroke:rgb(0,0,0);stroke-linecap:round;fill:rgb(40,52,79);" />
<text x="1499.2" y="1903.2" font-size="31.2px" font-family="CMUBright-Roman" style="text-anchor:middle;fill:rgb(0,0,0);" transform="rotate(-28.9,1499.2,1903.2)" >Gov-15</text>
<line x1='1500.0' y1='1807.9' x2='1502.1' y2='1811.3' style="stroke-width:3.0;stroke:rgb(0,0,0);stroke-linecap:round;fill:none;" />
<text x="1497.3" y="1817.8" font-size="20.8px" font-family="CMUBright-Roman" style="text-anchor:start;fill:rgb(0,0,0);" transform="rotate(58.2,1497.3,1817.8)" >0</text>
<line x1='1418.0' y1='1853.2' x2='1419.8' y2='1856.8' style="stroke-width:3.0;stroke:rgb(0,0,0);stroke-linecap:round;fill:none;" />
<text x="1414.3" y="1862.8" font-size="20.8px" font-family="CMUBright-Roman" style="text-anchor:start;fill:rgb(0,0,0);" transform="rotate(63.9,1414.3,1862.8)" >1</text>
<path d="M1481.505,1778.060 A915.000,915.000 40.000 0,1 1402.569,1821.683 L1417.967,1853.114 A950.000,950.000 0.000 0,0 1499.923,1807.822 Z" style="stroke-width:1.0;stroke:rgb(0,0,0);stroke-linecap:round;fill:none;" />
<g id="highlighttrack_0">
<path d="M1365.035,1827.115 A904.085,904.085 40.000 0,1 1281.835,1859.034 L1284.953,1868.535 A914.085,914.085 0.000 0,0 1369.073,1836.264 Z" style="stroke-width:1.0;stroke:rgb(0,0,0);stroke-linecap:round;fill:rgb(178,198,106);" />
</g>
<path d="M1369.442,1837.101 A915.000,915.000 40.000 0,1 1285.238,1869.405 L1296.149,1902.661 A950.000,950.000 0.000 0,0 1383.574,1869.121 Z" style="stroke-width:1.0;stroke:rgb(0,0,0);stroke-linecap:round;fill:rgb(238,192,100);" />
<text x="1369.6" y="1963.5" font-size="31.2px" font-family="CMUBright-Roman" style="text-anchor:middle;fill:rgb(0,0,0);" transform="rotate(-21.0,1369.6,1963.5)" >Cs-17</text>
<line x1='1383.6' y1='1869.2' x2='1385.2' y2='1872.9' style="stroke-width:3.0;stroke:rgb(0,0,0);stroke-linecap:round;fill:none;" />
<text x="1379.6" y="1878.6" font-size="20.8px" font-family="CMUBright-Roman" style="text-anchor:start;fill:rgb(0,0,0);" transform="rotate(66.2,1379.6,1878.6)" >0</text>
<line x1='1296.2' y1='1902.8' x2='1297.4' y2='1906.6' style="stroke-width:3.0;stroke:rgb(0,0,0);stroke-linecap:round;fill:none;" />
<text x="1291.2" y="1911.7" font-size="20.8px" font-family="CMUBright-Roman" style="text-anchor:start;fill:rgb(0,0,0);" transform="rotate(71.8,1291.2,1911.7)" >1</text>
<path d="M1369.442,1837.101 A915.000,915.000 40.000 0,1 1285.238,1869.405 L1296.149,1902.661 A950.000,950.000 0.000 0,0 1383.574,1869.121 Z" style="stroke-width:1.0;stroke:rgb(0,0,0);stroke-linecap:round;fill:none;" />
<g id="highlighttrack_0">
<path d="M1072.133,1901.203 A904.085,904.085 40.000 0,1 983.063,1903.926 L982.875,1913.925 A914.085,914.085 0.000 0,0 1072.931,1911.171 Z" style="stroke-width:1.0;stroke:rgb(0,0,0);stroke-linecap:round;fill:rgb(201,197,112);" />
<path d="M1160.503,1889.724 A904.085,904.085 40.000 0,1 1072.133,1901.203 L1072.931,1911.171 A914.085,914.085 0.000 0,0 1162.279,1899.565 Z" style="stroke-width:1.0;stroke:rgb(0,0,0);stroke-linecap:round;fill:rgb(97,99,92);" />
<path d="M1247.314,1869.601 A904.085,904.085 40.000 0,1 1160.503,1889.724 L1162.279,1899.565 A914.085,914.085 0.000 0,0 1250.049,1879.219 Z" style="stroke-width:1.0;stroke:rgb(0,0,0);stroke-linecap:round;fill:rgb(123,113,70);" />
</g>
<path d="M1250.300,1880.100 A915.000,915.000 40.000 0,1 982.858,1914.839 L982.203,1949.833 A950.000,950.000 0.000 0,0 1259.874,1913.765 Z" style="stroke-width:1.0;stroke:rgb(0,0,0);stroke-linecap:round;fill:rgb(176,86,49);" />
<text x="1132.9" y="2023.4" font-size="31.2px" font-family="CMUBright-Roman" style="text-anchor:middle;fill:rgb(0,0,0);" transform="rotate(-7.4,1132.9,2023.4)" >Cs-16</text>
<line x1='1259.9' y1='1913.9' x2='1261.0' y2='1917.7' style="stroke-width:3.0;stroke:rgb(0,0,0);stroke-linecap:round;fill:none;" />
<text x="1254.6" y="1922.6" font-size="20.8px" font-family="CMUBright-Roman" style="text-anchor:start;fill:rgb(0,0,0);" transform="rotate(74.1,1254.6,1922.6)" >0</text>
<line x1='1168.7' y1='1935.0' x2='1169.4' y2='1938.9' style="stroke-width:3.0;stroke:rgb(0,0,0);stroke-linecap:round;fill:none;" />
<text x="1162.5" y="1943.2" font-size="20.8px" font-family="CMUBright-Roman" style="text-anchor:start;fill:rgb(0,0,0);" transform="rotate(79.8,1162.5,1943.2)" >1</text>
<line x1='1075.8' y1='1947.1' x2='1076.1' y2='1951.1' style="stroke-width:3.0;stroke:rgb(0,0,0);stroke-linecap:round;fill:none;" />
<text x="1068.9" y="1954.6" font-size="20.8px" font-family="CMUBright-Roman" style="text-anchor:start;fill:rgb(0,0,0);" transform="rotate(85.4,1068.9,1954.6)" >2</text>
<line x1='982.2' y1='1949.9' x2='982.1' y2='1953.9' style="stroke-width:3.0;stroke:rgb(0,0,0);stroke-linecap:round;fill:none;" />
<text x="989.6" y="1957.0" font-size="20.8px" font-family="CMUBright-Roman" style="text-anchor:end;fill:rgb(0,0,0);" transform="rotate(-88.9,989.6,1957.0)" >3</text>
<path d="M1250.300,1880.100 A915.000,915.000 40.000 0,1 982.858,1914.839 L982.203,1949.833 A950.000,950.000 0.000 0,0 1259.874,1913.765 Z" style="stroke-width:1.0;stroke:rgb(0,0,0);stroke-linecap:round;fill:none;" />
<g id="highlighttrack_0">
<path d="M946.987,1902.529 A904.085,904.085 40.000 0,1 858.394,1892.926 L856.828,1902.803 A914.085,914.085 0.000 0,0 946.401,1912.512 Z" style="stroke-width:1.0;stroke:rgb(0,0,0);stroke-linecap:round;fill:rgb(178,198,106);" />
</g>
<path d="M946.347,1913.426 A915.000,915.000 40.000 0,1 856.684,1903.707 L851.202,1938.275 A950.000,950.000 0.000 0,0 944.295,1948.365 Z" style="stroke-width:1.0;stroke:rgb(0,0,0);stroke-linecap:round;fill:rgb(158,86,39);" />
<text x="888.8" y="2026.0" font-size="31.2px" font-family="CMUBright-Roman" style="text-anchor:middle;fill:rgb(0,0,0);" transform="rotate(6.2,888.8,2026.0)" >Cs-05</text>
<line x1='944.3' y1='1948.5' x2='944.1' y2='1952.5' style="stroke-width:3.0;stroke:rgb(0,0,0);stroke-linecap:round;fill:none;" />
<text x="951.4" y="1955.9" font-size="20.8px" font-family="CMUBright-Roman" style="text-anchor:end;fill:rgb(0,0,0);" transform="rotate(-86.6,951.4,1955.9)" >0</text>
<line x1='851.2' y1='1938.4' x2='850.6' y2='1942.3' style="stroke-width:3.0;stroke:rgb(0,0,0);stroke-linecap:round;fill:none;" />
<text x="857.5" y="1946.4" font-size="20.8px" font-family="CMUBright-Roman" style="text-anchor:end;fill:rgb(0,0,0);" transform="rotate(-81.0,857.5,1946.4)" >1</text>
<path d="M946.347,1913.426 A915.000,915.000 40.000 0,1 856.684,1903.707 L851.202,1938.275 A950.000,950.000 0.000 0,0 944.295,1948.365 Z" style="stroke-width:1.0;stroke:rgb(0,0,0);stroke-linecap:round;fill:none;" />
<g id="highlighttrack_0">
<path d="M822.857,1886.561 A904.085,904.085 40.000 0,1 736.439,1864.815 L733.523,1874.381 A914.085,914.085 0.000 0,0 820.897,1896.367 Z" style="stroke-width:1.0;stroke:rgb(0,0,0);stroke-linecap:round;fill:rgb(123,113,70);" />
</g>
<path d="M820.718,1897.264 A915.000,915.000 40.000 0,1 733.257,1875.256 L723.053,1908.736 A950.000,950.000 0.000 0,0 813.860,1931.586 Z" style="stroke-width:1.0;stroke:rgb(0,0,0);stroke-linecap:round;fill:rgb(127,51,110);" />
<text x="748.2" y="2000.8" font-size="31.2px" font-family="CMUBright-Roman" style="text-anchor:middle;fill:rgb(0,0,0);" transform="rotate(14.1,748.2,2000.8)" >Ch-14</text>
<line x1='813.8' y1='1931.7' x2='813.1' y2='1935.6' style="stroke-width:3.0;stroke:rgb(0,0,0);stroke-linecap:round;fill:none;" />
<text x="819.8" y="1940.0" font-size="20.8px" font-family="CMUBright-Roman" style="text-anchor:end;fill:rgb(0,0,0);" transform="rotate(-78.7,819.8,1940.0)" >0</text>
<line x1='723.0' y1='1908.8' x2='721.9' y2='1912.7' style="stroke-width:3.0;stroke:rgb(0,0,0);stroke-linecap:round;fill:none;" />
<text x="728.2" y="1917.7" font-size="20.8px" font-family="CMUBright-Roman" style="text-anchor:end;fill:rgb(0,0,0);" transform="rotate(-73.1,728.2,1917.7)" >1</text>
<path d="M820.718,1897.264 A915.000,915.000 40.000 0,1 733.257,1875.256 L723.053,1908.736 A950.000,950.000 0.000 0,0 813.860,1931.586 Z" style="stroke-width:1.0;stroke:rgb(0,0,0);stroke-linecap:round;fill:none;" />
<g id="highlighttrack_0">
<path d="M540.643,1778.692 A904.085,904.085 40.000 0,1 466.215,1729.687 L460.311,1737.758 A914.085,914.085 0.000 0,0 535.562,1787.305 Z" style="stroke-width:1.0;stroke:rgb(0,0,0);stroke-linecap:round;fill:rgb(129,121,53);" />
<path d="M619.534,1820.131 A904.085,904.085 40.000 0,1 540.643,1778.692 L535.562,1787.305 A914.085,914.085 0.000 0,0 615.326,1829.203 Z" style="stroke-width:1.0;stroke:rgb(0,0,0);stroke-linecap:round;fill:rgb(65,111,76);" />
<path d="M702.121,1853.603 A904.085,904.085 40.000 0,1 619.534,1820.131 L615.326,1829.203 A914.085,914.085 0.000 0,0 698.826,1863.044 Z" style="stroke-width:1.0;stroke:rgb(0,0,0);stroke-linecap:round;fill:rgb(97,99,92);" />
</g>
<path d="M698.525,1863.908 A915.000,915.000 40.000 0,1 459.771,1738.497 L439.106,1766.745 A950.000,950.000 0.000 0,0 686.993,1896.954 Z" style="stroke-width:1.0;stroke:rgb(0,0,0);stroke-linecap:round;fill:rgb(111,14,45);" />
<text x="520.1" y="1913.6" font-size="31.2px" font-family="CMUBright-Roman" style="text-anchor:middle;fill:rgb(0,0,0);" transform="rotate(27.7,520.1,1913.6)" >Ch-10</text>
<line x1='687.0' y1='1897.0' x2='685.6' y2='1900.8' style="stroke-width:3.0;stroke:rgb(0,0,0);stroke-linecap:round;fill:none;" />
<text x="691.7" y="1906.1" font-size="20.8px" font-family="CMUBright-Roman" style="text-anchor:end;fill:rgb(0,0,0);" transform="rotate(-70.8,691.7,1906.1)" >0</text>
<line x1='600.2' y1='1861.9' x2='598.5' y2='1865.5' style="stroke-width:3.0;stroke:rgb(0,0,0);stroke-linecap:round;fill:none;" />
<text x="604.0" y="1871.3" font-size="20.8px" font-family="CMUBright-Roman" style="text-anchor:end;fill:rgb(0,0,0);" transform="rotate(-65.1,604.0,1871.3)" >1</text>
<line x1='517.3' y1='1818.3' x2='515.2' y2='1821.8' style="stroke-width:3.0;stroke:rgb(0,0,0);stroke-linecap:round;fill:none;" />
<text x="520.2" y="1828.1" font-size="20.8px" font-family="CMUBright-Roman" style="text-anchor:end;fill:rgb(0,0,0);" transform="rotate(-59.5,520.2,1828.1)" >2</text>
<line x1='439.0' y1='1766.8' x2='436.7' y2='1770.1' style="stroke-width:3.0;stroke:rgb(0,0,0);stroke-linecap:round;fill:none;" />
<text x="441.0" y="1776.9" font-size="20.8px" font-family="CMUBright-Roman" style="text-anchor:end;fill:rgb(0,0,0);" transform="rotate(-53.8,441.0,1776.9)" >3</text>
<path d="M698.525,1863.908 A915.000,915.000 40.000 0,1 459.771,1738.497 L439.106,1766.745 A950.000,950.000 0.000 0,0 686.993,1896.954 Z" style="stroke-width:1.0;stroke:rgb(0,0,0);stroke-linecap:round;fill:none;" />
<g id="highlighttrack_0">
<path d="M370.560,1648.980 A904.085,904.085 40.000 0,1 309.728,1583.862 L302.093,1590.320 A914.085,914.085 0.000 0,0 363.598,1656.159 Z" style="stroke-width:1.0;stroke:rgb(0,0,0);stroke-linecap:round;fill:rgb(201,197,122);" />
<path d="M437.508,1707.794 A904.085,904.085 40.000 0,1 370.560,1648.980 L363.598,1656.159 A914.085,914.085 0.000 0,0 431.286,1715.623 Z" style="stroke-width:1.0;stroke:rgb(0,0,0);stroke-linecap:round;fill:rgb(192,202,104);" />
</g>
<path d="M430.717,1716.339 A915.000,915.000 40.000 0,1 301.395,1590.911 L274.672,1613.514 A950.000,950.000 0.000 0,0 408.941,1743.740 Z" style="stroke-width:1.0;stroke:rgb(0,0,0);stroke-linecap:round;fill:rgb(188,24,77);" />
<text x="281.5" y="1740.8" font-size="31.2px" font-family="CMUBright-Roman" style="text-anchor:middle;fill:rgb(0,0,0);" transform="rotate(44.1,281.5,1740.8)" >Ch-07</text>
<line x1='408.9' y1='1743.8' x2='406.4' y2='1746.9' style="stroke-width:3.0;stroke:rgb(0,0,0);stroke-linecap:round;fill:none;" />
<text x="410.4" y="1753.9" font-size="20.8px" font-family="CMUBright-Roman" style="text-anchor:end;fill:rgb(0,0,0);" transform="rotate(-51.5,410.4,1753.9)" >0</text>
<line x1='338.5' y1='1682.0' x2='335.7' y2='1684.9' style="stroke-width:3.0;stroke:rgb(0,0,0);stroke-linecap:round;fill:none;" />
<text x="339.1" y="1692.2" font-size="20.8px" font-family="CMUBright-Roman" style="text-anchor:end;fill:rgb(0,0,0);" transform="rotate(-45.9,339.1,1692.2)" >1</text>
<line x1='274.6' y1='1613.6' x2='271.5' y2='1616.2' style="stroke-width:3.0;stroke:rgb(0,0,0);stroke-linecap:round;fill:none;" />
<text x="274.1" y="1623.8" font-size="20.8px" font-family="CMUBright-Roman" style="text-anchor:end;fill:rgb(0,0,0);" transform="rotate(-40.2,274.1,1623.8)" >2</text>
<path d="M430.717,1716.339 A915.000,915.000 40.000 0,1 301.395,1590.911 L274.672,1613.514 A950.000,950.000 0.000 0,0 408.941,1743.740 Z" style="stroke-width:1.0;stroke:rgb(0,0,0);stroke-linecap:round;fill:none;" />
<g id="highlighttrack_0">
<path d="M235.711,1482.942 A904.085,904.085 40.000 0,1 191.880,1405.354 L182.942,1409.838 A914.085,914.085 0.000 0,0 227.258,1488.283 Z" style="stroke-width:1.0;stroke:rgb(0,0,0);stroke-linecap:round;fill:rgb(129,121,53);" />
<path d="M286.968,1555.837 A904.085,904.085 40.000 0,1 235.711,1482.942 L227.258,1488.283 A914.085,914.085 0.000 0,0 279.081,1561.985 Z" style="stroke-width:1.0;stroke:rgb(0,0,0);stroke-linecap:round;fill:rgb(97,109,92);" />
</g>
<path d="M278.360,1562.548 A915.000,915.000 40.000 0,1 182.124,1410.248 L150.839,1425.941 A950.000,950.000 0.000 0,0 250.756,1584.066 Z" style="stroke-width:1.0;stroke:rgb(0,0,0);stroke-linecap:round;fill:rgb(214,116,149);" />
<text x="127.6" y="1551.3" font-size="31.2px" font-family="CMUBright-Roman" style="text-anchor:middle;fill:rgb(0,0,0);" transform="rotate(57.7,127.6,1551.3)" >Ch-02</text>
<line x1='250.7' y1='1584.1' x2='247.5' y2='1586.6' style="stroke-width:3.0;stroke:rgb(0,0,0);stroke-linecap:round;fill:none;" />
<text x="249.8" y="1594.3" font-size="20.8px" font-family="CMUBright-Roman" style="text-anchor:end;fill:rgb(0,0,0);" transform="rotate(-37.9,249.8,1594.3)" >0</text>
<line x1='196.8' y1='1507.5' x2='193.4' y2='1509.7' style="stroke-width:3.0;stroke:rgb(0,0,0);stroke-linecap:round;fill:none;" />
<text x="194.9" y="1517.6" font-size="20.8px" font-family="CMUBright-Roman" style="text-anchor:end;fill:rgb(0,0,0);" transform="rotate(-32.3,194.9,1517.6)" >1</text>
<line x1='150.8' y1='1426.0' x2='147.2' y2='1427.8' style="stroke-width:3.0;stroke:rgb(0,0,0);stroke-linecap:round;fill:none;" />
<text x="147.9" y="1435.8" font-size="20.8px" font-family="CMUBright-Roman" style="text-anchor:end;fill:rgb(0,0,0);" transform="rotate(-26.6,147.9,1435.8)" >2</text>
<path d="M278.360,1562.548 A915.000,915.000 40.000 0,1 182.124,1410.248 L150.839,1425.941 A950.000,950.000 0.000 0,0 250.756,1584.066 Z" style="stroke-width:1.0;stroke:rgb(0,0,0);stroke-linecap:round;fill:none;" />
<g id="highlighttrack_0">
<path d="M176.341,1372.767 A904.085,904.085 40.000 0,1 143.644,1289.870 L134.172,1293.076 A914.085,914.085 0.000 0,0 167.230,1376.890 Z" style="stroke-width:1.0;stroke:rgb(0,0,0);stroke-linecap:round;fill:rgb(33,55,39);" />
</g>
<path d="M166.397,1377.267 A915.000,915.000 40.000 0,1 133.305,1293.369 L100.153,1304.591 A950.000,950.000 0.000 0,0 134.510,1391.698 Z" style="stroke-width:1.0;stroke:rgb(0,0,0);stroke-linecap:round;fill:rgb(181,104,89);" />
<text x="40.0" y="1378.7" font-size="31.2px" font-family="CMUBright-Roman" style="text-anchor:middle;fill:rgb(0,0,0);" transform="rotate(68.5,40.0,1378.7)" >Ac-19</text>
<line x1='134.4' y1='1391.7' x2='130.8' y2='1393.4' style="stroke-width:3.0;stroke:rgb(0,0,0);stroke-linecap:round;fill:none;" />
<text x="131.2" y="1401.4" font-size="20.8px" font-family="CMUBright-Roman" style="text-anchor:end;fill:rgb(0,0,0);" transform="rotate(-24.4,131.2,1401.4)" >0</text>
<line x1='100.1' y1='1304.6' x2='96.3' y2='1305.9' style="stroke-width:3.0;stroke:rgb(0,0,0);stroke-linecap:round;fill:none;" />
<text x="95.9" y="1314.0" font-size="20.8px" font-family="CMUBright-Roman" style="text-anchor:end;fill:rgb(0,0,0);" transform="rotate(-18.7,95.9,1314.0)" >1</text>
<path d="M166.397,1377.267 A915.000,915.000 40.000 0,1 133.305,1293.369 L100.153,1304.591 A950.000,950.000 0.000 0,0 134.510,1391.698 Z" style="stroke-width:1.0;stroke:rgb(0,0,0);stroke-linecap:round;fill:none;" />
<g id="highlighttrack_0">
<path d="M132.754,1255.449 A904.085,904.085 40.000 0,1 111.819,1168.831 L101.995,1170.698 A914.085,914.085 0.000 0,0 123.161,1258.274 Z" style="stroke-width:1.0;stroke:rgb(0,0,0);stroke-linecap:round;fill:rgb(201,197,122);" />
<path d="M111.819,1168.831 A904.085,904.085 40.000 0,1 99.512,1080.572 L89.552,1081.463 A914.085,914.085 0.000 0,0 101.995,1170.698 Z" style="stroke-width:1.0;stroke:rgb(0,0,0);stroke-linecap:round;fill:rgb(123,123,70);" />
</g>
<path d="M122.284,1258.533 A915.000,915.000 40.000 0,1 88.641,1081.545 L53.780,1084.664 A950.000,950.000 0.000 0,0 88.710,1268.422 Z" style="stroke-width:1.0;stroke:rgb(0,0,0);stroke-linecap:round;fill:rgb(213,148,120);" />
<text x="-13.8" y="1192.7" font-size="31.2px" font-family="CMUBright-Roman" style="text-anchor:middle;fill:rgb(0,0,0);" transform="rotate(79.2,-13.8,1192.7)" >Ac-01</text>
<line x1='88.6' y1='1268.4' x2='84.8' y2='1269.6' style="stroke-width:3.0;stroke:rgb(0,0,0);stroke-linecap:round;fill:none;" />
<text x="84.1" y="1277.6" font-size="20.8px" font-family="CMUBright-Roman" style="text-anchor:end;fill:rgb(0,0,0);" transform="rotate(-16.4,84.1,1277.6)" >0</text>
<line x1='66.6' y1='1177.4' x2='62.7' y2='1178.2' style="stroke-width:3.0;stroke:rgb(0,0,0);stroke-linecap:round;fill:none;" />
<text x="61.2" y="1186.1" font-size="20.8px" font-family="CMUBright-Roman" style="text-anchor:end;fill:rgb(0,0,0);" transform="rotate(-10.8,61.2,1186.1)" >1</text>
<line x1='53.7' y1='1084.7' x2='49.7' y2='1085.0' style="stroke-width:3.0;stroke:rgb(0,0,0);stroke-linecap:round;fill:none;" />
<text x="47.4" y="1092.8" font-size="20.8px" font-family="CMUBright-Roman" style="text-anchor:end;fill:rgb(0,0,0);" transform="rotate(-5.1,47.4,1092.8)" >2</text>
<path d="M122.284,1258.533 A915.000,915.000 40.000 0,1 88.641,1081.545 L53.780,1084.664 A950.000,950.000 0.000 0,0 88.710,1268.422 Z" style="stroke-width:1.0;stroke:rgb(0,0,0);stroke-linecap:round;fill:none;" />
<path d="M86.112,1045.094 A915.000,915.000 40.000 0,1 94.991,865.156 L60.373,859.998 A950.000,950.000 0.000 0,0 51.154,1046.819 Z" style="stroke-width:1.0;stroke:rgb(0,0,0);stroke-linecap:round;fill:rgb(33,55,39);" />
<text x="-5.8" y="950.4" font-size="31.2px" font-family="CMUBright-Roman" style="text-anchor:middle;fill:rgb(0,0,0);" transform="rotate(-87.2,-5.8,950.4)" >Research<tspan baseline-shift="-40%" font-size="90%">w</tspan>ater<tspan baseline-shift="-40%" font-size="90%">q</tspan>uality</text>
<line x1='51.1' y1='1046.8' x2='47.1' y2='1047.0' style="stroke-width:3.0;stroke:rgb(0,0,0);stroke-linecap:round;fill:none;" />
<text x="44.5" y="1054.7" font-size="20.8px" font-family="CMUBright-Roman" style="text-anchor:end;fill:rgb(0,0,0);" transform="rotate(-2.8,44.5,1054.7)" >0</text>
<line x1='51.1' y1='953.2' x2='47.1' y2='953.0' style="stroke-width:3.0;stroke:rgb(0,0,0);stroke-linecap:round;fill:none;" />
<text x="43.7" y="960.3" font-size="20.8px" font-family="CMUBright-Roman" style="text-anchor:end;fill:rgb(0,0,0);" transform="rotate(2.8,43.7,960.3)" >1</text>
<line x1='60.3' y1='860.0' x2='56.3' y2='859.4' style="stroke-width:3.0;stroke:rgb(0,0,0);stroke-linecap:round;fill:none;" />
<text x="52.3" y="866.4" font-size="20.8px" font-family="CMUBright-Roman" style="text-anchor:end;fill:rgb(0,0,0);" transform="rotate(8.5,52.3,866.4)" >2</text>
<path d="M86.112,1045.094 A915.000,915.000 40.000 0,1 94.991,865.156 L60.373,859.998 A950.000,950.000 0.000 0,0 51.154,1046.819 Z" style="stroke-width:1.0;stroke:rgb(0,0,0);stroke-linecap:round;fill:none;" />
<path d="M101.096,829.131 A915.000,915.000 40.000 0,1 189.953,574.502 L158.968,558.226 A950.000,950.000 0.000 0,0 66.711,822.595 Z" style="stroke-width:1.0;stroke:rgb(0,0,0);stroke-linecap:round;fill:rgb(178,198,106);" />
<text x="49.2" y="668.2" font-size="31.2px" font-family="CMUBright-Roman" style="text-anchor:middle;fill:rgb(0,0,0);" transform="rotate(-70.8,49.2,668.2)" >Project<tspan baseline-shift="-40%" font-size="90%">r</tspan>estoration<tspan baseline-shift="-40%" font-size="90%">a</tspan>nd<tspan baseline-shift="-40%" font-size="90%">c</tspan>hinampas<tspan baseline-shift="-40%" font-size="90%">r</tspan>efugees</text>
<line x1='66.6' y1='822.6' x2='62.7' y2='821.8' style="stroke-width:3.0;stroke:rgb(0,0,0);stroke-linecap:round;fill:none;" />
<text x="58.4" y="828.6" font-size="20.8px" font-family="CMUBright-Roman" style="text-anchor:end;fill:rgb(0,0,0);" transform="rotate(10.8,58.4,828.6)" >0</text>
<line x1='88.6' y1='731.6' x2='84.8' y2='730.4' style="stroke-width:3.0;stroke:rgb(0,0,0);stroke-linecap:round;fill:none;" />
<text x="79.8" y="736.8" font-size="20.8px" font-family="CMUBright-Roman" style="text-anchor:end;fill:rgb(0,0,0);" transform="rotate(16.4,79.8,736.8)" >1</text>
<line x1='119.5' y1='643.1' x2='115.8' y2='641.6' style="stroke-width:3.0;stroke:rgb(0,0,0);stroke-linecap:round;fill:none;" />
<text x="110.2" y="647.5" font-size="20.8px" font-family="CMUBright-Roman" style="text-anchor:end;fill:rgb(0,0,0);" transform="rotate(22.1,110.2,647.5)" >2</text>
<line x1='158.9' y1='558.2' x2='155.3' y2='556.3' style="stroke-width:3.0;stroke:rgb(0,0,0);stroke-linecap:round;fill:none;" />
<text x="149.2" y="561.6" font-size="20.8px" font-family="CMUBright-Roman" style="text-anchor:end;fill:rgb(0,0,0);" transform="rotate(27.7,149.2,561.6)" >3</text>
<path d="M101.096,829.131 A915.000,915.000 40.000 0,1 189.953,574.502 L158.968,558.226 A950.000,950.000 0.000 0,0 66.711,822.595 Z" style="stroke-width:1.0;stroke:rgb(0,0,0);stroke-linecap:round;fill:none;" />
<path d="M207.587,542.500 A915.000,915.000 40.000 0,1 312.587,396.105 L286.293,373.005 A950.000,950.000 0.000 0,0 177.276,525.000 Z" style="stroke-width:1.0;stroke:rgb(0,0,0);stroke-linecap:round;fill:rgb(201,197,112);" />
<text x="181.7" y="413.1" font-size="31.2px" font-family="CMUBright-Roman" style="text-anchor:middle;fill:rgb(0,0,0);" transform="rotate(-54.4,181.7,413.1)" >Project<tspan baseline-shift="-40%" font-size="90%">r</tspan>ainwater<tspan baseline-shift="-40%" font-size="90%">h</tspan>arvesting<tspan baseline-shift="-40%" font-size="90%">s</tspan>ystems</text>
<line x1='177.2' y1='525.0' x2='173.7' y2='523.0' style="stroke-width:3.0;stroke:rgb(0,0,0);stroke-linecap:round;fill:none;" />
<text x="167.4" y="528.0" font-size="20.8px" font-family="CMUBright-Roman" style="text-anchor:end;fill:rgb(0,0,0);" transform="rotate(30.0,167.4,528.0)" >0</text>
<line x1='228.0' y1='446.3' x2='224.7' y2='443.9' style="stroke-width:3.0;stroke:rgb(0,0,0);stroke-linecap:round;fill:none;" />
<text x="217.9" y="448.3" font-size="20.8px" font-family="CMUBright-Roman" style="text-anchor:end;fill:rgb(0,0,0);" transform="rotate(35.6,217.9,448.3)" >1</text>
<line x1='286.2' y1='372.9' x2='283.2' y2='370.3' style="stroke-width:3.0;stroke:rgb(0,0,0);stroke-linecap:round;fill:none;" />
<text x="276.0" y="374.0" font-size="20.8px" font-family="CMUBright-Roman" style="text-anchor:end;fill:rgb(0,0,0);" transform="rotate(41.3,276.0,374.0)" >2</text>
<path d="M207.587,542.500 A915.000,915.000 40.000 0,1 312.587,396.105 L286.293,373.005 A950.000,950.000 0.000 0,0 177.276,525.000 Z" style="stroke-width:1.0;stroke:rgb(0,0,0);stroke-linecap:round;fill:none;" />
<path d="M337.246,369.142 A915.000,915.000 40.000 0,1 549.943,203.336 L532.728,172.862 A950.000,950.000 0.000 0,0 311.895,345.011 Z" style="stroke-width:1.0;stroke:rgb(0,0,0);stroke-linecap:round;fill:rgb(129,121,53);" />
<text x="380.9" y="205.8" font-size="31.2px" font-family="CMUBright-Roman" style="text-anchor:middle;fill:rgb(0,0,0);" transform="rotate(-37.9,380.9,205.8)" >Outreach<tspan baseline-shift="-40%" font-size="90%">t</tspan>ours<tspan baseline-shift="-40%" font-size="90%">a</tspan>nd<tspan baseline-shift="-40%" font-size="90%">e</tspan>vents</text>
<line x1='311.8' y1='344.9' x2='308.9' y2='342.2' style="stroke-width:3.0;stroke:rgb(0,0,0);stroke-linecap:round;fill:none;" />
<text x="301.6" y="345.6" font-size="20.8px" font-family="CMUBright-Roman" style="text-anchor:end;fill:rgb(0,0,0);" transform="rotate(43.6,301.6,345.6)" >0</text>
<line x1='379.7' y1='280.4' x2='377.0' y2='277.3' style="stroke-width:3.0;stroke:rgb(0,0,0);stroke-linecap:round;fill:none;" />
<text x="369.4" y="280.0" font-size="20.8px" font-family="CMUBright-Roman" style="text-anchor:end;fill:rgb(0,0,0);" transform="rotate(49.2,369.4,280.0)" >1</text>
<line x1='453.5' y1='222.8' x2='451.2' y2='219.5' style="stroke-width:3.0;stroke:rgb(0,0,0);stroke-linecap:round;fill:none;" />
<text x="443.4" y="221.4" font-size="20.8px" font-family="CMUBright-Roman" style="text-anchor:end;fill:rgb(0,0,0);" transform="rotate(54.9,443.4,221.4)" >2</text>
<line x1='532.7' y1='172.8' x2='530.7' y2='169.3' style="stroke-width:3.0;stroke:rgb(0,0,0);stroke-linecap:round;fill:none;" />
<text x="522.7" y="170.4" font-size="20.8px" font-family="CMUBright-Roman" style="text-anchor:end;fill:rgb(0,0,0);" transform="rotate(60.5,522.7,170.4)" >3</text>
<path d="M337.246,369.142 A915.000,915.000 40.000 0,1 549.943,203.336 L532.728,172.862 A950.000,950.000 0.000 0,0 311.895,345.011 Z" style="stroke-width:1.0;stroke:rgb(0,0,0);stroke-linecap:round;fill:none;" />
<path d="M582.109,186.003 A915.000,915.000 40.000 0,1 749.700,119.900 L740.126,86.235 A950.000,950.000 0.000 0,0 566.124,154.866 Z" style="stroke-width:1.0;stroke:rgb(0,0,0);stroke-linecap:round;fill:rgb(105,109,45);" />
<text x="630.5" y="63.2" font-size="31.2px" font-family="CMUBright-Roman" style="text-anchor:middle;fill:rgb(0,0,0);" transform="rotate(-21.5,630.5,63.2)" >Outreach<tspan baseline-shift="-40%" font-size="90%">c</tspan>hinampas<tspan baseline-shift="-40%" font-size="90%">p</tspan>rojects</text>
<line x1='566.1' y1='154.8' x2='564.3' y2='151.2' style="stroke-width:3.0;stroke:rgb(0,0,0);stroke-linecap:round;fill:none;" />
<text x="556.2" y="152.0" font-size="20.8px" font-family="CMUBright-Roman" style="text-anchor:end;fill:rgb(0,0,0);" transform="rotate(62.8,556.2,152.0)" >0</text>
<line x1='651.4' y1='116.2' x2='649.9' y2='112.4' style="stroke-width:3.0;stroke:rgb(0,0,0);stroke-linecap:round;fill:none;" />
<text x="641.9" y="112.4" font-size="20.8px" font-family="CMUBright-Roman" style="text-anchor:end;fill:rgb(0,0,0);" transform="rotate(68.5,641.9,112.4)" >1</text>
<line x1='740.1' y1='86.1' x2='739.0' y2='82.3' style="stroke-width:3.0;stroke:rgb(0,0,0);stroke-linecap:round;fill:none;" />
<text x="731.0" y="81.5" font-size="20.8px" font-family="CMUBright-Roman" style="text-anchor:end;fill:rgb(0,0,0);" transform="rotate(74.1,731.0,81.5)" >2</text>
<path d="M582.109,186.003 A915.000,915.000 40.000 0,1 749.700,119.900 L740.126,86.235 A950.000,950.000 0.000 0,0 566.124,154.866 Z" style="stroke-width:1.0;stroke:rgb(0,0,0);stroke-linecap:round;fill:none;" />
<path d="M785.038,110.609 A915.000,915.000 40.000 0,1 963.469,85.730 L962.071,50.757 A950.000,950.000 0.000 0,0 776.815,76.589 Z" style="stroke-width:1.0;stroke:rgb(0,0,0);stroke-linecap:round;fill:rgb(123,123,70);" />
<text x="860.9" y="2.6" font-size="31.2px" font-family="CMUBright-Roman" style="text-anchor:middle;fill:rgb(0,0,0);" transform="rotate(-7.9,860.9,2.6)" >Outreach<tspan baseline-shift="-40%" font-size="90%">c</tspan>hinampas<tspan baseline-shift="-40%" font-size="90%">p</tspan>roducts<tspan baseline-shift="-40%" font-size="90%">a</tspan>nd<tspan baseline-shift="-40%" font-size="90%">s</tspan>ocial<tspan baseline-shift="-40%" font-size="90%">p</tspan>rojects</text>
<line x1='776.8' y1='76.5' x2='775.9' y2='72.6' style="stroke-width:3.0;stroke:rgb(0,0,0);stroke-linecap:round;fill:none;" />
<text x="767.9" y="71.5" font-size="20.8px" font-family="CMUBright-Roman" style="text-anchor:end;fill:rgb(0,0,0);" transform="rotate(76.4,767.9,71.5)" >0</text>
<line x1='868.8' y1='59.0' x2='868.2' y2='55.0' style="stroke-width:3.0;stroke:rgb(0,0,0);stroke-linecap:round;fill:none;" />
<text x="860.4" y="53.1" font-size="20.8px" font-family="CMUBright-Roman" style="text-anchor:end;fill:rgb(0,0,0);" transform="rotate(82.1,860.4,53.1)" >1</text>
<line x1='962.1' y1='50.7' x2='961.9' y2='46.7' style="stroke-width:3.0;stroke:rgb(0,0,0);stroke-linecap:round;fill:none;" />
<text x="954.3" y="44.0" font-size="20.8px" font-family="CMUBright-Roman" style="text-anchor:end;fill:rgb(0,0,0);" transform="rotate(87.7,954.3,44.0)" >2</text>
<path d="M785.038,110.609 A915.000,915.000 40.000 0,1 963.469,85.730 L962.071,50.757 A950.000,950.000 0.000 0,0 776.815,76.589 Z" style="stroke-width:1.0;stroke:rgb(0,0,0);stroke-linecap:round;fill:none;" />
</g>
<g id="flow">
<path d="M 1774.355,1466.631 A 904.085,904.085 0.00 0,1 1724.7,1540.6 L 1724.7,1540.6 1691.3,1515.2 1657.8,1489.0 1624.3,1461.9 1590.7,1434.1 1557.0,1405.5 1523.3,1376.3 1489.5,1346.4 1455.7,1315.9 1421.8,1284.9 1387.9,1253.5 1354.0,1221.5 1320.1,1189.2 1286.1,1156.5 1252.2,1123.5 1218.4,1090.2 1184.5,1056.6 1150.8,1022.8 1117.1,988.8 1083.6,954.7 1050.2,920.4 1017.0,886.0 983.9,851.5 951.1,817.0 918.6,782.4 886.3,747.8 854.3,713.2 822.7,678.6 791.5,644.0 760.7,609.5 730.4,575.0 700.6,540.7 671.3,506.3 642.7,472.1 614.6,438.0 587.3,403.9 560.7,369.9 534.8,336.1 509.8,302.3 485.7,268.6  A 894.085,894.085 0.00 0,1 560.2,221.5 L 560.2,221.5 579.7,254.9 600.6,288.5 622.7,322.3 645.9,356.3 670.3,390.4 695.8,424.8 722.2,459.3 749.5,493.9 777.7,528.7 806.6,563.6 836.3,598.6 866.6,633.7 897.5,668.8 928.9,703.9 960.9,739.0 993.3,774.1 1026.1,809.1 1059.2,844.0 1092.7,878.8 1126.4,913.3 1160.3,947.7 1194.4,981.8 1228.6,1015.5 1263.0,1048.9 1297.4,1081.9 1331.9,1114.4 1366.4,1146.3 1400.9,1177.7 1435.3,1208.5 1469.7,1238.6 1504.1,1267.9 1538.3,1296.3 1572.5,1323.9 1606.5,1350.5 1640.3,1376.1 1674.1,1400.6 1707.7,1423.9 1741.1,1445.9 1774.4,1466.6  Z" style="stroke-width: 1.0;  stroke: rgb(0,0,0); fill: rgb(96,126,145);" />
<path d="M 1894.214,1133.235 A 904.085,904.085 0.00 0,1 1876.8,1220.6 L 1876.8,1220.6 1854.1,1213.8 1831.2,1204.6 1808.2,1193.3 1785.2,1179.8 1762.2,1164.4 1739.3,1147.0 1716.5,1127.9 1693.8,1107.1 1671.5,1084.7 1649.4,1060.8 1627.7,1035.5 1606.4,1009.0 1585.6,981.2 1565.3,952.4 1545.6,922.6 1526.5,892.0 1508.2,860.5 1490.5,828.5 1473.7,795.8 1457.7,762.7 1442.6,729.3 1428.4,695.6 1415.2,661.8 1403.1,627.9 1392.1,594.1 1382.1,560.5 1373.4,527.2 1365.9,494.3 1359.7,461.9 1354.7,430.1 1351.1,399.0 1349.0,368.7 1348.2,339.4 1349.0,311.1 1351.2,283.9 1355.1,258.0 1360.5,233.5 1367.5,210.4 1376.3,188.9  A 894.085,894.085 0.00 0,1 1454.3,229.9 L 1454.3,229.9 1444.4,248.8 1435.9,269.2 1429.0,291.1 1423.5,314.2 1419.5,338.6 1416.9,364.0 1415.7,390.4 1415.9,417.7 1417.4,445.7 1420.3,474.4 1424.5,503.6 1429.9,533.3 1436.6,563.3 1444.5,593.5 1453.5,623.8 1463.7,654.2 1475.0,684.4 1487.3,714.5 1500.6,744.3 1514.9,773.8 1530.0,802.7 1546.1,831.1 1562.9,858.8 1580.5,885.7 1598.8,911.7 1617.8,936.8 1637.3,960.8 1657.4,983.7 1678.0,1005.3 1698.9,1025.6 1720.2,1044.4 1741.7,1061.8 1763.5,1077.5 1785.4,1091.5 1807.3,1103.8 1829.3,1114.2 1851.1,1122.6 1872.8,1129.0 1894.2,1133.2  Z" style="stroke-width: 1.0;  stroke: rgb(0,0,0); fill: rgb(96,126,145);" />
<path d="M 1876.753,1220.620 A 904.085,904.085 0.00 0,1 1850.8,1305.9 L 1850.8,1305.9 1825.5,1295.6 1800.0,1282.9 1774.3,1267.9 1748.6,1250.8 1722.9,1231.7 1697.1,1210.6 1671.3,1187.7 1645.6,1163.1 1620.1,1136.8 1594.7,1109.1 1569.5,1080.0 1544.6,1049.7 1520.0,1018.1 1495.7,985.5 1471.9,952.0 1448.5,917.6 1425.7,882.4 1403.4,846.6 1381.8,810.3 1360.8,773.5 1340.6,736.4 1321.1,699.1 1302.6,661.6 1284.9,624.1 1268.3,586.6 1252.7,549.4 1238.2,512.3 1224.8,475.7 1212.7,439.5 1201.9,403.8 1192.5,368.8 1184.6,334.6 1178.1,301.1 1173.2,268.6 1170.0,237.2 1168.5,206.8 1168.8,177.6 1171.0,149.7 1175.2,123.2  A 894.085,894.085 0.00 0,1 1260.6,144.8 L 1260.6,144.8 1254.6,168.6 1250.4,193.9 1248.0,220.6 1247.3,248.5 1248.4,277.5 1251.1,307.6 1255.4,338.7 1261.2,370.6 1268.4,403.2 1277.1,436.5 1287.1,470.3 1298.4,504.6 1310.9,539.2 1324.6,574.0 1339.4,609.0 1355.3,644.0 1372.1,678.9 1389.9,713.6 1408.6,748.1 1428.0,782.2 1448.3,815.8 1469.2,848.9 1490.8,881.2 1513.0,912.8 1535.7,943.4 1558.8,973.1 1582.4,1001.6 1606.4,1029.0 1630.6,1055.0 1655.1,1079.7 1679.7,1102.8 1704.5,1124.3 1729.4,1144.1 1754.3,1162.0 1779.1,1178.0 1803.8,1192.0 1828.3,1203.8 1852.7,1213.4 1876.8,1220.6  Z" style="stroke-width: 1.0;  stroke: rgb(0,0,0); fill: rgb(96,126,145);" />
<path d="M 1902.986,955.444 A 904.085,904.085 0.00 0,1 1903.0,1044.6 L 1903.0,1044.6 1884.7,1042.9 1866.2,1039.8 1847.8,1035.2 1829.6,1029.3 1811.5,1022.1 1793.7,1013.6 1776.3,1003.9 1759.4,993.0 1743.1,981.1 1727.3,968.1 1712.2,954.1 1697.9,939.2 1684.4,923.4 1671.8,906.9 1660.1,889.6 1649.3,871.6 1639.6,853.1 1630.8,834.0 1623.2,814.5 1616.7,794.6 1611.2,774.4 1606.9,754.0 1603.8,733.4 1601.9,712.7 1601.1,692.0 1601.4,671.4 1603.0,651.0 1605.7,630.8 1609.5,611.0 1614.5,591.5 1620.6,572.6 1627.8,554.3 1636.0,536.6 1645.2,519.8 1655.5,503.7 1666.6,488.7 1678.6,474.7 1691.5,461.9 1705.1,450.3  A 894.085,894.085 0.00 0,1 1755.8,522.4 L 1755.8,522.4 1741.8,531.9 1728.4,542.4 1715.6,553.7 1703.5,565.8 1692.2,578.6 1681.8,592.1 1672.2,606.0 1663.6,620.5 1656.0,635.3 1649.4,650.4 1643.9,665.8 1639.5,681.4 1636.3,697.0 1634.1,712.7 1633.2,728.4 1633.4,744.0 1634.8,759.4 1637.4,774.6 1641.1,789.6 1646.0,804.2 1652.0,818.4 1659.1,832.2 1667.4,845.5 1676.6,858.3 1686.9,870.5 1698.2,882.0 1710.3,892.8 1723.4,903.0 1737.2,912.3 1751.8,920.9 1767.1,928.6 1782.9,935.4 1799.3,941.3 1816.0,946.2 1833.2,950.1 1850.5,953.1 1868.0,954.9 1885.5,955.7 1903.0,955.4  Z" style="stroke-width: 1.0;  stroke: rgb(0,0,0); fill: rgb(96,126,145);" />
<path d="M 1850.775,1305.862 A 904.085,904.085 0.00 0,1 1816.5,1388.1 L 1816.5,1388.1 1787.4,1373.2 1758.1,1356.2 1728.5,1337.2 1698.9,1316.3 1669.1,1293.6 1639.1,1269.2 1609.1,1243.2 1579.0,1215.8 1548.9,1187.0 1518.8,1156.9 1488.7,1125.7 1458.7,1093.3 1428.8,1060.0 1399.0,1025.8 1369.5,990.9 1340.2,955.1 1311.2,918.8 1282.5,881.9 1254.3,844.6 1226.5,806.9 1199.2,768.9 1172.5,730.7 1146.4,692.4 1121.0,653.9 1096.4,615.5 1072.7,577.2 1049.8,539.0 1028.0,501.0 1007.2,463.3 987.5,425.9 969.1,389.0 952.0,352.5 936.3,316.5 922.1,281.1 909.4,246.3 898.5,212.2 889.3,178.8 881.9,146.2 876.5,114.5  A 894.085,894.085 0.00 0,1 964.3,106.6 L 964.3,106.6 966.5,136.2 970.9,166.8 977.2,198.3 985.3,230.7 995.3,263.9 1007.0,297.8 1020.3,332.4 1035.1,367.5 1051.4,403.2 1069.0,439.3 1087.8,475.9 1107.9,512.7 1129.0,549.7 1151.2,586.9 1174.4,624.2 1198.4,661.4 1223.2,698.6 1248.8,735.5 1275.0,772.2 1301.8,808.6 1329.2,844.5 1357.1,879.8 1385.3,914.6 1413.9,948.6 1442.8,981.9 1472.0,1014.2 1501.3,1045.5 1530.8,1075.7 1560.3,1104.7 1589.9,1132.4 1619.5,1158.8 1649.0,1183.6 1678.5,1206.7 1707.7,1228.2 1736.8,1247.8 1765.7,1265.5 1794.4,1281.2 1822.7,1294.7 1850.8,1305.9  Z" style="stroke-width: 1.0;  stroke: rgb(0,0,0); fill: rgb(96,126,145);" />
<path d="M 1816.531,1388.132 A 904.085,904.085 0.00 0,1 1774.4,1466.6 L 1774.4,1466.6 1742.8,1446.8 1711.1,1425.4 1679.3,1402.4 1647.4,1378.0 1615.3,1352.3 1583.1,1325.2 1550.9,1297.1 1518.5,1267.8 1486.1,1237.5 1453.7,1206.2 1421.2,1174.1 1388.8,1141.2 1356.4,1107.6 1324.0,1073.4 1291.8,1038.6 1259.6,1003.3 1227.7,967.5 1195.9,931.3 1164.4,894.8 1133.2,858.0 1102.4,821.1 1071.9,783.9 1041.9,746.7 1012.3,709.4 983.3,672.0 954.9,634.7 927.2,597.5 900.2,560.3 874.0,523.3 848.7,486.5 824.3,449.9 800.9,413.6 778.6,377.5 757.5,341.8 737.5,306.3 719.0,271.2 701.8,236.5 686.1,202.2 671.9,168.3  A 894.085,894.085 0.00 0,1 755.4,140.0 L 755.4,140.0 765.6,172.5 777.6,205.6 791.3,239.2 806.8,273.4 823.8,308.0 842.3,343.1 862.2,378.5 883.4,414.4 905.8,450.5 929.3,486.9 954.0,523.6 979.5,560.4 1006.0,597.4 1033.3,634.5 1061.4,671.6 1090.1,708.6 1119.5,745.6 1149.4,782.4 1179.8,818.9 1210.7,855.2 1241.9,891.2 1273.4,926.7 1305.2,961.7 1337.2,996.2 1369.4,1030.0 1401.7,1063.1 1434.1,1095.4 1466.5,1126.8 1499.0,1157.3 1531.4,1186.7 1563.7,1214.9 1595.9,1241.9 1628.0,1267.6 1659.9,1291.8 1691.7,1314.5 1723.3,1335.6 1754.6,1355.0 1785.7,1372.5 1816.5,1388.1  Z" style="stroke-width: 1.0;  stroke: rgb(0,0,0); fill: rgb(96,126,145);" />
<path d="M 1724.655,1540.597 A 904.085,904.085 0.00 0,1 1667.9,1609.3 L 1667.9,1609.3 1637.1,1581.7 1605.2,1554.2 1572.5,1526.8 1538.9,1499.5 1504.5,1472.4 1469.3,1445.2 1433.5,1418.2 1397.0,1391.3 1360.0,1364.4 1322.3,1337.6 1284.2,1310.9 1245.7,1284.2 1206.8,1257.6 1167.5,1231.2 1127.9,1204.8 1088.0,1178.6 1047.9,1152.4 1007.6,1126.5 967.1,1100.7 926.5,1075.0 885.9,1049.6 845.2,1024.4 804.5,999.5 763.7,974.9 723.1,950.5 682.5,926.6 642.0,903.0 601.6,879.8 561.4,857.0 521.3,834.8 481.4,813.1 441.8,791.9 402.3,771.4 363.1,751.6 324.2,732.4 285.6,714.1 247.2,696.6 209.1,679.9 171.4,664.2  A 894.085,894.085 0.00 0,1 208.5,584.2 L 208.5,584.2 247.0,604.7 285.7,625.6 324.5,646.9 363.5,668.6 402.5,690.7 441.7,713.1 481.0,735.9 520.4,758.9 559.8,782.2 599.4,805.8 639.0,829.6 678.8,853.6 718.5,877.8 758.4,902.2 798.2,926.7 838.1,951.4 878.0,976.2 917.9,1001.2 957.8,1026.2 997.7,1051.4 1037.5,1076.6 1077.3,1101.9 1117.0,1127.3 1156.6,1152.7 1196.1,1178.3 1235.4,1203.8 1274.6,1229.4 1313.6,1255.1 1352.5,1280.8 1391.1,1306.5 1429.5,1332.3 1467.6,1358.2 1505.4,1384.1 1542.9,1410.0 1580.0,1436.0 1616.8,1462.0 1653.2,1488.1 1689.1,1514.3 1724.7,1540.6  Z" style="stroke-width: 1.0;  stroke: rgb(0,0,0); fill: rgb(96,126,145);" />
<path d="M 1667.915,1609.311 A 904.085,904.085 0.00 0,1 1604.7,1672.1 L 1604.7,1672.1 1580.4,1646.3 1554.3,1620.8 1526.5,1595.6 1497.0,1570.6 1466.0,1545.8 1433.5,1521.2 1399.7,1496.8 1364.6,1472.7 1328.4,1448.8 1291.1,1425.1 1252.9,1401.6 1213.7,1378.3 1173.8,1355.3 1133.1,1332.6 1091.9,1310.2 1050.0,1288.0 1007.7,1266.2 965.1,1244.8 922.1,1223.7 878.9,1203.0 835.5,1182.9 792.1,1163.2 748.7,1144.0 705.3,1125.4 662.1,1107.5 619.1,1090.2 576.3,1073.7 533.9,1058.0 491.9,1043.1 450.4,1029.1 409.4,1016.1 368.9,1004.2 329.1,993.3 290.1,983.6 251.7,975.3 214.2,968.2 177.5,962.6 141.8,958.5 107.0,955.9  A 894.085,894.085 0.00 0,1 115.7,868.2 L 115.7,868.2 152.8,874.4 190.6,881.9 229.0,890.6 268.2,900.6 307.9,911.6 348.2,923.7 389.1,936.7 430.5,950.6 472.3,965.4 514.5,981.0 557.1,997.3 600.0,1014.3 643.1,1031.9 686.5,1050.0 730.1,1068.8 773.7,1088.0 817.4,1107.6 861.2,1127.7 904.9,1148.1 948.4,1168.9 991.8,1190.0 1035.0,1211.4 1077.9,1233.1 1120.4,1255.1 1162.5,1277.2 1204.1,1299.6 1245.2,1322.2 1285.7,1345.0 1325.4,1368.0 1364.4,1391.2 1402.5,1414.6 1439.7,1438.2 1475.9,1461.9 1511.1,1485.9 1545.1,1510.1 1577.8,1534.5 1609.3,1559.2 1639.3,1584.1 1667.9,1609.3  Z" style="stroke-width: 1.0;  stroke: rgb(0,0,0); fill: rgb(96,126,145);" />
<path d="M 235.711,1482.942 A 904.085,904.085 0.00 0,1 191.9,1405.4 L 191.9,1405.4 211.2,1394.5 230.2,1381.4 248.6,1366.3 266.6,1349.3 284.0,1330.5 300.9,1310.0 317.1,1287.8 332.6,1264.2 347.5,1239.2 361.6,1212.8 374.9,1185.3 387.5,1156.8 399.2,1127.3 410.0,1096.9 419.9,1065.8 429.0,1034.1 437.1,1001.8 444.2,969.1 450.3,936.2 455.5,903.0 459.6,869.7 462.7,836.5 464.8,803.4 465.8,770.6 465.8,738.1 464.7,706.1 462.5,674.7 459.2,643.9 454.9,614.0 449.4,585.0 442.9,557.0 435.3,530.1 426.6,504.5 416.9,480.3 406.1,457.5 394.2,436.4 381.3,416.9 367.3,399.3 352.4,383.6  A 894.085,894.085 0.00 0,1 416.2,322.8 L 416.2,322.8 430.8,341.4 444.1,362.0 456.3,384.5 467.4,408.8 477.3,434.7 486.1,462.2 493.8,491.1 500.3,521.4 505.8,552.8 510.2,585.4 513.5,618.9 515.7,653.3 516.9,688.4 517.1,724.1 516.2,760.4 514.4,797.0 511.5,834.0 507.7,871.1 502.9,908.2 497.2,945.3 490.5,982.2 483.0,1018.8 474.6,1054.9 465.2,1090.6 455.1,1125.6 444.1,1159.8 432.3,1193.2 419.7,1225.5 406.4,1256.8 392.3,1286.8 377.5,1315.5 362.0,1342.8 345.8,1368.4 328.9,1392.4 311.4,1414.6 293.3,1434.8 274.7,1453.1 255.5,1469.1 235.7,1482.9  Z" style="stroke-width: 1.0;  stroke: rgb(0,0,0); fill: rgb(214,116,149);" />
<path d="M 286.968,1555.837 A 904.085,904.085 0.00 0,1 235.7,1482.9 L 235.7,1482.9 266.6,1462.6 297.6,1440.6 328.7,1417.0 359.8,1391.9 391.1,1365.5 422.4,1337.8 453.8,1308.9 485.3,1278.8 516.7,1247.7 548.2,1215.7 579.7,1182.7 611.2,1149.0 642.5,1114.5 673.9,1079.4 705.0,1043.7 736.1,1007.5 766.9,970.8 797.6,933.7 827.9,896.3 858.0,858.6 887.7,820.7 916.9,782.7 945.8,744.5 974.1,706.3 1001.9,668.1 1029.0,630.0 1055.5,591.9 1081.2,554.0 1106.1,516.2 1130.2,478.7 1153.2,441.4 1175.3,404.4 1196.3,367.7 1216.1,331.4 1234.6,295.4 1251.8,259.9 1267.6,224.7 1281.9,190.0 1294.6,155.8  A 894.085,894.085 0.00 0,1 1376.3,188.9 L 1376.3,188.9 1359.3,224.3 1341.1,260.0 1321.7,295.9 1301.3,332.1 1279.8,368.6 1257.4,405.4 1234.1,442.4 1209.9,479.6 1185.0,517.0 1159.4,554.6 1133.2,592.3 1106.3,630.2 1078.8,668.1 1050.9,706.2 1022.5,744.2 993.7,782.3 964.5,820.4 935.0,858.3 905.2,896.2 875.2,933.9 844.9,971.5 814.4,1008.8 783.8,1045.8 753.0,1082.5 722.1,1118.8 691.1,1154.7 660.1,1190.2 629.0,1225.0 597.9,1259.3 566.7,1293.0 535.6,1325.9 504.5,1358.1 473.3,1389.4 442.2,1419.8 411.1,1449.2 380.1,1477.6 349.0,1504.9 318.0,1531.0 287.0,1555.8  Z" style="stroke-width: 1.0;  stroke: rgb(0,0,0); fill: rgb(214,116,149);" />
<path d="M 370.560,1648.980 A 904.085,904.085 0.00 0,1 309.7,1583.9 L 309.7,1583.9 336.4,1560.2 362.9,1534.8 389.3,1507.7 415.4,1478.9 441.4,1448.6 467.2,1416.9 492.9,1383.8 518.3,1349.5 543.7,1314.1 568.8,1277.6 593.8,1240.2 618.6,1201.8 643.1,1162.7 667.4,1122.9 691.5,1082.4 715.3,1041.4 738.8,1000.0 761.9,958.1 784.7,916.0 807.1,873.6 829.0,831.0 850.5,788.3 871.4,745.6 891.8,703.0 911.5,660.5 930.6,618.1 948.9,576.0 966.4,534.2 983.1,492.8 998.9,451.7 1013.7,411.2 1027.5,371.2 1040.1,331.7 1051.6,292.9 1061.7,254.8 1070.5,217.5 1077.9,180.9 1083.8,145.1 1088.0,110.3  A 894.085,894.085 0.00 0,1 1175.2,123.2 L 1175.2,123.2 1167.2,160.2 1157.8,197.9 1147.2,236.1 1135.5,274.9 1122.6,314.3 1108.7,354.2 1093.8,394.6 1078.0,435.4 1061.4,476.6 1044.0,518.2 1025.9,560.2 1007.1,602.4 987.7,644.8 967.8,687.4 947.3,730.2 926.3,773.1 904.9,816.0 883.1,858.9 860.9,901.7 838.4,944.4 815.5,986.9 792.4,1029.3 769.1,1071.3 745.5,1112.9 721.7,1154.2 697.7,1194.9 673.5,1235.1 649.2,1274.7 624.7,1313.7 600.0,1351.8 575.2,1389.2 550.2,1425.6 525.1,1461.1 499.8,1495.5 474.3,1528.7 448.7,1560.8 422.9,1591.6 396.8,1621.0 370.6,1649.0  Z" style="stroke-width: 1.0;  stroke: rgb(0,0,0); fill: rgb(188,24,77);" />
<path d="M 540.643,1778.692 A 904.085,904.085 0.00 0,1 466.2,1729.7 L 466.2,1729.7 482.0,1706.2 496.6,1680.7 510.2,1653.2 522.7,1623.8 534.1,1592.7 544.5,1560.0 554.0,1525.8 562.4,1490.1 570.0,1453.2 576.6,1415.2 582.4,1376.1 587.3,1336.0 591.3,1295.1 594.5,1253.6 596.9,1211.4 598.4,1168.8 599.2,1125.8 599.2,1082.6 598.4,1039.2 596.8,995.9 594.5,952.6 591.4,909.6 587.5,866.9 582.9,824.6 577.5,782.9 571.3,741.9 564.3,701.7 556.6,662.4 548.1,624.1 538.7,586.9 528.6,551.0 517.6,516.5 505.8,483.5 493.1,452.0 479.6,422.3 465.2,394.4 449.8,368.4 433.5,344.5 416.2,322.8  A 894.085,894.085 0.00 0,1 485.7,268.6 L 485.7,268.6 502.2,293.9 517.7,321.2 532.2,350.4 545.8,381.5 558.5,414.3 570.3,448.6 581.2,484.5 591.4,521.8 600.7,560.3 609.3,600.0 617.2,640.8 624.3,682.6 630.7,725.2 636.5,768.5 641.5,812.5 645.9,857.0 649.5,901.9 652.6,947.1 654.9,992.6 656.6,1038.1 657.6,1083.6 657.9,1129.0 657.6,1174.2 656.5,1219.1 654.7,1263.5 652.2,1307.3 648.9,1350.5 644.9,1393.0 640.0,1434.5 634.4,1475.1 627.9,1514.6 620.4,1553.0 612.1,1590.0 602.8,1625.6 592.6,1659.7 581.3,1692.1 568.9,1722.8 555.3,1751.7 540.6,1778.7  Z" style="stroke-width: 1.0;  stroke: rgb(0,0,0); fill: rgb(111,14,45);" />
<path d="M 619.534,1820.131 A 904.085,904.085 0.00 0,1 540.6,1778.7 L 540.6,1778.7 562.5,1742.3 585.1,1705.7 608.5,1668.9 632.5,1632.1 657.2,1595.0 682.4,1557.9 708.2,1520.7 734.4,1483.3 761.2,1445.9 788.4,1408.4 815.9,1370.8 843.8,1333.1 872.0,1295.5 900.5,1257.8 929.3,1220.1 958.3,1182.4 987.5,1144.8 1016.9,1107.2 1046.4,1069.7 1076.0,1032.3 1105.8,995.1 1135.7,958.0 1165.6,921.1 1195.6,884.4 1225.7,848.0 1255.8,811.9 1285.9,776.0 1316.0,740.5 1346.1,705.4 1376.3,670.7 1406.4,636.5 1436.6,602.7 1466.7,569.5 1496.8,536.8 1527.0,504.8 1557.1,473.4 1587.2,442.7 1617.4,412.7 1647.6,383.6  A 894.085,894.085 0.00 0,1 1705.1,450.3 L 1705.1,450.3 1674.5,474.8 1643.9,500.6 1613.3,527.6 1582.6,555.7 1551.9,584.8 1521.1,615.0 1490.4,646.0 1459.6,678.0 1428.7,710.7 1397.9,744.1 1367.1,778.2 1336.3,813.0 1305.5,848.3 1274.7,884.1 1244.1,920.3 1213.5,957.0 1183.0,994.0 1152.7,1031.3 1122.5,1068.9 1092.6,1106.7 1062.8,1144.7 1033.4,1182.8 1004.2,1221.0 975.4,1259.3 947.0,1297.5 919.0,1335.8 891.5,1374.1 864.5,1412.2 838.2,1450.3 812.4,1488.2 787.4,1526.0 763.1,1563.6 739.6,1601.0 717.0,1638.2 695.3,1675.1 674.7,1711.8 655.1,1748.2 636.7,1784.3 619.5,1820.1  Z" style="stroke-width: 1.0;  stroke: rgb(0,0,0); fill: rgb(111,14,45);" />
<path d="M 132.754,1255.449 A 904.085,904.085 0.00 0,1 111.8,1168.8 L 111.8,1168.8 138.9,1162.5 166.5,1153.9 194.7,1143.1 223.3,1130.2 252.3,1115.3 281.7,1098.5 311.3,1079.9 341.2,1059.6 371.2,1037.8 401.4,1014.4 431.6,989.7 461.7,963.7 491.7,936.4 521.6,908.1 551.3,878.8 580.6,848.6 609.6,817.6 638.2,785.8 666.2,753.4 693.7,720.5 720.5,687.1 746.6,653.4 771.9,619.4 796.2,585.2 819.7,550.9 842.0,516.6 863.3,482.4 883.3,448.3 902.1,414.4 919.5,380.9 935.4,347.7 949.8,315.1 962.6,282.9 973.6,251.4 982.9,220.6 990.2,190.6 995.6,161.4 998.9,133.2 1000.0,105.9  A 894.085,894.085 0.00 0,1 1088.0,110.3 L 1088.0,110.3 1084.1,139.7 1077.9,170.0 1069.8,201.0 1059.7,232.9 1047.8,265.4 1034.2,298.6 1018.9,332.3 1002.0,366.6 983.7,401.2 964.0,436.3 943.1,471.6 920.9,507.2 897.6,542.9 873.3,578.8 848.0,614.6 821.8,650.4 794.8,686.0 767.2,721.4 738.8,756.5 709.9,791.2 680.5,825.4 650.6,859.1 620.4,892.1 589.8,924.4 559.0,955.9 528.0,986.5 496.9,1016.0 465.7,1044.5 434.5,1071.7 403.3,1097.6 372.3,1122.2 341.3,1145.2 310.6,1166.6 280.1,1186.3 249.9,1204.2 220.0,1220.2 190.5,1234.1 161.4,1245.9 132.8,1255.4  Z" style="stroke-width: 1.0;  stroke: rgb(0,0,0); fill: rgb(213,148,120);" />
<path d="M 111.819,1168.831 A 904.085,904.085 0.00 0,1 99.5,1080.6 L 99.5,1080.6 123.4,1077.3 147.8,1071.8 172.8,1064.1 198.1,1054.3 223.8,1042.6 249.7,1029.0 275.9,1013.5 302.1,996.4 328.4,977.6 354.6,957.3 380.8,935.6 406.8,912.6 432.5,888.3 457.9,862.8 482.9,836.4 507.5,808.9 531.5,780.6 554.9,751.5 577.7,721.7 599.7,691.3 620.9,660.5 641.2,629.2 660.7,597.7 679.0,565.9 696.4,534.0 712.5,502.2 727.5,470.4 741.2,438.8 753.6,407.4 764.6,376.5 774.1,346.0 782.1,316.1 788.4,286.9 793.2,258.4 796.2,230.8 797.5,204.1 796.9,178.5 794.4,154.1 790.0,130.9  A 894.085,894.085 0.00 0,1 876.5,114.5 L 876.5,114.5 878.9,140.1 879.3,166.8 877.7,194.8 874.1,223.7 868.7,253.6 861.6,284.3 852.8,315.8 842.4,348.0 830.4,380.8 817.0,414.0 802.3,447.7 786.2,481.7 768.8,515.9 750.4,550.2 730.8,584.6 710.2,618.9 688.6,653.0 666.2,686.9 643.0,720.5 619.0,753.6 594.4,786.1 569.2,818.1 543.4,849.3 517.1,879.7 490.5,909.2 463.5,937.6 436.3,964.9 408.9,991.0 381.3,1015.8 353.6,1039.2 326.0,1061.0 298.4,1081.3 270.9,1099.8 243.6,1116.4 216.5,1131.2 189.7,1143.9 163.3,1154.5 137.3,1162.8 111.8,1168.8  Z" style="stroke-width: 1.0;  stroke: rgb(0,0,0); fill: rgb(213,148,120);" />
<path d="M 1475.761,1768.779 A 904.085,904.085 0.00 0,1 1397.8,1811.9 L 1397.8,1811.9 1377.5,1770.5 1357.1,1729.2 1336.7,1687.8 1316.3,1646.4 1295.8,1604.9 1275.2,1563.5 1254.7,1522.1 1234.0,1480.6 1213.4,1439.2 1192.7,1397.7 1172.1,1356.2 1151.4,1314.8 1130.7,1273.3 1109.9,1231.9 1089.2,1190.5 1068.5,1149.0 1047.7,1107.6 1027.0,1066.2 1006.2,1024.9 985.5,983.5 964.8,942.2 944.0,900.8 923.3,859.6 902.6,818.3 881.8,777.1 861.1,735.9 840.4,694.7 819.7,653.6 799.0,612.6 778.3,571.5 757.6,530.5 736.8,489.6 716.1,448.7 695.4,407.9 674.7,367.1 654.0,326.4 633.2,285.7 612.4,245.1 591.7,204.6  A 894.085,894.085 0.00 0,1 671.9,168.3 L 671.9,168.3 688.0,208.5 704.6,249.0 721.7,289.6 739.1,330.5 757.0,371.5 775.2,412.6 793.8,453.9 812.7,495.4 831.9,537.0 851.3,578.7 871.1,620.6 891.0,662.5 911.2,704.5 931.5,746.7 952.0,788.8 972.7,831.0 993.6,873.3 1014.5,915.5 1035.6,957.8 1056.8,1000.0 1078.2,1042.2 1099.6,1084.3 1121.1,1126.4 1142.6,1168.3 1164.3,1210.1 1186.0,1251.8 1207.8,1293.3 1229.7,1334.6 1251.6,1375.7 1273.6,1416.6 1295.7,1457.2 1317.9,1497.4 1340.1,1537.4 1362.4,1577.0 1384.9,1616.2 1407.4,1655.1 1430.1,1693.5 1452.8,1731.4 1475.8,1768.8  Z" style="stroke-width: 1.0;  stroke: rgb(0,0,0); fill: rgb(40,52,79);" />
<path d="M 946.987,1902.529 A 904.085,904.085 0.00 0,1 858.4,1892.9 L 858.4,1892.9 861.3,1867.1 862.2,1840.0 861.2,1811.8 858.2,1782.6 853.4,1752.4 846.9,1721.3 838.7,1689.5 829.0,1656.9 817.7,1623.8 805.0,1590.2 790.9,1556.2 775.5,1521.9 758.9,1487.4 741.1,1452.8 722.3,1418.2 702.4,1383.6 681.6,1349.2 660.0,1315.1 637.5,1281.3 614.3,1248.0 590.5,1215.3 566.0,1183.2 541.0,1151.9 515.6,1121.4 489.7,1091.8 463.5,1063.3 437.1,1036.0 410.4,1009.9 383.6,985.1 356.8,961.8 329.9,940.0 303.0,919.8 276.3,901.4 249.7,884.8 223.4,870.2 197.4,857.6 171.7,847.1 146.4,838.9 121.6,833.0  A 894.085,894.085 0.00 0,1 142.3,747.4 L 142.3,747.4 168.6,756.3 195.3,767.5 222.3,781.0 249.5,796.6 277.0,814.3 304.7,833.8 332.6,855.2 360.5,878.3 388.5,902.9 416.4,929.1 444.4,956.6 472.2,985.5 499.8,1015.5 527.2,1046.6 554.4,1078.7 581.2,1111.7 607.6,1145.5 633.5,1180.0 659.0,1215.1 683.8,1250.7 708.0,1286.7 731.4,1323.0 754.1,1359.5 775.8,1396.2 796.7,1432.9 816.5,1469.6 835.3,1506.1 852.9,1542.4 869.3,1578.4 884.3,1614.0 898.0,1649.1 910.2,1683.6 920.8,1717.5 929.8,1750.6 937.0,1783.0 942.5,1814.4 946.0,1844.9 947.5,1874.3 947.0,1902.5  Z" style="stroke-width: 1.0;  stroke: rgb(0,0,0); fill: rgb(158,86,39);" />
<path d="M 1365.035,1827.115 A 904.085,904.085 0.00 0,1 1281.8,1859.0 L 1281.8,1859.0 1270.7,1828.0 1257.4,1796.5 1242.3,1764.5 1225.3,1732.1 1206.6,1699.4 1186.2,1666.3 1164.3,1632.9 1141.0,1599.3 1116.3,1565.4 1090.4,1531.4 1063.4,1497.3 1035.3,1463.0 1006.2,1428.8 976.2,1394.6 945.4,1360.5 913.9,1326.5 881.8,1292.7 849.1,1259.2 815.9,1226.0 782.2,1193.2 748.2,1160.9 713.9,1129.1 679.4,1097.9 644.8,1067.3 610.0,1037.6 575.2,1008.6 540.4,980.6 505.7,953.5 471.1,927.6 436.7,902.8 402.5,879.3 368.6,857.1 335.1,836.3 301.8,817.1 269.0,799.5 236.6,783.6 204.7,769.6 173.2,757.4 142.3,747.4  A 894.085,894.085 0.00 0,1 171.4,664.2 L 171.4,664.2 203.6,678.1 236.3,693.8 269.3,711.2 302.6,730.2 336.3,750.8 370.3,772.7 404.6,796.0 439.1,820.5 473.8,846.1 508.7,872.9 543.7,900.6 578.9,929.2 614.1,958.7 649.3,989.0 684.5,1019.9 719.7,1051.5 754.7,1083.6 789.6,1116.3 824.2,1149.3 858.5,1182.8 892.6,1216.5 926.2,1250.6 959.3,1284.8 991.9,1319.2 1023.9,1353.7 1055.2,1388.3 1085.8,1422.9 1115.6,1457.5 1144.5,1492.0 1172.4,1526.5 1199.2,1560.8 1224.9,1594.9 1249.3,1628.9 1272.5,1662.6 1294.2,1696.1 1314.4,1729.3 1333.0,1762.2 1349.9,1794.8 1365.0,1827.1  Z" style="stroke-width: 1.0;  stroke: rgb(0,0,0); fill: rgb(238,192,100);" />
<path d="M 176.341,1372.767 A 904.085,904.085 0.00 0,1 143.6,1289.9 L 143.6,1289.9 159.3,1284.2 174.8,1278.0 189.8,1271.3 204.4,1264.2 218.4,1256.6 231.8,1248.7 244.4,1240.5 256.3,1232.0 267.2,1223.3 277.3,1214.5 286.3,1205.5 294.3,1196.4 301.2,1187.3 307.0,1178.2 311.7,1169.2 315.2,1160.2 317.5,1151.3 318.6,1142.6 318.5,1134.1 317.2,1125.8 314.6,1117.7 310.9,1109.9 306.0,1102.4 300.0,1095.3 292.8,1088.5 284.6,1082.1 275.3,1076.1 265.1,1070.6 253.9,1065.5 241.8,1060.9 228.9,1056.8 215.3,1053.2 201.1,1050.2 186.2,1047.7 170.9,1045.8 155.2,1044.5 139.3,1043.7 123.2,1043.6 107.0,1044.1  A 894.085,894.085 0.00 0,1 107.0,955.9 L 107.0,955.9 123.7,957.3 140.4,959.7 156.9,963.0 173.2,967.3 189.1,972.6 204.5,978.7 219.5,985.7 233.7,993.5 247.3,1002.0 260.2,1011.3 272.2,1021.3 283.2,1031.9 293.4,1043.1 302.5,1054.8 310.6,1067.1 317.6,1079.8 323.5,1092.9 328.3,1106.4 331.9,1120.2 334.3,1134.2 335.5,1148.5 335.6,1162.9 334.4,1177.4 332.1,1191.9 328.6,1206.4 323.9,1220.9 318.1,1235.2 311.2,1249.2 303.2,1263.1 294.2,1276.6 284.2,1289.7 273.3,1302.4 261.5,1314.6 248.9,1326.1 235.6,1337.0 221.6,1347.2 207.0,1356.6 191.9,1365.2 176.3,1372.8  Z" style="stroke-width: 1.0;  stroke: rgb(0,0,0); fill: rgb(181,104,89);" />
<path d="M 1902.986,1044.556 A 904.085,904.085 0.00 0,1 1894.2,1133.2 L 1894.2,1133.2 1873.9,1129.2 1853.5,1123.2 1833.0,1115.3 1812.5,1105.6 1792.1,1094.1 1771.9,1081.0 1752.0,1066.3 1732.4,1050.1 1713.2,1032.5 1694.4,1013.5 1676.2,993.3 1658.5,972.0 1641.5,949.6 1625.2,926.2 1609.7,901.9 1595.0,876.8 1581.1,850.9 1568.1,824.5 1556.1,797.5 1545.1,770.1 1535.0,742.4 1526.1,714.4 1518.2,686.3 1511.4,658.2 1505.8,630.0 1501.4,602.1 1498.1,574.4 1496.1,547.0 1495.3,520.2 1495.7,493.8 1497.4,468.2 1500.3,443.3 1504.5,419.3 1510.0,396.3 1516.7,374.4 1524.7,353.7 1534.0,334.4 1544.5,316.4 1556.3,300.0  A 894.085,894.085 0.00 0,1 1622.5,358.2 L 1622.5,358.2 1610.1,372.2 1598.7,387.6 1588.3,404.3 1579.1,422.1 1570.9,440.9 1563.9,460.7 1558.1,481.3 1553.4,502.7 1549.9,524.7 1547.6,547.2 1546.5,570.2 1546.6,593.5 1547.9,617.1 1550.4,640.9 1554.0,664.7 1558.8,688.4 1564.8,712.1 1571.9,735.6 1580.1,758.8 1589.3,781.6 1599.6,804.0 1610.9,825.9 1623.2,847.1 1636.3,867.7 1650.4,887.5 1665.3,906.4 1680.9,924.5 1697.2,941.5 1714.2,957.5 1731.8,972.4 1749.8,986.0 1768.3,998.4 1787.2,1009.5 1806.3,1019.2 1825.6,1027.4 1845.0,1034.1 1864.5,1039.3 1883.8,1042.8 1903.0,1044.6  Z" style="stroke-width: 1.0;  stroke: rgb(0,0,0); fill: rgb(44,44,44);" />
<path d="M 437.508,1707.794 A 904.085,904.085 0.00 0,1 370.6,1649.0 L 370.6,1649.0 400.8,1617.5 430.9,1585.5 461.1,1552.9 491.2,1519.9 521.3,1486.3 551.4,1452.4 581.5,1418.0 611.5,1383.3 641.6,1348.2 671.6,1312.8 701.6,1277.2 731.6,1241.3 761.5,1205.2 791.4,1168.8 821.3,1132.3 851.1,1095.7 880.8,1058.9 910.5,1022.0 940.1,985.0 969.6,947.9 998.9,910.8 1028.2,873.7 1057.2,836.5 1086.2,799.4 1114.9,762.2 1143.4,725.1 1171.7,688.0 1199.8,651.0 1227.6,614.0 1255.1,577.0 1282.3,540.2 1309.1,503.4 1335.5,466.7 1361.6,430.2 1387.2,393.7 1412.4,357.3 1437.0,321.0 1461.1,284.8 1484.7,248.7  A 894.085,894.085 0.00 0,1 1556.3,300.0 L 1556.3,300.0 1527.8,335.8 1499.4,371.6 1471.0,407.5 1442.6,443.4 1414.1,479.3 1385.7,515.2 1357.2,551.2 1328.8,587.2 1300.3,623.2 1271.8,659.2 1243.2,695.2 1214.7,731.3 1186.1,767.4 1157.5,803.5 1128.9,839.6 1100.2,875.7 1071.6,911.8 1042.9,948.0 1014.2,984.1 985.4,1020.3 956.7,1056.5 927.9,1092.7 899.1,1128.8 870.3,1165.0 841.4,1201.2 812.6,1237.4 783.7,1273.6 754.8,1309.8 726.0,1346.0 697.1,1382.2 668.2,1418.4 639.3,1454.5 610.4,1490.7 581.6,1526.9 552.7,1563.1 523.9,1599.3 495.1,1635.5 466.3,1671.6 437.5,1707.8  Z" style="stroke-width: 1.0;  stroke: rgb(0,0,0); fill: rgb(44,44,44);" />
<path d="M 702.121,1853.603 A 904.085,904.085 0.00 0,1 619.5,1820.1 L 619.5,1820.1 636.0,1786.1 654.0,1751.8 673.5,1717.2 694.3,1682.3 716.4,1647.1 739.6,1611.7 763.9,1576.0 789.3,1540.2 815.6,1504.2 842.8,1468.0 870.8,1431.7 899.5,1395.3 928.9,1358.9 958.9,1322.5 989.5,1286.0 1020.6,1249.7 1052.1,1213.4 1084.0,1177.3 1116.2,1141.4 1148.7,1105.7 1181.5,1070.4 1214.4,1035.3 1247.6,1000.7 1280.8,966.5 1314.1,932.8 1347.5,899.8 1380.8,867.3 1414.2,835.5 1447.5,804.6 1480.8,774.4 1513.9,745.2 1547.0,716.9 1579.9,689.7 1612.7,663.6 1645.4,638.7 1677.9,615.1 1710.2,592.9 1742.3,572.2 1774.3,553.0  A 894.085,894.085 0.00 0,1 1814.5,631.4 L 1814.5,631.4 1783.4,646.4 1751.9,663.2 1720.2,681.9 1688.1,702.2 1655.8,724.1 1623.3,747.5 1590.6,772.3 1557.7,798.3 1524.6,825.6 1491.4,854.0 1458.1,883.4 1424.8,913.8 1391.5,945.1 1358.1,977.2 1324.9,1009.9 1291.7,1043.4 1258.8,1077.4 1226.0,1111.9 1193.5,1146.9 1161.3,1182.2 1129.5,1217.9 1098.1,1253.8 1067.3,1289.9 1037.0,1326.1 1007.3,1362.4 978.3,1398.8 950.1,1435.1 922.8,1471.3 896.4,1507.5 871.0,1543.4 846.7,1579.2 823.6,1614.7 801.7,1650.0 781.2,1684.9 762.1,1719.5 744.5,1753.6 728.6,1787.4 714.5,1820.7 702.1,1853.6  Z" style="stroke-width: 1.0;  stroke: rgb(0,0,0); fill: rgb(44,44,44);" />
<path d="M 1072.133,1901.203 A 904.085,904.085 0.00 0,1 983.1,1903.9 L 983.1,1903.9 982.7,1872.2 980.4,1839.4 976.3,1805.5 970.5,1770.6 963.0,1734.8 954.0,1698.1 943.6,1660.7 931.8,1622.6 918.8,1583.8 904.5,1544.5 889.1,1504.8 872.6,1464.6 855.1,1424.1 836.7,1383.4 817.5,1342.5 797.4,1301.6 776.6,1260.6 755.2,1219.8 733.1,1179.2 710.5,1138.9 687.3,1098.9 663.7,1059.4 639.6,1020.4 615.2,982.1 590.4,944.5 565.4,907.8 540.1,872.0 514.5,837.3 488.8,803.6 462.9,771.3 436.8,740.2 410.6,710.6 384.4,682.6 358.0,656.2 331.6,631.6 305.2,608.8 278.7,588.1 252.2,569.4 225.7,553.0  A 894.085,894.085 0.00 0,1 273.5,478.9 L 273.5,478.9 300.4,499.3 327.3,521.7 354.0,545.9 380.7,571.9 407.2,599.6 433.7,628.9 460.1,659.6 486.3,691.7 512.5,725.1 538.5,759.6 564.3,795.2 590.0,831.9 615.5,869.4 640.7,907.7 665.8,946.8 690.5,986.5 715.0,1026.8 739.1,1067.5 762.8,1108.7 786.1,1150.1 808.9,1191.8 831.2,1233.6 852.9,1275.6 874.0,1317.5 894.5,1359.3 914.2,1401.1 933.1,1442.6 951.2,1483.8 968.3,1524.7 984.5,1565.2 999.5,1605.2 1013.5,1644.7 1026.2,1683.6 1037.6,1721.8 1047.6,1759.3 1056.2,1796.1 1063.2,1832.0 1068.5,1867.1 1072.1,1901.2  Z" style="stroke-width: 1.0;  stroke: rgb(0,0,0); fill: rgb(44,44,44);" />
<path d="M 1160.503,1889.724 A 904.085,904.085 0.00 0,1 1072.1,1901.2 L 1072.1,1901.2 1070.8,1871.5 1071.5,1840.6 1074.1,1808.6 1078.4,1775.5 1084.5,1741.4 1092.2,1706.5 1101.5,1670.7 1112.2,1634.1 1124.3,1596.9 1137.7,1559.1 1152.3,1520.9 1168.1,1482.2 1185.0,1443.2 1202.9,1404.0 1221.7,1364.7 1241.4,1325.3 1262.0,1286.0 1283.2,1246.8 1305.2,1207.8 1327.8,1169.2 1351.0,1131.0 1374.8,1093.3 1399.0,1056.2 1423.6,1019.9 1448.5,984.4 1473.9,949.8 1499.4,916.2 1525.3,883.7 1551.3,852.5 1577.5,822.6 1603.8,794.1 1630.1,767.2 1656.6,742.0 1683.0,718.5 1709.5,696.8 1735.8,677.2 1762.2,659.7 1788.4,644.4 1814.5,631.4  A 894.085,894.085 0.00 0,1 1846.9,713.3 L 1846.9,713.3 1821.9,723.0 1796.6,735.0 1771.2,749.3 1745.7,765.8 1720.0,784.3 1694.3,804.8 1668.6,827.1 1642.9,851.2 1617.3,876.8 1591.8,904.0 1566.5,932.5 1541.4,962.4 1516.6,993.5 1492.1,1025.7 1468.0,1058.8 1444.4,1092.8 1421.2,1127.6 1398.6,1163.1 1376.5,1199.2 1355.2,1235.7 1334.5,1272.7 1314.7,1309.9 1295.7,1347.2 1277.5,1384.7 1260.4,1422.1 1244.3,1459.4 1229.3,1496.5 1215.4,1533.2 1202.8,1569.6 1191.5,1605.4 1181.6,1640.7 1173.1,1675.2 1166.2,1709.0 1160.8,1741.8 1157.1,1773.7 1155.1,1804.6 1155.0,1834.2 1156.8,1862.7 1160.5,1889.7  Z" style="stroke-width: 1.0;  stroke: rgb(0,0,0); fill: rgb(44,44,44);" />
<path d="M 1247.314,1869.601 A 904.085,904.085 0.00 0,1 1160.5,1889.7 L 1160.5,1889.7 1157.1,1864.2 1155.6,1837.4 1156.1,1809.4 1158.5,1780.4 1162.7,1750.4 1168.7,1719.5 1176.2,1687.8 1185.4,1655.4 1196.1,1622.4 1208.2,1588.9 1221.7,1555.0 1236.4,1520.8 1252.4,1486.4 1269.6,1451.8 1287.8,1417.2 1307.1,1382.7 1327.3,1348.4 1348.4,1314.3 1370.3,1280.6 1392.9,1247.3 1416.3,1214.6 1440.2,1182.6 1464.7,1151.2 1489.7,1120.8 1515.0,1091.3 1540.8,1062.8 1566.8,1035.5 1593.0,1009.4 1619.4,984.7 1645.9,961.4 1672.4,939.6 1698.9,919.5 1725.3,901.1 1751.6,884.6 1777.6,870.0 1803.3,857.5 1828.8,847.0 1853.8,838.9 1878.4,833.0  A 894.085,894.085 0.00 0,1 1890.5,920.3 L 1890.5,920.3 1867.6,923.5 1844.1,928.9 1820.1,936.5 1795.8,946.1 1771.1,957.8 1746.2,971.3 1721.2,986.6 1696.1,1003.6 1670.9,1022.2 1645.8,1042.4 1620.9,1064.0 1596.1,1087.0 1571.6,1111.2 1547.5,1136.6 1523.8,1163.1 1500.5,1190.5 1477.8,1218.8 1455.7,1247.9 1434.3,1277.7 1413.7,1308.1 1393.8,1339.0 1374.9,1370.3 1356.8,1402.0 1339.8,1433.8 1323.9,1465.8 1309.1,1497.7 1295.4,1529.6 1283.1,1561.3 1272.1,1592.8 1262.4,1623.8 1254.2,1654.4 1247.5,1684.4 1242.3,1713.7 1238.8,1742.3 1236.9,1769.9 1236.8,1796.6 1238.4,1822.2 1241.9,1846.5 1247.3,1869.6  Z" style="stroke-width: 1.0;  stroke: rgb(0,0,0); fill: rgb(44,44,44);" />
<path d="M 1577.370,1695.711 A 904.085,904.085 0.00 0,1 1506.1,1749.2 L 1506.1,1749.2 1482.6,1715.1 1458.1,1680.9 1432.7,1646.6 1406.4,1612.2 1379.4,1577.7 1351.6,1543.1 1323.1,1508.4 1294.0,1473.6 1264.3,1438.8 1234.0,1403.9 1203.3,1368.9 1172.1,1334.0 1140.4,1299.0 1108.5,1264.0 1076.2,1229.1 1043.6,1194.2 1010.7,1159.4 977.6,1124.7 944.4,1090.1 911.0,1055.7 877.4,1021.4 843.8,987.4 810.0,953.6 776.3,920.1 742.4,886.9 708.6,854.0 674.8,821.6 641.0,789.5 607.2,758.0 573.5,726.9 539.9,696.5 506.3,666.6 472.8,637.4 439.3,608.9 406.0,581.2 372.7,554.2 339.6,528.2 306.5,503.1 273.5,478.9  A 894.085,894.085 0.00 0,1 328.3,409.9 L 328.3,409.9 361.0,438.9 393.7,468.3 426.4,498.1 459.1,528.4 491.9,559.0 524.7,590.0 557.6,621.3 590.4,653.0 623.3,684.9 656.2,717.1 689.2,749.5 722.1,782.2 755.1,815.1 788.1,848.1 821.1,881.4 854.1,914.7 887.0,948.2 920.0,981.8 952.9,1015.6 985.7,1049.4 1018.5,1083.3 1051.2,1117.2 1083.8,1151.2 1116.3,1185.3 1148.7,1219.3 1181.0,1253.4 1213.0,1287.5 1244.9,1321.6 1276.6,1355.7 1308.1,1389.8 1339.4,1423.9 1370.3,1458.0 1401.0,1492.0 1431.3,1526.1 1461.4,1560.0 1491.0,1594.0 1520.2,1627.9 1549.0,1661.8 1577.4,1695.7  Z" style="stroke-width: 1.0;  stroke: rgb(0,0,0); fill: rgb(44,44,44);" />
<path d="M 822.857,1886.561 A 904.085,904.085 0.00 0,1 736.4,1864.8 L 736.4,1864.8 746.9,1833.8 759.4,1802.3 773.9,1770.3 790.2,1737.9 808.2,1705.0 827.9,1671.8 849.2,1638.3 871.9,1604.5 895.9,1570.5 921.2,1536.2 947.7,1501.9 975.3,1467.4 1003.8,1432.9 1033.2,1398.5 1063.5,1364.1 1094.5,1329.9 1126.2,1295.8 1158.4,1262.0 1191.2,1228.6 1224.4,1195.5 1257.9,1162.9 1291.8,1130.9 1325.9,1099.5 1360.1,1068.7 1394.5,1038.7 1428.9,1009.6 1463.3,981.3 1497.7,954.1 1531.9,928.0 1566.0,903.1 1599.8,879.4 1633.4,857.1 1666.7,836.3 1699.6,817.0 1732.1,799.4 1764.2,783.5 1795.9,769.5 1827.0,757.4 1857.7,747.4  A 894.085,894.085 0.00 0,1 1878.4,833.0 L 1878.4,833.0 1849.4,839.6 1819.8,848.4 1789.6,859.3 1758.7,872.1 1727.4,886.9 1695.6,903.4 1663.3,921.7 1630.7,941.5 1597.8,962.8 1564.7,985.6 1531.4,1009.6 1497.9,1034.9 1464.4,1061.3 1430.9,1088.7 1397.4,1117.1 1364.1,1146.3 1331.0,1176.3 1298.2,1207.1 1265.8,1238.4 1233.8,1270.3 1202.3,1302.7 1171.5,1335.5 1141.3,1368.5 1111.8,1401.8 1083.2,1435.3 1055.5,1468.9 1028.9,1502.5 1003.3,1536.1 979.0,1569.7 955.9,1603.0 934.3,1636.1 914.1,1669.0 895.5,1701.5 878.6,1733.6 863.4,1765.3 850.2,1796.5 839.0,1827.1 829.8,1857.2 822.9,1886.6  Z" style="stroke-width: 1.0;  stroke: rgb(0,0,0); fill: rgb(44,44,44);" />
</g>
<defs>
<pattern id="vline-sparse" width="10" height="10" patternTransform="rotate(0 0 0)" patternUnits="userSpaceOnUse"><line x1="0" y1="0" x2="0" y2="10" style="stroke:black;stroke-width:2" /></pattern>
<pattern id="checker" width="10" height="10" patternTransform="rotate(45 0 0)" patternUnits="userSpaceOnUse"><line x1="0" y1="0" x2="10" y2="0" style="stroke:black;stroke-width:5" /><line x1="0" y1="0" x2="0" y2="10" style="stroke:black;stroke-width:4" /></pattern>
<pattern id="hline" width="10" height="10" patternTransform="rotate(0 0 0)" patternUnits="userSpaceOnUse"><line x1="0" y1="0" x2="10" y2="0" style="stroke:black;stroke-width:5" /></pattern>
<pattern id="checker" width="10" height="10" patternTransform="rotate(45 0 0)" patternUnits="userSpaceOnUse"><line x1="0" y1="0" x2="10" y2="0" style="stroke:black;stroke-width:2" /><line x1="0" y1="0" x2="0" y2="10" style="stroke:black;stroke-width:2" /></pattern>
<pattern id="hline-sparse" width="10" height="10" patternTransform="rotate(0 0 0)" patternUnits="userSpaceOnUse"><line x1="0" y1="0" x2="10" y2="0" style="stroke:black;stroke-width:2" /></pattern>
<pattern id="vline" width="10" height="10" patternTransform="rotate(0 0 0)" patternUnits="userSpaceOnUse"><line x1="0" y1="0" x2="0" y2="10" style="stroke:black;stroke-width:5" /></pattern>
</defs>
</svg>
